<svg xmlns="http://www.w3.org/2000/svg" xmlns:xlink="http://www.w3.org/1999/xlink" width="480" zoomAndPan="magnify" viewBox="0 0 360 359.999987" height="480" preserveAspectRatio="xMidYMid meet" version="1.0"><defs><clipPath id="803b35b3b9"><path d="M 0.0117188 302 L 359.988281 302 L 359.988281 359.851562 L 0.0117188 359.851562 Z M 0.0117188 302 " clip-rule="nonzero"/></clipPath><clipPath id="6e520d6d81"><path d="M 151.136719 157.328125 L 286.757812 157.328125 L 286.757812 300 L 151.136719 300 Z M 151.136719 157.328125 " clip-rule="nonzero"/></clipPath></defs><path fill="#9ee0f8" d="M 324.996094 248.5625 C 313.9375 242.820312 304.019531 235.519531 291.082031 232.335938 C 272.566406 227.777344 252.160156 232.675781 234.675781 238.960938 C 217.1875 245.25 200.125 253.113281 180.6875 254.886719 C 142.304688 258.386719 107.703125 237.5 69.207031 234.667969 C 44.148438 232.820312 18.160156 239.273438 0.0117188 251.671875 L 0.0117188 271.8125 C 11.058594 267.625 22.390625 263.941406 34.191406 261.191406 C 60.195312 255.128906 89.09375 253.953125 114.0625 262.179688 C 128.511719 266.941406 142.40625 274.878906 158.078125 273.839844 C 173.269531 272.832031 185.195312 263.625 199.480469 259.550781 C 217.554688 254.394531 237.980469 257.882812 255.574219 263.925781 C 273.175781 269.964844 289.25 278.457031 307.167969 283.917969 C 323.972656 289.039062 343.546875 291.222656 359.988281 285.796875 L 359.988281 255.707031 C 348.15625 257.929688 335.125 253.820312 324.996094 248.5625 " fill-opacity="1" fill-rule="nonzero"/><path fill="#bdeaf9" d="M 69.207031 234.667969 C 107.703125 237.5 142.304688 258.386719 180.6875 254.886719 C 200.125 253.113281 217.1875 245.25 234.675781 238.960938 C 252.160156 232.675781 272.566406 227.777344 291.082031 232.335938 C 304.019531 235.519531 313.9375 242.820312 324.996094 248.5625 C 335.125 253.820312 348.15625 257.929688 359.988281 255.707031 L 359.988281 208.074219 C 345.699219 203.460938 329.375 203.914062 315.480469 209.425781 C 303.476562 214.183594 292.847656 222.59375 279.75 223.628906 C 257.257812 225.402344 237.683594 204.714844 215.421875 208.066406 C 205.859375 209.503906 197.929688 215.195312 189.191406 218.925781 C 169.207031 227.457031 145.460938 225.464844 124.140625 220.035156 C 102.820312 214.605469 82.601562 205.980469 61.007812 201.472656 C 40.652344 197.222656 17.945312 197.09375 0.0117188 206.308594 L 0.0117188 251.671875 C 18.160156 239.273438 44.148438 232.820312 69.207031 234.667969 " fill-opacity="1" fill-rule="nonzero"/><path fill="#8edbf6" d="M 307.167969 283.917969 C 289.25 278.457031 273.175781 269.964844 255.574219 263.925781 C 237.980469 257.882812 217.554688 254.394531 199.480469 259.550781 C 185.195312 263.625 173.269531 272.832031 158.078125 273.839844 C 142.40625 274.878906 128.511719 266.941406 114.0625 262.179688 C 89.09375 253.953125 60.195312 255.128906 34.191406 261.191406 C 22.390625 263.941406 11.058594 267.625 0.0117188 271.8125 L 0.0117188 324.980469 C 11.058594 329.167969 22.390625 332.855469 34.191406 335.605469 C 60.195312 341.667969 89.09375 342.84375 114.0625 334.617188 C 128.511719 329.855469 142.40625 321.917969 158.078125 322.953125 C 173.269531 323.964844 185.195312 333.171875 199.480469 337.246094 C 217.554688 342.402344 237.980469 338.914062 255.574219 332.871094 C 273.175781 326.832031 289.25 318.339844 307.167969 312.878906 C 323.972656 307.757812 343.546875 305.574219 359.988281 311 L 359.988281 285.796875 C 343.546875 291.222656 323.972656 289.039062 307.167969 283.917969 " fill-opacity="1" fill-rule="nonzero"/><path fill="#5ec1ef" d="M 324.996094 309.96875 C 313.9375 315.710938 304.019531 323.011719 291.082031 326.195312 C 272.566406 330.753906 252.160156 325.859375 234.675781 319.570312 C 217.1875 313.285156 200.125 305.421875 180.6875 303.648438 C 142.304688 300.144531 107.703125 321.03125 69.207031 323.867188 C 44.148438 325.710938 18.160156 319.261719 0.0117188 306.863281 L 0.0117188 286.71875 C 11.058594 290.90625 22.390625 294.589844 34.191406 297.339844 C 60.195312 303.402344 89.09375 304.582031 114.0625 296.351562 C 128.511719 291.59375 142.40625 283.652344 158.078125 284.691406 C 173.269531 285.699219 185.195312 294.90625 199.480469 298.984375 C 217.554688 304.136719 237.980469 300.648438 255.574219 294.609375 C 273.175781 288.566406 289.25 280.074219 307.167969 274.613281 C 323.972656 269.492188 343.546875 267.308594 359.988281 272.734375 L 359.988281 302.828125 C 348.15625 300.605469 335.125 304.710938 324.996094 309.96875 " fill-opacity="1" fill-rule="nonzero"/><g clip-path="url(#803b35b3b9)"><path fill="#46a4de" d="M 324.996094 309.96875 C 313.9375 315.710938 304.019531 323.011719 291.082031 326.195312 C 272.566406 330.753906 252.160156 325.859375 234.675781 319.570312 C 217.1875 313.285156 200.125 305.421875 180.6875 303.648438 C 142.304688 300.144531 107.703125 321.03125 69.207031 323.867188 C 44.148438 325.710938 18.160156 319.261719 0.0117188 306.863281 L 0.0117188 359.851562 L 359.988281 359.851562 L 359.988281 302.828125 C 348.15625 300.605469 335.125 304.710938 324.996094 309.96875 " fill-opacity="1" fill-rule="nonzero"/></g><g clip-path="url(#6e520d6d81)"><path fill="#36ab9c" d="M 151.875 265.96875 C 151.972656 265.996094 152.074219 266.027344 152.171875 266.054688 C 152.363281 266.109375 152.558594 266.167969 152.757812 266.222656 C 152.878906 266.253906 153.003906 266.289062 153.125 266.324219 C 153.300781 266.371094 153.476562 266.421875 153.660156 266.472656 C 153.789062 266.503906 153.921875 266.542969 154.054688 266.574219 C 154.230469 266.625 154.40625 266.667969 154.582031 266.71875 C 154.71875 266.75 154.855469 266.789062 154.992188 266.824219 C 155.171875 266.867188 155.347656 266.914062 155.527344 266.957031 C 155.671875 266.996094 155.820312 267.03125 155.964844 267.066406 C 156.140625 267.109375 156.316406 267.15625 156.492188 267.195312 C 156.640625 267.234375 156.792969 267.269531 156.945312 267.304688 C 157.121094 267.347656 157.296875 267.390625 157.472656 267.429688 C 157.628906 267.464844 157.785156 267.5 157.941406 267.539062 C 158.121094 267.578125 158.296875 267.621094 158.476562 267.660156 C 158.632812 267.695312 158.796875 267.730469 158.953125 267.765625 C 159.132812 267.808594 159.316406 267.847656 159.496094 267.886719 C 159.660156 267.921875 159.824219 267.957031 159.988281 267.992188 C 160.167969 268.03125 160.355469 268.070312 160.539062 268.109375 C 160.703125 268.144531 160.871094 268.179688 161.039062 268.214844 C 161.226562 268.253906 161.410156 268.292969 161.597656 268.332031 C 161.765625 268.367188 161.9375 268.398438 162.105469 268.433594 C 162.292969 268.46875 162.480469 268.511719 162.667969 268.546875 C 162.84375 268.582031 163.019531 268.613281 163.195312 268.652344 C 163.382812 268.6875 163.570312 268.726562 163.757812 268.761719 C 163.9375 268.796875 164.117188 268.832031 164.300781 268.863281 C 164.484375 268.902344 164.671875 268.933594 164.863281 268.972656 C 165.046875 269.007812 165.234375 269.039062 165.417969 269.074219 C 165.605469 269.109375 165.796875 269.144531 165.988281 269.179688 C 166.171875 269.214844 166.359375 269.246094 166.546875 269.277344 C 166.742188 269.3125 166.9375 269.347656 167.132812 269.382812 C 167.320312 269.417969 167.507812 269.449219 167.691406 269.480469 C 167.890625 269.515625 168.085938 269.546875 168.285156 269.582031 C 168.476562 269.617188 168.667969 269.648438 168.859375 269.679688 C 169.054688 269.710938 169.25 269.742188 169.449219 269.777344 C 169.644531 269.808594 169.84375 269.84375 170.039062 269.875 C 170.238281 269.90625 170.433594 269.9375 170.632812 269.96875 C 170.828125 270 171.027344 270.03125 171.226562 270.0625 C 171.429688 270.09375 171.628906 270.125 171.828125 270.15625 C 172.03125 270.1875 172.234375 270.21875 172.4375 270.25 C 172.636719 270.28125 172.835938 270.308594 173.035156 270.339844 C 173.242188 270.371094 173.453125 270.402344 173.660156 270.433594 C 173.859375 270.464844 174.054688 270.496094 174.253906 270.523438 C 174.464844 270.554688 174.679688 270.585938 174.890625 270.617188 C 175.09375 270.644531 175.292969 270.671875 175.496094 270.703125 C 175.707031 270.734375 175.925781 270.765625 176.136719 270.796875 C 176.335938 270.824219 176.539062 270.851562 176.734375 270.878906 C 176.953125 270.910156 177.175781 270.941406 177.394531 270.972656 C 177.59375 271 177.792969 271.023438 177.992188 271.054688 C 178.214844 271.085938 178.4375 271.113281 178.660156 271.144531 C 178.859375 271.167969 179.058594 271.199219 179.257812 271.222656 C 179.484375 271.253906 179.714844 271.28125 179.941406 271.3125 C 180.140625 271.335938 180.335938 271.363281 180.535156 271.386719 C 180.765625 271.417969 180.996094 271.449219 181.230469 271.476562 C 181.425781 271.5 181.621094 271.523438 181.816406 271.550781 C 182.054688 271.578125 182.289062 271.609375 182.527344 271.636719 C 182.71875 271.660156 182.910156 271.6875 183.105469 271.707031 C 183.347656 271.738281 183.59375 271.769531 183.835938 271.796875 C 184.027344 271.820312 184.214844 271.839844 184.40625 271.863281 C 184.652344 271.894531 184.90625 271.921875 185.15625 271.953125 C 185.339844 271.976562 185.527344 271.996094 185.710938 272.015625 C 185.964844 272.046875 186.222656 272.078125 186.480469 272.105469 C 186.660156 272.125 186.84375 272.144531 187.023438 272.167969 C 187.289062 272.199219 187.550781 272.226562 187.820312 272.253906 C 187.984375 272.277344 188.15625 272.292969 188.328125 272.3125 C 188.605469 272.34375 188.882812 272.375 189.164062 272.402344 C 189.320312 272.421875 189.480469 272.4375 189.636719 272.453125 C 189.925781 272.484375 190.222656 272.515625 190.515625 272.546875 C 190.65625 272.5625 190.800781 272.574219 190.941406 272.59375 C 191.25 272.625 191.558594 272.660156 191.867188 272.6875 C 191.996094 272.703125 192.121094 272.714844 192.25 272.730469 C 192.578125 272.761719 192.90625 272.796875 193.238281 272.828125 C 193.308594 272.835938 193.378906 272.84375 193.449219 272.847656 C 197.410156 273.246094 201.449219 273.605469 205.511719 273.933594 C 205.539062 273.9375 205.566406 273.941406 205.59375 273.941406 C 206.023438 273.972656 206.453125 274.007812 206.882812 274.042969 C 206.917969 274.042969 206.949219 274.046875 206.984375 274.050781 C 207.398438 274.082031 207.8125 274.117188 208.222656 274.148438 C 208.277344 274.148438 208.332031 274.15625 208.386719 274.15625 C 208.800781 274.1875 209.214844 274.21875 209.628906 274.25 C 209.675781 274.253906 209.722656 274.261719 209.773438 274.261719 C 210.179688 274.292969 210.582031 274.324219 210.988281 274.355469 C 211.050781 274.359375 211.117188 274.363281 211.179688 274.367188 C 211.574219 274.394531 211.972656 274.425781 212.367188 274.453125 C 212.4375 274.457031 212.507812 274.464844 212.578125 274.46875 C 212.96875 274.496094 213.355469 274.523438 213.746094 274.550781 C 213.820312 274.554688 213.902344 274.5625 213.976562 274.566406 C 214.378906 274.59375 214.777344 274.625 215.175781 274.648438 C 215.234375 274.652344 215.296875 274.65625 215.359375 274.660156 C 215.761719 274.6875 216.167969 274.714844 216.570312 274.742188 C 216.628906 274.746094 216.691406 274.75 216.75 274.753906 C 217.160156 274.78125 217.566406 274.808594 217.972656 274.832031 C 218.027344 274.835938 218.082031 274.839844 218.136719 274.84375 C 218.539062 274.871094 218.941406 274.894531 219.34375 274.921875 C 219.40625 274.921875 219.46875 274.929688 219.535156 274.933594 C 219.941406 274.957031 220.347656 274.984375 220.75 275.007812 C 220.804688 275.011719 220.859375 275.015625 220.910156 275.019531 C 221.316406 275.046875 221.71875 275.070312 222.125 275.09375 C 222.183594 275.097656 222.242188 275.101562 222.300781 275.105469 C 222.707031 275.128906 223.117188 275.152344 223.527344 275.179688 C 223.574219 275.183594 223.621094 275.183594 223.664062 275.1875 C 224.074219 275.214844 224.484375 275.234375 224.894531 275.257812 C 224.949219 275.261719 225 275.265625 225.054688 275.265625 C 225.46875 275.292969 225.890625 275.316406 226.308594 275.335938 C 226.332031 275.339844 226.359375 275.339844 226.386719 275.34375 C 226.820312 275.367188 227.253906 275.390625 227.6875 275.417969 C 227.707031 275.417969 227.722656 275.421875 227.742188 275.421875 C 228.179688 275.445312 228.617188 275.46875 229.054688 275.492188 C 229.070312 275.492188 229.085938 275.492188 229.101562 275.492188 C 229.539062 275.515625 229.980469 275.542969 230.417969 275.566406 C 230.417969 275.566406 230.425781 275.566406 230.429688 275.566406 C 230.535156 275.570312 230.636719 275.574219 230.742188 275.582031 L 231.921875 272.660156 C 232.328125 271.65625 232.742188 270.648438 233.15625 269.644531 L 233.71875 268.269531 C 234.277344 266.910156 234.851562 265.503906 235.464844 264.144531 L 235.582031 263.875 C 235.824219 263.339844 236.066406 262.789062 236.296875 262.230469 C 236.3125 261.902344 236.320312 261.574219 236.335938 261.246094 C 236.355469 260.71875 236.378906 260.191406 236.40625 259.660156 L 236.703125 259.695312 C 236.703125 259.6875 236.703125 259.683594 236.703125 259.675781 L 236.71875 259.398438 L 164.59375 250.566406 C 164.140625 250.511719 163.804688 250.109375 163.832031 249.652344 C 164.863281 231.984375 170.015625 216.234375 179.140625 202.847656 C 186.4375 192.140625 196.269531 182.917969 208.371094 175.4375 C 226.757812 164.089844 245.148438 160.199219 248.648438 159.535156 L 248.851562 159.5 C 248.851562 159.5 248.878906 159.355469 248.910156 159.183594 C 248.816406 159.203125 248.710938 159.222656 248.59375 159.246094 C 248.660156 158.894531 248.703125 158.675781 248.71875 158.605469 C 248.71875 158.59375 248.71875 158.582031 248.722656 158.582031 C 248.84375 157.949219 249.457031 157.535156 250.089844 157.65625 C 250.722656 157.777344 251.136719 158.390625 251.015625 159.023438 C 251.015625 159.027344 251.011719 159.046875 251.007812 159.070312 C 251.007812 159.074219 251.003906 159.082031 251.003906 159.089844 C 250.992188 159.140625 250.980469 159.226562 250.957031 159.339844 C 250.953125 159.351562 250.953125 159.363281 250.949219 159.378906 C 250.886719 159.710938 250.777344 160.273438 250.636719 161.046875 C 250.617188 161.164062 250.589844 161.289062 250.566406 161.414062 C 250.613281 161.472656 250.652344 161.539062 250.679688 161.605469 C 251.917969 164.78125 280.960938 239.699219 281.980469 265.679688 C 281.992188 265.945312 281.882812 266.203125 281.683594 266.371094 L 281.65625 266.390625 L 281.457031 266.539062 L 281.554688 266.753906 C 281.710938 267.105469 281.886719 267.496094 282.027344 267.890625 C 282.410156 268.933594 282.753906 269.917969 283.078125 270.890625 L 283.367188 271.746094 C 283.601562 272.441406 283.835938 273.136719 284.054688 273.835938 L 284.550781 275.386719 C 284.597656 275.535156 284.652344 275.6875 284.707031 275.84375 C 284.828125 276.195312 284.957031 276.558594 285.011719 276.902344 C 285.027344 277 285.023438 277.09375 284.996094 277.171875 L 284.964844 277.261719 C 285.074219 277.261719 285.179688 277.265625 285.28125 277.265625 C 285.644531 277.269531 285.941406 277.273438 286.171875 277.273438 C 286.171875 277.273438 286.175781 277.273438 286.175781 277.273438 C 286.25 277.273438 286.316406 277.273438 286.378906 277.273438 C 286.382812 277.273438 286.386719 277.273438 286.390625 277.273438 C 286.441406 277.273438 286.484375 277.273438 286.523438 277.273438 C 286.546875 277.273438 286.566406 277.273438 286.585938 277.273438 C 286.609375 277.273438 286.628906 277.273438 286.648438 277.273438 C 286.65625 277.273438 286.664062 277.273438 286.667969 277.273438 C 286.691406 277.273438 286.703125 277.273438 286.714844 277.273438 C 286.742188 277.273438 286.761719 277.273438 286.761719 277.273438 C 286.761719 277.273438 277.015625 295.011719 268.328125 297.546875 C 260.695312 299.769531 189.035156 301.164062 172.382812 294.648438 C 155.726562 288.140625 151.023438 265.714844 151.023438 265.714844 C 151.300781 265.800781 151.585938 265.882812 151.875 265.96875 Z M 238.714844 260.203125 C 238.710938 260.300781 238.703125 260.402344 238.703125 260.5 C 238.585938 263.109375 238.492188 265.707031 238.421875 268.285156 C 238.421875 268.289062 238.421875 268.292969 238.421875 268.292969 C 238.386719 269.582031 238.359375 270.867188 238.335938 272.144531 C 238.335938 272.148438 238.335938 272.148438 238.335938 272.152344 C 238.3125 273.429688 238.296875 274.703125 238.289062 275.96875 C 238.289062 275.96875 238.292969 275.96875 238.292969 275.96875 C 239.441406 276.023438 240.582031 276.070312 241.707031 276.121094 C 241.707031 276.121094 241.710938 276.121094 241.710938 276.121094 C 241.8125 276.125 241.910156 276.128906 242.011719 276.132812 L 242.007812 276.09375 C 241.992188 275.929688 241.984375 275.761719 241.972656 275.597656 C 241.957031 275.375 241.941406 275.152344 241.921875 274.9375 L 241.703125 272.71875 C 241.652344 272.246094 241.605469 271.765625 241.558594 271.289062 C 241.453125 270.28125 241.351562 269.242188 241.261719 268.21875 C 241.179688 267.25 241.097656 266.28125 241.019531 265.3125 L 240.890625 263.78125 C 240.828125 263.046875 240.773438 262.308594 240.722656 261.570312 L 240.699219 261.25 C 240.683594 261.03125 240.667969 260.8125 240.65625 260.589844 L 240.644531 260.328125 L 240.382812 260.308594 C 239.808594 260.265625 239.253906 260.230469 238.714844 260.203125 Z M 235.890625 265.261719 C 235.476562 266.402344 235.027344 267.570312 234.628906 268.597656 L 234.15625 269.832031 C 233.746094 270.894531 233.335938 271.957031 232.921875 273.019531 L 231.882812 275.65625 C 231.988281 275.664062 232.09375 275.667969 232.199219 275.675781 C 233.460938 275.742188 234.714844 275.800781 235.957031 275.859375 C 235.960938 274.996094 235.972656 274.132812 235.984375 273.265625 C 235.984375 273.257812 235.984375 273.25 235.984375 273.242188 C 235.992188 272.378906 236.011719 271.515625 236.027344 270.648438 C 236.027344 270.640625 236.027344 270.632812 236.027344 270.621094 C 236.066406 268.878906 236.113281 267.125 236.171875 265.367188 C 236.171875 265.367188 236.171875 265.367188 236.171875 265.363281 C 236.171875 265.34375 236.171875 265.332031 236.175781 265.3125 Z M 236.492188 229.972656 C 236.335938 235.832031 236.457031 241.582031 236.847656 247.058594 L 237.148438 247.058594 C 237.148438 247.050781 237.148438 247.046875 237.144531 247.035156 C 237.207031 246.160156 237.269531 245.28125 237.339844 244.40625 C 237.339844 244.402344 237.339844 244.402344 237.339844 244.398438 C 237.40625 243.527344 237.472656 242.648438 237.542969 241.78125 C 237.542969 241.777344 237.542969 241.773438 237.542969 241.769531 C 237.613281 240.898438 237.6875 240.027344 237.757812 239.15625 C 237.757812 239.15625 237.757812 239.152344 237.757812 239.152344 C 237.832031 238.285156 237.902344 237.414062 237.980469 236.546875 C 237.980469 236.542969 237.980469 236.542969 237.980469 236.539062 C 238.058594 235.671875 238.132812 234.808594 238.214844 233.945312 C 238.214844 233.941406 238.214844 233.941406 238.214844 233.933594 C 238.453125 231.34375 238.703125 228.769531 238.964844 226.226562 C 238.964844 226.222656 238.964844 226.214844 238.96875 226.210938 C 239.054688 225.367188 239.144531 224.527344 239.230469 223.691406 C 239.230469 223.683594 239.234375 223.675781 239.234375 223.667969 C 239.324219 222.832031 239.414062 221.996094 239.503906 221.167969 C 239.503906 221.164062 239.503906 221.164062 239.503906 221.15625 C 239.59375 220.328125 239.6875 219.5 239.78125 218.671875 C 239.78125 218.664062 239.78125 218.660156 239.78125 218.652344 C 239.875 217.832031 239.96875 217.015625 240.0625 216.203125 C 240.066406 216.191406 240.066406 216.179688 240.070312 216.164062 C 240.164062 215.355469 240.257812 214.554688 240.351562 213.757812 C 240.355469 213.742188 240.355469 213.730469 240.359375 213.71875 C 240.457031 212.917969 240.550781 212.125 240.644531 211.335938 C 240.648438 211.324219 240.648438 211.3125 240.652344 211.296875 C 240.746094 210.511719 240.84375 209.730469 240.941406 208.953125 C 240.945312 208.933594 240.945312 208.914062 240.949219 208.894531 C 241.046875 208.121094 241.140625 207.351562 241.242188 206.585938 C 241.246094 206.574219 241.246094 206.5625 241.246094 206.550781 C 241.347656 205.78125 241.441406 205.019531 241.542969 204.261719 C 241.546875 204.246094 241.546875 204.234375 241.546875 204.222656 C 241.648438 203.46875 241.746094 202.714844 241.847656 201.972656 C 241.847656 201.957031 241.847656 201.941406 241.851562 201.925781 C 241.953125 201.1875 242.050781 200.453125 242.148438 199.722656 C 242.152344 199.707031 242.15625 199.6875 242.160156 199.671875 C 242.257812 198.945312 242.355469 198.230469 242.453125 197.519531 C 242.457031 197.492188 242.460938 197.46875 242.464844 197.4375 C 242.5625 196.734375 242.660156 196.035156 242.757812 195.339844 C 242.761719 195.316406 242.761719 195.296875 242.765625 195.273438 C 242.867188 194.574219 242.960938 193.886719 243.0625 193.203125 C 243.0625 193.1875 243.066406 193.171875 243.066406 193.15625 C 243.167969 192.472656 243.261719 191.789062 243.363281 191.117188 C 243.363281 191.101562 243.367188 191.085938 243.371094 191.070312 C 243.46875 190.398438 243.566406 189.734375 243.664062 189.078125 C 243.664062 189.066406 243.664062 189.050781 243.667969 189.035156 C 243.765625 188.382812 243.863281 187.734375 243.957031 187.09375 C 243.960938 187.078125 243.964844 187.0625 243.964844 187.042969 C 244.0625 186.40625 244.15625 185.773438 244.253906 185.152344 C 244.257812 185.136719 244.257812 185.125 244.257812 185.113281 C 244.355469 184.488281 244.449219 183.871094 244.542969 183.265625 C 244.546875 183.253906 244.546875 183.242188 244.546875 183.230469 C 244.640625 182.621094 244.734375 182.023438 244.828125 181.433594 C 244.828125 181.421875 244.828125 181.410156 244.832031 181.398438 C 244.921875 180.8125 245.015625 180.234375 245.105469 179.664062 C 245.109375 179.644531 245.109375 179.625 245.113281 179.609375 C 245.203125 179.042969 245.292969 178.480469 245.378906 177.929688 C 245.378906 177.925781 245.382812 177.917969 245.382812 177.910156 C 245.472656 177.355469 245.5625 176.808594 245.648438 176.269531 C 245.648438 176.261719 245.648438 176.261719 245.648438 176.253906 C 245.738281 175.714844 245.824219 175.1875 245.90625 174.667969 C 245.910156 174.660156 245.910156 174.65625 245.914062 174.648438 L 245.621094 174.578125 C 238.671875 197.457031 236.824219 217.328125 236.492188 229.972656 Z M 250.679688 160.664062 C 250.808594 160.324219 250.773438 159.949219 250.589844 159.640625 C 250.527344 159.976562 250.441406 160.425781 250.339844 160.992188 L 250.308594 161.160156 L 250.433594 161.269531 C 250.441406 161.273438 250.441406 161.28125 250.449219 161.285156 C 250.527344 161.078125 250.605469 160.871094 250.679688 160.664062 Z M 249.816406 167.238281 L 249.527344 167.230469 C 249.523438 167.246094 249.519531 167.261719 249.519531 167.277344 C 249.519531 167.285156 249.515625 167.285156 249.515625 167.292969 C 249.476562 167.511719 249.4375 167.738281 249.398438 167.964844 C 249.394531 167.992188 249.390625 168.019531 249.382812 168.042969 C 249.257812 168.773438 249.125 169.546875 248.988281 170.355469 C 248.984375 170.371094 248.980469 170.386719 248.980469 170.398438 C 248.9375 170.652344 248.894531 170.90625 248.847656 171.164062 C 248.84375 171.199219 248.835938 171.230469 248.832031 171.265625 C 248.789062 171.515625 248.746094 171.769531 248.703125 172.027344 C 248.699219 172.050781 248.695312 172.074219 248.691406 172.101562 C 248.550781 172.953125 248.402344 173.835938 248.253906 174.753906 C 248.242188 174.8125 248.230469 174.867188 248.222656 174.925781 C 248.183594 175.175781 248.140625 175.425781 248.097656 175.683594 C 248.089844 175.742188 248.078125 175.796875 248.070312 175.859375 C 247.917969 176.792969 247.761719 177.761719 247.601562 178.761719 C 247.59375 178.816406 247.585938 178.875 247.574219 178.929688 C 247.527344 179.214844 247.484375 179.5 247.4375 179.789062 C 247.429688 179.84375 247.421875 179.902344 247.410156 179.960938 C 247.359375 180.277344 247.308594 180.59375 247.257812 180.917969 C 247.257812 180.9375 247.253906 180.957031 247.246094 180.980469 C 247.136719 181.691406 247.023438 182.410156 246.910156 183.144531 C 246.902344 183.191406 246.894531 183.234375 246.890625 183.28125 C 246.839844 183.585938 246.796875 183.890625 246.746094 184.199219 C 246.738281 184.28125 246.722656 184.363281 246.710938 184.445312 C 246.664062 184.753906 246.613281 185.070312 246.570312 185.386719 C 246.5625 185.4375 246.554688 185.484375 246.546875 185.535156 C 246.429688 186.292969 246.316406 187.0625 246.199219 187.839844 C 246.191406 187.878906 246.1875 187.917969 246.179688 187.960938 C 246.128906 188.300781 246.078125 188.644531 246.027344 188.992188 C 246.015625 189.066406 246.003906 189.140625 245.992188 189.210938 C 245.945312 189.535156 245.894531 189.863281 245.847656 190.1875 C 245.835938 190.261719 245.824219 190.335938 245.8125 190.410156 C 245.695312 191.214844 245.578125 192.027344 245.460938 192.855469 C 245.460938 192.855469 245.460938 192.859375 245.457031 192.863281 C 245.398438 193.261719 245.34375 193.660156 245.285156 194.0625 C 245.273438 194.136719 245.261719 194.207031 245.253906 194.28125 C 245.203125 194.621094 245.15625 194.96875 245.105469 195.316406 C 245.09375 195.398438 245.082031 195.480469 245.070312 195.5625 C 245.015625 195.9375 244.964844 196.316406 244.910156 196.695312 C 244.90625 196.734375 244.898438 196.765625 244.898438 196.804688 C 244.777344 197.660156 244.660156 198.527344 244.539062 199.402344 C 244.53125 199.46875 244.519531 199.539062 244.511719 199.609375 C 244.460938 199.976562 244.410156 200.34375 244.359375 200.714844 C 244.351562 200.796875 244.339844 200.875 244.328125 200.953125 C 244.277344 201.339844 244.226562 201.726562 244.171875 202.113281 C 244.164062 202.164062 244.160156 202.21875 244.152344 202.269531 C 244.03125 203.167969 243.910156 204.078125 243.789062 204.996094 C 243.785156 205.035156 243.777344 205.078125 243.773438 205.117188 C 243.71875 205.527344 243.664062 205.941406 243.613281 206.355469 C 243.601562 206.425781 243.59375 206.496094 243.582031 206.570312 C 243.53125 206.964844 243.480469 207.355469 243.433594 207.753906 C 243.425781 207.820312 243.414062 207.894531 243.40625 207.960938 C 243.230469 209.351562 243.054688 210.765625 242.882812 212.191406 C 242.875 212.257812 242.867188 212.324219 242.859375 212.390625 C 242.808594 212.804688 242.761719 213.222656 242.710938 213.636719 C 242.699219 213.703125 242.691406 213.769531 242.6875 213.832031 C 242.628906 214.296875 242.574219 214.761719 242.523438 215.230469 C 242.523438 215.238281 242.519531 215.242188 242.519531 215.25 C 242.402344 216.230469 242.289062 217.222656 242.175781 218.222656 C 242.167969 218.261719 242.167969 218.300781 242.160156 218.339844 C 242.109375 218.785156 242.058594 219.226562 242.011719 219.675781 C 242.003906 219.746094 241.992188 219.816406 241.988281 219.882812 C 241.9375 220.335938 241.886719 220.789062 241.835938 221.242188 C 241.835938 221.277344 241.828125 221.308594 241.828125 221.339844 C 241.714844 222.347656 241.605469 223.363281 241.496094 224.382812 C 241.496094 224.402344 241.492188 224.429688 241.488281 224.453125 C 241.441406 224.921875 241.390625 225.386719 241.339844 225.855469 C 241.332031 225.929688 241.328125 226.003906 241.320312 226.074219 C 241.273438 226.519531 241.226562 226.960938 241.183594 227.40625 C 241.175781 227.464844 241.171875 227.515625 241.164062 227.574219 C 241.011719 229.089844 240.863281 230.621094 240.714844 232.152344 C 240.710938 232.222656 240.703125 232.292969 240.695312 232.359375 C 240.65625 232.808594 240.613281 233.257812 240.570312 233.707031 C 240.566406 233.773438 240.5625 233.835938 240.554688 233.902344 C 240.414062 235.445312 240.273438 236.996094 240.144531 238.550781 C 240.136719 238.605469 240.136719 238.65625 240.128906 238.710938 C 240.089844 239.171875 240.050781 239.632812 240.011719 240.097656 C 240.007812 240.167969 240 240.234375 239.996094 240.300781 C 239.957031 240.785156 239.917969 241.265625 239.878906 241.75 C 239.875 241.78125 239.875 241.808594 239.875 241.835938 C 239.789062 242.890625 239.710938 243.945312 239.628906 245.003906 C 239.625 245.03125 239.625 245.058594 239.625 245.089844 C 239.585938 245.570312 239.554688 246.050781 239.519531 246.527344 C 239.511719 246.609375 239.507812 246.6875 239.503906 246.765625 C 239.472656 247.222656 239.4375 247.675781 239.40625 248.132812 C 239.402344 248.195312 239.398438 248.253906 239.394531 248.316406 C 239.320312 249.371094 239.253906 250.425781 239.1875 251.480469 C 239.1875 251.496094 239.183594 251.503906 239.183594 251.519531 L 239.472656 251.578125 C 241.238281 246.359375 243.820312 238.039062 246.0625 228.011719 C 249.457031 212.8125 252.867188 189.925781 249.816406 167.238281 Z M 284.167969 277.132812 C 284.027344 276.796875 283.921875 276.429688 283.820312 276.074219 C 283.785156 275.957031 283.753906 275.84375 283.71875 275.730469 L 283.25 274.171875 C 283.027344 273.429688 282.816406 272.683594 282.605469 271.9375 L 282.375 271.125 C 282.085938 270.105469 281.808594 269.078125 281.550781 268.066406 C 281.4375 267.632812 281.34375 267.1875 281.261719 266.804688 L 281.21875 266.597656 L 281.003906 266.570312 L 280.9375 266.566406 C 280.691406 266.515625 256.0625 261.570312 241.203125 260.371094 L 240.816406 260.339844 L 240.882812 260.722656 C 240.910156 260.878906 240.933594 261.042969 240.960938 261.199219 C 240.984375 261.335938 241.003906 261.46875 241.027344 261.601562 C 241.152344 262.332031 241.265625 263.058594 241.378906 263.792969 L 241.597656 265.242188 C 241.75 266.222656 241.902344 267.207031 242.046875 268.1875 C 242.199219 269.199219 242.339844 270.230469 242.472656 271.230469 C 242.539062 271.703125 242.601562 272.175781 242.667969 272.648438 L 242.972656 274.863281 C 243.003906 275.085938 243.042969 275.304688 243.082031 275.535156 C 243.117188 275.75 243.15625 275.96875 243.1875 276.1875 C 243.289062 276.191406 243.390625 276.195312 243.488281 276.203125 C 244.027344 276.226562 244.5625 276.246094 245.09375 276.269531 C 245.199219 276.269531 245.300781 276.277344 245.40625 276.277344 C 245.886719 276.300781 246.363281 276.316406 246.839844 276.335938 C 246.894531 276.339844 246.953125 276.339844 247.007812 276.339844 C 247.554688 276.363281 248.101562 276.382812 248.644531 276.402344 C 248.675781 276.402344 248.703125 276.40625 248.734375 276.40625 C 249.234375 276.425781 249.726562 276.445312 250.21875 276.460938 C 250.308594 276.464844 250.394531 276.464844 250.484375 276.46875 C 250.960938 276.484375 251.441406 276.503906 251.917969 276.519531 C 251.957031 276.519531 251.996094 276.523438 252.035156 276.523438 C 252.570312 276.542969 253.097656 276.558594 253.621094 276.578125 C 253.640625 276.578125 253.660156 276.578125 253.683594 276.578125 C 254.164062 276.597656 254.640625 276.609375 255.113281 276.628906 C 255.203125 276.628906 255.292969 276.632812 255.382812 276.636719 C 255.851562 276.652344 256.316406 276.664062 256.773438 276.683594 C 256.800781 276.683594 256.828125 276.683594 256.847656 276.683594 C 257.355469 276.703125 257.859375 276.714844 258.355469 276.730469 C 258.394531 276.730469 258.429688 276.734375 258.464844 276.734375 C 258.914062 276.746094 259.351562 276.757812 259.789062 276.773438 C 259.867188 276.773438 259.941406 276.777344 260.015625 276.777344 C 260.96875 276.804688 261.902344 276.832031 262.816406 276.855469 C 262.878906 276.859375 262.9375 276.859375 262.996094 276.859375 C 263.386719 276.871094 263.773438 276.878906 264.15625 276.890625 C 264.246094 276.894531 264.332031 276.898438 264.417969 276.898438 C 264.847656 276.910156 265.273438 276.921875 265.691406 276.929688 C 265.691406 276.929688 265.695312 276.929688 265.703125 276.929688 C 266.140625 276.941406 266.574219 276.949219 267.003906 276.960938 C 267.066406 276.960938 267.128906 276.960938 267.191406 276.964844 C 267.554688 276.972656 267.914062 276.980469 268.265625 276.992188 C 268.339844 276.992188 268.414062 276.992188 268.488281 276.996094 C 269.3125 277.015625 270.121094 277.035156 270.902344 277.050781 C 270.941406 277.050781 270.972656 277.054688 271.011719 277.054688 C 271.355469 277.0625 271.691406 277.066406 272.027344 277.074219 C 272.101562 277.074219 272.175781 277.074219 272.25 277.078125 C 272.984375 277.09375 273.695312 277.105469 274.378906 277.117188 C 274.453125 277.117188 274.527344 277.121094 274.597656 277.121094 C 274.886719 277.128906 275.175781 277.132812 275.457031 277.136719 C 275.507812 277.136719 275.5625 277.136719 275.613281 277.136719 C 276.273438 277.148438 276.910156 277.160156 277.515625 277.167969 C 277.59375 277.167969 277.667969 277.171875 277.746094 277.171875 C 277.988281 277.175781 278.222656 277.179688 278.457031 277.183594 C 278.507812 277.183594 278.5625 277.1875 278.613281 277.1875 C 279.191406 277.195312 279.742188 277.203125 280.265625 277.210938 C 280.320312 277.210938 280.375 277.210938 280.429688 277.210938 C 280.636719 277.214844 280.835938 277.21875 281.03125 277.21875 C 281.09375 277.21875 281.152344 277.222656 281.210938 277.222656 C 281.445312 277.226562 281.675781 277.230469 281.894531 277.230469 C 281.914062 277.230469 281.9375 277.230469 281.964844 277.230469 C 282.164062 277.234375 282.359375 277.238281 282.546875 277.238281 C 282.601562 277.238281 282.652344 277.238281 282.707031 277.242188 C 282.878906 277.242188 283.050781 277.242188 283.214844 277.246094 C 283.242188 277.246094 283.273438 277.246094 283.304688 277.246094 C 283.503906 277.25 283.699219 277.25 283.882812 277.25 C 283.996094 277.25 284.101562 277.253906 284.210938 277.253906 Z M 284.167969 277.132812 " fill-opacity="1" fill-rule="nonzero"/></g><path fill="#fab43d" d="M 236.171875 265.367188 C 236.21875 264 236.273438 262.632812 236.332031 261.257812 C 236.296875 261.363281 236.265625 261.464844 236.230469 261.570312 C 236.21875 261.601562 236.210938 261.628906 236.199219 261.65625 C 236.160156 261.769531 236.117188 261.878906 236.078125 261.988281 C 235.796875 262.675781 235.488281 263.355469 235.183594 264.03125 C 234.550781 265.441406 233.96875 266.871094 233.382812 268.300781 C 232.800781 269.71875 232.210938 271.136719 231.636719 272.558594 C 231.34375 273.292969 231.042969 274.027344 230.75 274.761719 C 230.636719 275.035156 230.53125 275.304688 230.417969 275.574219 C 231.011719 275.605469 231.605469 275.636719 232.199219 275.667969 C 232.246094 275.554688 232.289062 275.441406 232.332031 275.328125 C 232.621094 274.59375 232.910156 273.859375 233.199219 273.121094 C 233.773438 271.648438 234.339844 270.175781 234.910156 268.699219 C 235.09375 268.226562 235.277344 267.75 235.457031 267.277344 C 235.507812 267.152344 235.550781 267.03125 235.597656 266.90625 C 235.789062 266.398438 235.984375 265.882812 236.171875 265.367188 Z M 241.667969 275.539062 C 241.652344 275.347656 241.640625 275.15625 241.621094 274.96875 C 241.546875 274.230469 241.476562 273.492188 241.402344 272.75 C 241.257812 271.25 241.089844 269.75 240.964844 268.242188 C 240.835938 266.765625 240.714844 265.285156 240.59375 263.808594 C 240.53125 263.070312 240.476562 262.332031 240.425781 261.589844 C 240.414062 261.488281 240.410156 261.378906 240.402344 261.269531 C 240.382812 261.050781 240.371094 260.824219 240.359375 260.605469 C 240.628906 260.625 240.902344 260.644531 241.175781 260.667969 C 241.210938 260.863281 241.242188 261.054688 241.269531 261.25 C 241.289062 261.351562 241.300781 261.449219 241.320312 261.546875 C 241.441406 262.28125 241.558594 263.007812 241.671875 263.742188 C 241.898438 265.207031 242.128906 266.667969 242.347656 268.136719 C 242.566406 269.621094 242.761719 271.109375 242.96875 272.597656 C 243.070312 273.339844 243.171875 274.074219 243.273438 274.816406 C 243.304688 275.039062 243.34375 275.265625 243.382812 275.496094 C 243.425781 275.726562 243.464844 275.957031 243.496094 276.191406 C 242.90625 276.164062 242.308594 276.144531 241.714844 276.113281 C 241.691406 275.925781 241.683594 275.730469 241.667969 275.539062 Z M 283.894531 277.25 C 283.699219 276.785156 283.574219 276.292969 283.429688 275.8125 C 283.273438 275.296875 283.117188 274.777344 282.964844 274.257812 C 282.660156 273.242188 282.375 272.222656 282.085938 271.203125 C 281.796875 270.1875 281.519531 269.164062 281.257812 268.136719 C 281.199219 267.902344 281.144531 267.667969 281.089844 267.429688 C 281.046875 267.242188 281.007812 267.054688 280.96875 266.867188 C 281.015625 266.875 281.0625 266.882812 281.109375 266.882812 C 281.367188 266.882812 281.617188 266.792969 281.824219 266.636719 C 281.894531 266.792969 281.964844 266.953125 282.035156 267.113281 C 282.132812 267.335938 282.226562 267.558594 282.308594 267.785156 C 282.671875 268.785156 283.023438 269.785156 283.359375 270.796875 C 283.6875 271.777344 284.027344 272.757812 284.339844 273.746094 C 284.503906 274.261719 284.667969 274.78125 284.832031 275.296875 C 284.996094 275.804688 285.21875 276.332031 285.304688 276.855469 C 285.316406 276.921875 285.320312 276.988281 285.316406 277.054688 C 285.316406 277.0625 285.316406 277.066406 285.316406 277.074219 C 285.308594 277.140625 285.300781 277.207031 285.277344 277.265625 C 284.886719 277.257812 284.425781 277.253906 283.894531 277.25 Z M 279.859375 264.277344 C 273.917969 263.113281 252.011719 258.945312 239.261719 258.195312 C 240.757812 254.28125 244.753906 243.183594 248.039062 228.507812 C 251.304688 213.910156 254.421875 193.082031 252.40625 171.921875 C 260.265625 192.988281 278.273438 243.117188 279.859375 264.277344 Z M 281.109375 266.878906 C 281.367188 266.878906 281.617188 266.792969 281.824219 266.632812 C 281.839844 266.621094 281.851562 266.613281 281.867188 266.601562 C 282.140625 266.371094 282.289062 266.027344 282.277344 265.667969 C 281.253906 239.640625 252.1875 164.675781 250.953125 161.5 C 250.917969 161.414062 250.871094 161.335938 250.820312 161.261719 C 250.816406 161.253906 250.804688 161.242188 250.800781 161.234375 C 250.75 161.167969 250.691406 161.105469 250.628906 161.046875 C 250.371094 162.457031 249.988281 164.570312 249.519531 167.28125 C 250.367188 173.585938 250.714844 179.90625 250.703125 186.082031 C 250.703125 186.101562 250.703125 186.125 250.703125 186.144531 C 250.703125 186.800781 250.695312 187.453125 250.6875 188.105469 C 250.6875 188.148438 250.6875 188.195312 250.683594 188.242188 C 250.675781 188.875 250.660156 189.511719 250.644531 190.140625 C 250.640625 190.199219 250.640625 190.257812 250.640625 190.316406 C 250.621094 190.941406 250.597656 191.5625 250.578125 192.183594 C 250.574219 192.242188 250.570312 192.300781 250.566406 192.359375 C 250.542969 192.984375 250.515625 193.609375 250.484375 194.226562 C 250.480469 194.269531 250.476562 194.316406 250.472656 194.363281 C 250.441406 194.996094 250.40625 195.632812 250.367188 196.261719 C 250.367188 196.273438 250.363281 196.289062 250.363281 196.296875 C 250.078125 200.839844 249.625 205.238281 249.070312 209.433594 C 249.054688 209.546875 249.042969 209.660156 249.023438 209.773438 C 248.960938 210.234375 248.894531 210.691406 248.832031 211.152344 C 248.808594 211.328125 248.785156 211.5 248.761719 211.675781 C 248.699219 212.09375 248.636719 212.503906 248.574219 212.917969 C 248.542969 213.128906 248.511719 213.339844 248.480469 213.550781 C 248.417969 213.933594 248.359375 214.3125 248.300781 214.691406 C 248.261719 214.925781 248.226562 215.15625 248.191406 215.386719 C 248.132812 215.746094 248.074219 216.097656 248.015625 216.449219 C 247.972656 216.699219 247.929688 216.949219 247.886719 217.195312 C 247.828125 217.53125 247.773438 217.863281 247.710938 218.195312 C 247.667969 218.457031 247.621094 218.714844 247.574219 218.972656 C 247.515625 219.285156 247.460938 219.597656 247.402344 219.90625 C 247.351562 220.183594 247.300781 220.457031 247.25 220.730469 C 247.195312 221.015625 247.140625 221.300781 247.089844 221.585938 C 247.03125 221.878906 246.976562 222.164062 246.917969 222.453125 C 246.867188 222.714844 246.816406 222.976562 246.765625 223.234375 C 246.703125 223.542969 246.640625 223.847656 246.578125 224.152344 C 246.53125 224.382812 246.480469 224.621094 246.4375 224.847656 C 246.363281 225.195312 246.289062 225.53125 246.21875 225.871094 C 246.179688 226.054688 246.144531 226.242188 246.105469 226.421875 C 245.992188 226.941406 245.878906 227.453125 245.765625 227.957031 C 245.632812 228.558594 245.496094 229.152344 245.359375 229.742188 C 245.351562 229.78125 245.339844 229.824219 245.332031 229.867188 C 245.203125 230.417969 245.078125 230.960938 244.945312 231.5 C 244.929688 231.558594 244.921875 231.613281 244.90625 231.667969 C 244.777344 232.191406 244.652344 232.710938 244.527344 233.226562 C 244.511719 233.289062 244.496094 233.351562 244.480469 233.410156 C 244.351562 233.921875 244.226562 234.425781 244.097656 234.929688 C 244.082031 234.980469 244.070312 235.035156 244.058594 235.085938 C 243.925781 235.601562 243.789062 236.113281 243.65625 236.617188 C 243.648438 236.648438 243.640625 236.679688 243.632812 236.707031 C 243.351562 237.773438 243.070312 238.8125 242.789062 239.816406 C 242.78125 239.847656 242.773438 239.878906 242.761719 239.910156 C 242.625 240.382812 242.496094 240.847656 242.367188 241.304688 C 242.355469 241.351562 242.339844 241.394531 242.328125 241.4375 C 242.199219 241.882812 242.074219 242.328125 241.945312 242.761719 C 241.933594 242.804688 241.921875 242.84375 241.910156 242.886719 C 241.78125 243.324219 241.652344 243.757812 241.527344 244.179688 C 241.515625 244.210938 241.503906 244.242188 241.496094 244.273438 C 241.363281 244.710938 241.234375 245.144531 241.101562 245.566406 C 241.101562 245.578125 241.097656 245.589844 241.09375 245.597656 C 240.824219 246.476562 240.558594 247.320312 240.300781 248.121094 C 240.300781 248.125 240.300781 248.132812 240.300781 248.132812 C 240.171875 248.527344 240.050781 248.914062 239.925781 249.289062 C 239.917969 249.300781 239.917969 249.320312 239.910156 249.332031 C 239.792969 249.703125 239.671875 250.0625 239.554688 250.410156 C 239.554688 250.421875 239.546875 250.433594 239.542969 250.449219 C 239.425781 250.804688 239.308594 251.152344 239.195312 251.488281 C 239.003906 254.5 238.839844 257.507812 238.707031 260.503906 C 239.242188 260.535156 239.792969 260.566406 240.363281 260.609375 C 240.632812 260.628906 240.90625 260.648438 241.183594 260.671875 C 241.183594 260.671875 241.183594 260.671875 241.1875 260.671875 C 242.324219 260.761719 243.519531 260.878906 244.757812 261.011719 C 244.78125 261.011719 244.800781 261.015625 244.824219 261.015625 C 245.042969 261.039062 245.261719 261.0625 245.480469 261.085938 C 245.523438 261.09375 245.566406 261.09375 245.609375 261.101562 C 245.824219 261.125 246.039062 261.148438 246.253906 261.175781 C 246.300781 261.179688 246.347656 261.1875 246.394531 261.191406 C 246.609375 261.21875 246.824219 261.242188 247.039062 261.269531 C 247.089844 261.273438 247.140625 261.28125 247.1875 261.285156 C 247.402344 261.3125 247.621094 261.335938 247.839844 261.363281 C 247.890625 261.371094 247.9375 261.375 247.988281 261.382812 C 248.210938 261.410156 248.433594 261.433594 248.65625 261.464844 C 248.699219 261.46875 248.742188 261.476562 248.78125 261.476562 C 249.015625 261.507812 249.25 261.539062 249.488281 261.570312 C 249.507812 261.570312 249.523438 261.574219 249.542969 261.578125 C 251.660156 261.851562 253.835938 262.160156 256.007812 262.488281 C 256.035156 262.492188 256.058594 262.5 256.082031 262.5 C 256.328125 262.539062 256.574219 262.574219 256.816406 262.613281 C 256.855469 262.617188 256.890625 262.625 256.929688 262.628906 C 257.171875 262.664062 257.417969 262.703125 257.660156 262.742188 C 257.691406 262.75 257.722656 262.75 257.75 262.757812 C 258 262.796875 258.25 262.832031 258.496094 262.871094 C 258.523438 262.878906 258.550781 262.882812 258.578125 262.886719 C 258.828125 262.925781 259.085938 262.964844 259.339844 263.007812 C 259.347656 263.007812 259.355469 263.007812 259.363281 263.007812 C 261.539062 263.355469 263.671875 263.710938 265.703125 264.058594 C 265.707031 264.058594 265.710938 264.058594 265.710938 264.058594 C 265.949219 264.101562 266.1875 264.140625 266.429688 264.183594 C 266.449219 264.1875 266.476562 264.191406 266.5 264.195312 C 266.726562 264.234375 266.949219 264.273438 267.171875 264.3125 C 267.203125 264.316406 267.234375 264.320312 267.265625 264.328125 C 267.484375 264.363281 267.703125 264.402344 267.917969 264.441406 C 267.949219 264.445312 267.976562 264.453125 268.007812 264.457031 C 268.230469 264.496094 268.453125 264.535156 268.671875 264.574219 C 268.679688 264.578125 268.695312 264.578125 268.707031 264.578125 C 270.359375 264.871094 271.910156 265.152344 273.308594 265.410156 C 273.328125 265.414062 273.34375 265.417969 273.363281 265.417969 C 273.546875 265.453125 273.734375 265.488281 273.914062 265.519531 C 273.933594 265.523438 273.945312 265.527344 273.964844 265.53125 C 274.140625 265.5625 274.308594 265.59375 274.480469 265.625 C 274.507812 265.632812 274.535156 265.636719 274.566406 265.644531 C 274.71875 265.671875 274.867188 265.699219 275.019531 265.726562 C 275.0625 265.738281 275.113281 265.746094 275.15625 265.753906 C 275.292969 265.78125 275.429688 265.804688 275.5625 265.832031 C 275.613281 265.839844 275.664062 265.851562 275.710938 265.859375 C 275.84375 265.882812 275.972656 265.90625 276.101562 265.933594 C 276.148438 265.941406 276.195312 265.949219 276.242188 265.957031 C 276.363281 265.980469 276.484375 266.003906 276.605469 266.027344 C 276.652344 266.035156 276.695312 266.042969 276.742188 266.050781 C 276.863281 266.074219 276.984375 266.097656 277.101562 266.121094 C 277.125 266.125 277.148438 266.128906 277.171875 266.132812 C 278.03125 266.296875 278.761719 266.441406 279.34375 266.554688 C 279.378906 266.558594 279.414062 266.566406 279.449219 266.574219 C 279.507812 266.585938 279.5625 266.597656 279.617188 266.605469 C 279.667969 266.617188 279.714844 266.628906 279.765625 266.636719 C 279.804688 266.644531 279.839844 266.648438 279.878906 266.660156 C 279.925781 266.667969 279.96875 266.675781 280.011719 266.683594 C 280.066406 266.695312 280.117188 266.703125 280.167969 266.714844 C 280.1875 266.71875 280.203125 266.722656 280.222656 266.726562 C 280.269531 266.734375 280.316406 266.742188 280.359375 266.75 C 280.398438 266.761719 280.433594 266.765625 280.46875 266.773438 C 280.484375 266.777344 280.503906 266.78125 280.519531 266.78125 C 280.570312 266.792969 280.617188 266.804688 280.65625 266.808594 C 280.660156 266.808594 280.660156 266.808594 280.660156 266.808594 C 280.699219 266.816406 280.730469 266.824219 280.757812 266.828125 C 280.765625 266.832031 280.773438 266.832031 280.78125 266.835938 C 280.839844 266.84375 280.878906 266.855469 280.886719 266.855469 C 280.917969 266.859375 280.945312 266.859375 280.976562 266.863281 C 281.015625 266.871094 281.0625 266.878906 281.109375 266.878906 Z M 252.40625 171.921875 C 260.265625 192.988281 278.273438 243.117188 279.859375 264.277344 C 273.917969 263.113281 252.011719 258.945312 239.261719 258.195312 C 240.757812 254.28125 244.753906 243.183594 248.039062 228.507812 C 251.304688 213.910156 254.421875 193.082031 252.40625 171.921875 Z M 252.40625 171.921875 " fill-opacity="1" fill-rule="nonzero"/><path fill="#26285d" d="M 234.453125 230 C 234.863281 214.109375 237.523438 189.523438 247.765625 161.785156 C 242.195312 162.953125 225.867188 167.015625 209.367188 177.226562 C 190.953125 188.625 168.566406 210.253906 165.929688 248.695312 L 235.902344 257.261719 C 235.328125 253.640625 234.09375 243.996094 234.453125 230 Z M 249.410156 159.097656 C 249.386719 159.101562 249.105469 159.148438 248.59375 159.246094 C 248.355469 159.289062 248.066406 159.347656 247.738281 159.414062 C 247.714844 159.421875 247.691406 159.421875 247.671875 159.429688 C 247.609375 159.441406 247.550781 159.453125 247.488281 159.464844 C 247.449219 159.472656 247.410156 159.484375 247.367188 159.492188 C 247.3125 159.503906 247.253906 159.515625 247.195312 159.527344 C 247.144531 159.539062 247.09375 159.550781 247.039062 159.5625 C 246.984375 159.574219 246.925781 159.585938 246.871094 159.597656 C 246.8125 159.609375 246.753906 159.625 246.695312 159.636719 C 246.640625 159.648438 246.582031 159.660156 246.527344 159.671875 C 246.457031 159.6875 246.386719 159.703125 246.3125 159.722656 C 246.261719 159.730469 246.210938 159.742188 246.15625 159.753906 C 246.074219 159.773438 245.980469 159.792969 245.894531 159.816406 C 245.851562 159.824219 245.8125 159.835938 245.765625 159.84375 C 245.636719 159.871094 245.507812 159.902344 245.378906 159.933594 C 245.359375 159.9375 245.34375 159.941406 245.324219 159.945312 C 245.191406 159.976562 245.054688 160.007812 244.917969 160.042969 C 244.878906 160.050781 244.835938 160.0625 244.796875 160.070312 C 244.683594 160.09375 244.574219 160.125 244.457031 160.152344 C 244.410156 160.164062 244.359375 160.175781 244.308594 160.1875 C 244.203125 160.214844 244.09375 160.242188 243.984375 160.269531 C 243.925781 160.28125 243.871094 160.296875 243.816406 160.3125 C 243.707031 160.339844 243.597656 160.363281 243.484375 160.394531 C 243.425781 160.40625 243.371094 160.421875 243.3125 160.4375 C 243.199219 160.464844 243.078125 160.496094 242.957031 160.527344 C 242.90625 160.539062 242.847656 160.554688 242.792969 160.570312 C 242.667969 160.601562 242.535156 160.636719 242.402344 160.671875 C 242.355469 160.683594 242.308594 160.695312 242.261719 160.707031 C 242.097656 160.75 241.933594 160.796875 241.765625 160.839844 C 241.746094 160.84375 241.730469 160.847656 241.710938 160.851562 C 241.328125 160.953125 240.933594 161.0625 240.53125 161.175781 C 240.488281 161.1875 240.449219 161.199219 240.410156 161.210938 C 240.25 161.253906 240.089844 161.300781 239.925781 161.347656 C 239.871094 161.359375 239.816406 161.375 239.761719 161.390625 C 239.609375 161.433594 239.457031 161.480469 239.304688 161.523438 C 239.242188 161.542969 239.179688 161.558594 239.121094 161.578125 C 238.972656 161.625 238.816406 161.667969 238.664062 161.714844 C 238.597656 161.734375 238.535156 161.753906 238.472656 161.769531 C 238.316406 161.816406 238.160156 161.863281 238 161.914062 C 237.9375 161.933594 237.875 161.949219 237.808594 161.96875 C 237.640625 162.019531 237.46875 162.074219 237.296875 162.128906 C 237.246094 162.144531 237.195312 162.160156 237.144531 162.175781 C 236.925781 162.246094 236.707031 162.3125 236.484375 162.382812 C 236.480469 162.386719 236.472656 162.390625 236.464844 162.390625 C 235.992188 162.535156 235.515625 162.691406 235.027344 162.851562 C 234.976562 162.867188 234.929688 162.882812 234.882812 162.898438 C 234.691406 162.960938 234.5 163.027344 234.304688 163.09375 C 234.238281 163.113281 234.167969 163.136719 234.097656 163.164062 C 233.921875 163.222656 233.746094 163.28125 233.570312 163.34375 C 233.492188 163.367188 233.417969 163.394531 233.335938 163.421875 C 233.164062 163.480469 232.988281 163.539062 232.8125 163.601562 C 232.734375 163.632812 232.65625 163.65625 232.578125 163.683594 C 232.398438 163.746094 232.21875 163.8125 232.035156 163.878906 C 231.960938 163.902344 231.886719 163.933594 231.8125 163.957031 C 231.613281 164.027344 231.417969 164.097656 231.21875 164.171875 C 231.15625 164.195312 231.097656 164.214844 231.039062 164.238281 C 230.789062 164.328125 230.539062 164.417969 230.285156 164.511719 C 230.273438 164.515625 230.265625 164.519531 230.253906 164.523438 C 229.984375 164.625 229.707031 164.726562 229.429688 164.832031 C 229.417969 164.835938 229.40625 164.84375 229.394531 164.84375 C 229.144531 164.941406 228.886719 165.039062 228.628906 165.136719 C 228.5625 165.164062 228.488281 165.191406 228.421875 165.214844 C 228.21875 165.292969 228.019531 165.371094 227.816406 165.453125 C 227.730469 165.484375 227.644531 165.519531 227.554688 165.554688 C 227.371094 165.628906 227.183594 165.699219 226.996094 165.777344 C 226.902344 165.816406 226.804688 165.855469 226.703125 165.894531 C 226.523438 165.96875 226.339844 166.042969 226.160156 166.113281 C 226.058594 166.15625 225.964844 166.195312 225.863281 166.238281 C 225.675781 166.3125 225.488281 166.394531 225.300781 166.472656 C 225.207031 166.511719 225.117188 166.550781 225.023438 166.589844 C 224.816406 166.675781 224.605469 166.765625 224.398438 166.851562 C 224.324219 166.882812 224.246094 166.914062 224.171875 166.949219 C 223.902344 167.066406 223.632812 167.179688 223.359375 167.300781 C 223.34375 167.304688 223.332031 167.3125 223.316406 167.320312 C 223.023438 167.449219 222.726562 167.578125 222.433594 167.707031 C 222.382812 167.730469 222.332031 167.753906 222.277344 167.78125 C 222.042969 167.882812 221.804688 167.992188 221.566406 168.101562 C 221.472656 168.140625 221.382812 168.183594 221.289062 168.226562 C 221.089844 168.316406 220.894531 168.410156 220.695312 168.503906 C 220.589844 168.554688 220.484375 168.601562 220.375 168.652344 C 220.1875 168.742188 220.003906 168.828125 219.816406 168.917969 C 219.703125 168.96875 219.59375 169.023438 219.480469 169.078125 C 219.292969 169.164062 219.109375 169.257812 218.921875 169.34375 C 218.808594 169.398438 218.695312 169.457031 218.582031 169.507812 C 218.394531 169.601562 218.207031 169.695312 218.019531 169.785156 C 217.910156 169.839844 217.796875 169.898438 217.6875 169.953125 C 217.484375 170.054688 217.277344 170.15625 217.070312 170.261719 C 216.976562 170.308594 216.882812 170.355469 216.789062 170.402344 C 216.511719 170.542969 216.226562 170.6875 215.945312 170.835938 C 215.929688 170.84375 215.910156 170.851562 215.894531 170.863281 C 215.589844 171.015625 215.289062 171.175781 214.984375 171.339844 C 214.902344 171.382812 214.816406 171.429688 214.730469 171.472656 C 214.515625 171.589844 214.300781 171.703125 214.082031 171.824219 C 213.96875 171.882812 213.855469 171.945312 213.746094 172.003906 C 213.554688 172.109375 213.363281 172.210938 213.171875 172.320312 C 213.050781 172.386719 212.929688 172.453125 212.804688 172.519531 C 212.625 172.621094 212.441406 172.722656 212.253906 172.828125 C 212.128906 172.898438 212.003906 172.96875 211.882812 173.039062 C 211.699219 173.144531 211.515625 173.246094 211.332031 173.351562 C 211.207031 173.421875 211.082031 173.492188 210.960938 173.566406 C 210.773438 173.675781 210.585938 173.785156 210.398438 173.894531 C 210.28125 173.964844 210.164062 174.035156 210.042969 174.101562 C 209.839844 174.222656 209.636719 174.347656 209.429688 174.46875 C 209.328125 174.53125 209.226562 174.589844 209.128906 174.648438 C 208.824219 174.835938 208.519531 175.019531 208.214844 175.207031 C 196.074219 182.710938 186.210938 191.960938 178.890625 202.703125 C 169.734375 216.136719 164.570312 231.933594 163.53125 249.660156 C 163.496094 250.273438 163.945312 250.8125 164.558594 250.882812 L 236.40625 259.679688 L 237.179688 259.773438 C 237.230469 259.78125 237.273438 259.78125 237.324219 259.78125 C 237.644531 259.78125 237.957031 259.648438 238.175781 259.410156 C 238.433594 259.136719 238.539062 258.757812 238.464844 258.390625 C 238.453125 258.324219 237.65625 254.214844 237.144531 247.042969 C 237.125 246.765625 237.105469 246.480469 237.089844 246.191406 C 237.089844 246.175781 237.085938 246.160156 237.085938 246.144531 C 237.03125 245.332031 236.984375 244.484375 236.941406 243.601562 C 236.9375 243.515625 236.933594 243.429688 236.929688 243.34375 C 236.917969 243.105469 236.90625 242.867188 236.894531 242.625 C 236.886719 242.484375 236.882812 242.339844 236.875 242.199219 C 236.867188 241.972656 236.855469 241.75 236.847656 241.519531 C 236.84375 241.335938 236.835938 241.152344 236.828125 240.96875 C 236.816406 240.652344 236.808594 240.335938 236.796875 240.011719 C 236.789062 239.757812 236.78125 239.503906 236.777344 239.246094 C 236.773438 239.0625 236.769531 238.878906 236.765625 238.695312 C 236.761719 238.449219 236.753906 238.203125 236.75 237.953125 C 236.75 237.773438 236.746094 237.59375 236.742188 237.414062 C 236.742188 237.125 236.734375 236.828125 236.734375 236.535156 C 236.734375 236.390625 236.730469 236.25 236.730469 236.105469 C 236.730469 235.671875 236.726562 235.234375 236.730469 234.785156 C 236.730469 234.667969 236.730469 234.550781 236.730469 234.4375 C 236.730469 234.089844 236.730469 233.738281 236.734375 233.386719 C 236.734375 233.226562 236.738281 233.066406 236.742188 232.90625 C 236.742188 232.574219 236.75 232.238281 236.753906 231.902344 C 236.757812 231.75 236.761719 231.601562 236.761719 231.453125 C 236.773438 230.972656 236.78125 230.484375 236.792969 229.988281 C 236.804688 229.527344 236.820312 229.054688 236.835938 228.578125 C 236.84375 228.421875 236.847656 228.261719 236.855469 228.105469 C 236.867188 227.777344 236.878906 227.453125 236.890625 227.121094 C 236.898438 226.925781 236.90625 226.730469 236.917969 226.535156 C 236.929688 226.230469 236.945312 225.925781 236.960938 225.617188 C 236.96875 225.402344 236.980469 225.1875 236.992188 224.972656 C 237.007812 224.671875 237.023438 224.363281 237.042969 224.058594 C 237.050781 223.835938 237.066406 223.617188 237.082031 223.390625 C 237.101562 223.042969 237.125 222.6875 237.148438 222.335938 C 237.175781 221.941406 237.203125 221.539062 237.230469 221.132812 C 237.25 220.851562 237.269531 220.566406 237.292969 220.28125 C 237.316406 219.976562 237.34375 219.664062 237.367188 219.359375 C 237.386719 219.121094 237.40625 218.886719 237.425781 218.648438 C 237.457031 218.316406 237.484375 217.980469 237.515625 217.648438 C 237.535156 217.429688 237.554688 217.214844 237.574219 216.996094 C 237.609375 216.636719 237.644531 216.273438 237.675781 215.910156 C 237.695312 215.734375 237.710938 215.5625 237.726562 215.386719 C 237.925781 213.449219 238.152344 211.441406 238.421875 209.375 C 238.433594 209.28125 238.445312 209.191406 238.460938 209.097656 C 238.527344 208.601562 238.59375 208.101562 238.664062 207.59375 C 238.675781 207.507812 238.691406 207.417969 238.703125 207.332031 C 240.066406 197.574219 242.3125 186.527344 245.90625 174.679688 C 247.292969 170.117188 248.875 165.441406 250.6875 160.667969 C 250.835938 160.28125 250.765625 159.839844 250.503906 159.515625 C 250.234375 159.191406 249.820312 159.03125 249.410156 159.097656 Z M 247.765625 161.789062 C 237.523438 189.523438 234.863281 214.113281 234.453125 230.003906 C 234.09375 243.996094 235.328125 253.644531 235.902344 257.265625 L 165.929688 248.699219 C 168.566406 210.257812 190.953125 188.628906 209.367188 177.230469 C 225.871094 167.015625 242.199219 162.957031 247.765625 161.789062 Z M 247.765625 161.789062 " fill-opacity="1" fill-rule="nonzero"/><path fill="#26285d" d="M 238.289062 280.105469 C 237.511719 280.078125 236.730469 280.050781 235.953125 280.023438 C 234.289062 279.960938 232.625 279.898438 230.960938 279.835938 C 222.441406 279.492188 213.929688 279.03125 205.433594 278.324219 C 196.824219 277.605469 188.230469 276.644531 179.691406 275.316406 C 171.316406 274.015625 162.972656 272.378906 154.75 270.316406 C 153.886719 270.101562 153.496094 271.367188 154.375 271.605469 C 155.394531 271.882812 156.417969 272.15625 157.445312 272.421875 C 165.722656 274.546875 174.128906 276.101562 182.582031 277.328125 C 191.121094 278.566406 199.714844 279.457031 208.320312 280.113281 C 216.835938 280.757812 225.367188 281.171875 233.90625 281.429688 C 234.632812 281.453125 235.363281 281.472656 236.09375 281.492188 C 236.773438 281.511719 237.457031 281.535156 238.140625 281.550781 C 244.941406 281.738281 251.75 281.875 258.558594 281.90625 C 262.683594 281.921875 266.8125 281.824219 270.9375 281.730469 C 274.859375 281.640625 278.804688 281.605469 282.714844 281.273438 C 283.121094 281.242188 283.132812 280.664062 282.714844 280.664062 C 281.769531 280.667969 280.820312 280.6875 279.871094 280.714844 C 271.75 280.941406 263.632812 280.753906 255.507812 280.582031 C 249.765625 280.457031 244.027344 280.300781 238.289062 280.105469 Z M 238.289062 280.105469 " fill-opacity="1" fill-rule="nonzero"/></svg>