<svg xmlns="http://www.w3.org/2000/svg" xmlns:xlink="http://www.w3.org/1999/xlink" width="500" zoomAndPan="magnify" viewBox="0 0 375 374.999991" height="500" preserveAspectRatio="xMidYMid meet" version="1.0"><defs><clipPath id="904807ea42"><path d="M 185 21.078125 L 294 21.078125 L 294 197 L 185 197 Z M 185 21.078125 " clip-rule="nonzero"/></clipPath><clipPath id="8a92805d3d"><path d="M 69 21.078125 L 186 21.078125 L 186 231 L 69 231 Z M 69 21.078125 " clip-rule="nonzero"/></clipPath><clipPath id="f22e5b11e9"><path d="M 71.472656 255 L 301.84375 255 L 301.84375 353.957031 L 71.472656 353.957031 Z M 71.472656 255 " clip-rule="nonzero"/></clipPath><clipPath id="75e643abbd"><path d="M 21.382812 180 L 353.632812 180 L 353.632812 276 L 21.382812 276 Z M 21.382812 180 " clip-rule="nonzero"/></clipPath></defs><path fill="#2aa8e2" d="M 341.15625 271.246094 C 340.65625 270.464844 340.027344 269.238281 338.980469 267.816406 C 336.96875 264.828125 333.75 260.835938 329.054688 256.691406 C 324.382812 252.527344 318.113281 248.523438 310.6875 245.53125 C 303.261719 242.597656 294.6875 240.765625 285.734375 240.59375 C 276.769531 240.398438 268.332031 241.757812 260.894531 243.8125 C 253.445312 245.855469 246.988281 248.574219 241.738281 251.242188 C 236.488281 253.910156 232.414062 256.46875 229.679688 258.367188 C 226.929688 260.265625 225.480469 261.4375 225.480469 261.4375 C 225.480469 261.4375 227.242188 261.113281 230.351562 260.542969 C 233.464844 259.941406 237.960938 259.167969 243.4375 258.332031 C 254.410156 256.675781 269.386719 255.015625 285.496094 255.324219 C 293.558594 255.484375 301.148438 256.230469 308.003906 257.558594 C 314.835938 258.953125 320.949219 260.847656 325.960938 263.117188 C 330.972656 265.34375 335 267.714844 337.65625 269.519531 C 339.039062 270.375 340.058594 271.234375 340.789062 271.707031 C 341.5 272.203125 341.882812 272.476562 341.882812 272.476562 C 341.882812 272.476562 341.632812 272.046875 341.15625 271.246094 " fill-opacity="1" fill-rule="nonzero"/><g clip-path="url(#904807ea42)"><path fill="#2aa8e2" d="M 293.863281 196.183594 C 292.511719 195.800781 291.160156 195.464844 289.820312 195.175781 C 287.207031 194.53125 284.667969 194.144531 282.214844 193.757812 L 280.652344 193.5 L 280.453125 193.480469 L 280.253906 193.441406 L 278.707031 193.273438 C 276.585938 193.058594 274.394531 192.820312 272.113281 192.707031 L 271.835938 192.691406 C 271.523438 192.671875 271.210938 192.652344 270.898438 192.652344 C 270.179688 192.617188 269.464844 192.578125 268.730469 192.542969 C 267.105469 188.679688 265.359375 184.886719 263.515625 181.148438 C 254.257812 162.460938 243.914062 145.253906 234.859375 129.300781 C 225.726562 113.363281 217.707031 98.679688 211.203125 85.507812 C 204.691406 72.347656 199.660156 60.738281 195.910156 51.113281 C 193.996094 46.332031 192.523438 41.988281 191.183594 38.269531 C 189.929688 34.496094 188.859375 31.332031 188.066406 28.738281 C 186.722656 24.179688 185.949219 21.527344 185.78125 20.957031 C 186.058594 21.527344 187.242188 24.03125 189.246094 28.277344 C 190.402344 30.707031 191.933594 33.671875 193.675781 37.203125 C 195.523438 40.683594 197.5625 44.726562 200.089844 49.164062 C 205.019531 58.089844 211.40625 68.796875 219.300781 80.902344 C 227.183594 93.011719 236.644531 106.480469 247.28125 121.367188 C 257.851562 136.292969 269.789062 152.5 281.222656 171.5625 C 285.734375 179.144531 290.097656 187.277344 293.863281 196.183594 " fill-opacity="1" fill-rule="nonzero"/></g><g clip-path="url(#8a92805d3d)"><path fill="#2aa8e2" d="M 185.671875 20.957031 C 185.519531 21.527344 184.75 24.179688 183.414062 28.722656 C 182.621094 31.316406 181.535156 34.480469 180.300781 38.269531 C 178.953125 41.988281 177.484375 46.332031 175.554688 51.113281 C 171.816406 60.738281 166.773438 72.347656 160.269531 85.527344 C 153.769531 98.679688 145.730469 113.363281 136.601562 129.300781 C 127.566406 145.253906 117.199219 162.460938 107.960938 181.148438 C 103.359375 190.5 99.242188 200.269531 96.289062 210.292969 C 94.925781 215.308594 93.882812 220.363281 93.304688 225.40625 C 93.214844 226.640625 93.125 227.910156 93.035156 229.160156 C 92.996094 229.765625 92.976562 230.375 92.976562 230.976562 L 69.492188 223.929688 C 69.585938 223.328125 69.675781 222.703125 69.746094 222.09375 C 70.910156 215.46875 72.695312 209.214844 74.777344 203.289062 C 79.121094 191.546875 84.546875 181.117188 90.253906 171.5625 C 101.6875 152.5 113.632812 136.292969 124.195312 121.367188 C 134.832031 106.480469 144.296875 93.011719 152.175781 80.902344 C 160.070312 68.796875 166.4375 58.089844 171.390625 49.164062 C 173.910156 44.726562 175.941406 40.683594 177.800781 37.203125 C 179.542969 33.6875 181.070312 30.722656 182.234375 28.277344 C 184.242188 24.03125 185.414062 21.527344 185.671875 20.957031 " fill-opacity="1" fill-rule="nonzero"/></g><g clip-path="url(#f22e5b11e9)"><path fill="#1677bc" d="M 301.253906 256.488281 C 299.761719 265.425781 297.238281 274.351562 293.539062 282.980469 C 287.941406 296.117188 279.714844 308.542969 269.222656 319.15625 C 258.734375 329.777344 245.957031 338.609375 231.671875 344.664062 C 228.027344 346 224.40625 347.4375 220.703125 348.675781 C 216.917969 349.664062 213.167969 350.714844 209.285156 351.617188 C 205.1875 352.277344 200.953125 352.941406 196.917969 353.4375 C 193.445312 353.625 189.960938 353.785156 186.480469 353.972656 C 185.988281 353.992188 185.769531 353.992188 185.65625 353.992188 C 185.65625 353.992188 185.625 353.992188 185.542969 353.992188 L 185.359375 353.972656 L 184.996094 353.953125 L 184.242188 353.929688 L 182.769531 353.867188 L 179.785156 353.714844 L 173.859375 353.390625 C 169.933594 352.867188 166.03125 352.226562 162.152344 351.597656 C 158.324219 350.730469 154.546875 349.664062 150.753906 348.675781 C 147.054688 347.4375 143.429688 346 139.804688 344.664062 C 125.519531 338.609375 112.75 329.777344 102.253906 319.15625 C 91.746094 308.542969 83.535156 296.117188 77.941406 282.980469 L 76.832031 280.53125 C 76.5 279.707031 76.226562 278.863281 75.9375 278.03125 C 75.476562 276.6875 75.015625 275.363281 74.570312 274.058594 C 74.4375 273.707031 74.3125 273.359375 74.203125 273.007812 C 73.722656 271.757812 73.339844 270.488281 72.992188 269.21875 C 72.546875 267.617188 72.179688 266.015625 71.792969 264.398438 C 72.195312 264.640625 72.621094 264.875 73.042969 265.097656 C 78.457031 268.042969 84.308594 270.285156 90.421875 272.054688 C 94.746094 273.234375 99.179688 274.09375 103.675781 274.664062 C 104.351562 275.988281 105.085938 277.3125 105.863281 278.601562 C 106.613281 279.949219 107.425781 281.253906 108.269531 282.558594 C 112.179688 288.5 116.777344 294.0625 122.042969 299.070312 C 130.308594 306.925781 140.152344 313.382812 151.019531 317.777344 C 153.769531 318.71875 156.519531 319.765625 159.316406 320.6875 C 162.183594 321.347656 165.039062 322.140625 167.910156 322.804688 C 170.851562 323.222656 173.800781 323.667969 176.75 324.085938 L 181.238281 324.292969 L 183.484375 324.402344 L 184.605469 324.472656 L 185.175781 324.496094 L 185.453125 324.511719 L 185.5625 324.527344 C 188.859375 324.367188 192.148438 324.203125 195.429688 324.035156 C 198.265625 323.613281 200.863281 323.148438 203.582031 322.804688 C 206.398438 322.15625 209.304688 321.347656 212.164062 320.6875 C 214.957031 319.765625 217.683594 318.699219 220.464844 317.777344 C 231.324219 313.382812 241.171875 306.925781 249.4375 299.070312 C 257.71875 291.1875 264.398438 281.921875 269.167969 271.964844 C 271.746094 266.609375 273.75 261.027344 275.242188 255.398438 C 278.597656 255.285156 282.015625 255.253906 285.496094 255.324219 C 290.996094 255.4375 296.261719 255.84375 301.253906 256.488281 " fill-opacity="1" fill-rule="nonzero"/></g><path fill="#1677bc" d="M 103.675781 274.664062 C 99.179688 274.09375 94.746094 273.234375 90.421875 272.054688 C 84.308594 270.285156 78.457031 268.042969 73.042969 265.097656 C 72.621094 264.875 72.195312 264.640625 71.792969 264.398438 C 71.683594 263.878906 71.570312 263.367188 71.445312 262.851562 C 71.058594 261.15625 70.652344 259.488281 70.304688 257.773438 C 70.066406 255.972656 69.828125 254.164062 69.585938 252.363281 C 69.378906 250.578125 69.160156 248.773438 68.941406 246.996094 L 68.792969 245.667969 L 68.753906 244.527344 L 68.71875 242.257812 C 68.683594 240.753906 68.648438 239.242188 68.609375 237.738281 L 68.574219 235.488281 L 68.550781 234.292969 L 68.585938 233.652344 L 68.664062 232.34375 C 68.683594 232.179688 68.683594 231.996094 68.699219 231.828125 C 72.695312 233.835938 76.960938 235.449219 81.457031 236.574219 C 85.246094 237.53125 89.222656 238.085938 93.328125 238.378906 C 93.402344 239.242188 93.476562 240.109375 93.546875 240.996094 L 93.734375 243.273438 L 93.800781 244.390625 L 94.007812 245.335938 C 94.25 246.546875 94.488281 247.78125 94.746094 249.015625 L 95.414062 252.714844 C 95.738281 253.996094 96.164062 255.304688 96.53125 256.613281 C 97.300781 259.226562 97.929688 261.875 99.074219 264.375 C 99.570312 265.648438 100.085938 266.9375 100.578125 268.207031 C 100.835938 268.847656 101.058594 269.496094 101.355469 270.121094 L 102.316406 271.964844 C 102.753906 272.859375 103.195312 273.761719 103.675781 274.664062 " fill-opacity="1" fill-rule="nonzero"/><g clip-path="url(#75e643abbd)"><path fill="#2aa8e2" d="M 353.507812 271.539062 C 353.507812 271.539062 352.570312 270.339844 350.820312 268.074219 C 349.128906 265.796875 346.4375 262.578125 342.976562 258.671875 C 339.445312 254.867188 335.011719 250.433594 329.597656 246.238281 C 324.109375 242.128906 317.691406 238.234375 310.289062 235.804688 C 307.917969 235.011719 305.464844 234.351562 302.925781 233.816406 C 298.464844 232.875 293.757812 232.34375 288.804688 232.34375 C 287.792969 232.34375 286.761719 232.382812 285.734375 232.417969 C 283.519531 232.417969 281.210938 232.714844 278.886719 232.875 C 278.761719 232.894531 278.628906 232.914062 278.480469 232.933594 C 276.273438 233.226562 274.058594 233.449219 271.761719 233.90625 C 266.941406 234.699219 261.910156 235.894531 256.761719 237.292969 C 236.113281 242.871094 213.152344 252.714844 187.460938 261.519531 C 174.59375 265.90625 161.597656 269.753906 148.511719 272.324219 C 138.355469 274.332031 128.074219 275.550781 117.9375 275.550781 C 115.070312 275.550781 112.195312 275.457031 109.339844 275.257812 C 107.445312 275.105469 105.550781 274.902344 103.675781 274.664062 C 99.179688 274.09375 94.746094 273.234375 90.421875 272.054688 C 84.308594 270.285156 78.457031 268.042969 73.042969 265.097656 C 72.621094 264.875 72.195312 264.640625 71.792969 264.398438 C 61.503906 258.636719 53.089844 250.78125 46.738281 242.742188 C 40.148438 234.273438 35.605469 225.683594 32.328125 217.957031 C 31.429688 216.058594 30.730469 214.144531 30.046875 212.324219 C 29.382812 210.5 28.707031 208.773438 28.132812 207.082031 C 27.082031 203.640625 26.054688 200.585938 25.320312 197.730469 C 24.613281 194.878906 23.992188 192.359375 23.4375 190.171875 C 22.976562 187.980469 22.648438 186.121094 22.351562 184.628906 C 21.804688 181.628906 21.503906 180.046875 21.503906 180.046875 C 21.503906 180.046875 22.300781 181.355469 23.828125 183.859375 C 24.5625 185.109375 25.5 186.65625 26.582031 188.496094 C 27.730469 190.242188 29.035156 192.265625 30.507812 194.53125 C 31.957031 196.773438 33.746094 199.148438 35.566406 201.796875 C 36.511719 203.082031 37.574219 204.351562 38.605469 205.71875 C 39.65625 207.082031 40.71875 208.496094 41.960938 209.824219 C 46.574219 215.378906 52.230469 221.046875 58.835938 225.886719 C 61.910156 228.109375 65.21875 230.113281 68.699219 231.828125 C 72.695312 233.835938 76.960938 235.449219 81.457031 236.574219 C 85.246094 237.53125 89.222656 238.085938 93.328125 238.378906 C 93.789062 238.433594 94.25 238.453125 94.710938 238.492188 C 95.890625 238.542969 97.0625 238.582031 98.261719 238.582031 C 101.796875 238.582031 105.441406 238.339844 109.175781 237.972656 C 129.253906 235.78125 152.046875 227.613281 177.097656 219.058594 C 202.140625 210.519531 227.476562 202.53125 252.253906 200.382812 C 256.394531 200.046875 260.480469 199.828125 264.542969 199.828125 C 266.574219 199.828125 268.582031 199.882812 270.585938 199.996094 C 270.972656 200.015625 271.359375 200.03125 271.746094 200.046875 C 274.339844 200.191406 276.953125 200.511719 279.476562 200.769531 C 282.441406 201.246094 285.3125 201.632812 288.144531 202.347656 C 291.25 203.007812 294.292969 203.894531 297.238281 204.90625 C 305.007812 207.597656 312.105469 211.367188 318.167969 215.765625 C 326.578125 221.800781 332.875 229.140625 337.585938 235.933594 C 342.242188 242.832031 345.367188 249.25 347.671875 254.570312 C 349.878906 259.941406 351.351562 264.160156 352.183594 267.101562 C 353.046875 270.011719 353.507812 271.539062 353.507812 271.539062 " fill-opacity="1" fill-rule="nonzero"/></g><path fill="#025f8e" d="M 108.269531 282.558594 C 107.425781 281.253906 106.613281 279.949219 105.863281 278.601562 C 105.085938 277.3125 104.351562 275.988281 103.675781 274.664062 C 99.179688 274.09375 94.746094 273.234375 90.421875 272.054688 C 84.308594 270.285156 78.457031 268.042969 73.042969 265.097656 C 72.621094 264.875 72.195312 264.640625 71.792969 264.398438 C 72.179688 266.015625 72.546875 267.617188 72.992188 269.21875 C 73.339844 270.488281 73.722656 271.757812 74.203125 273.007812 C 74.3125 273.359375 74.4375 273.707031 74.570312 274.058594 C 74.886719 274.976562 76.195312 278.75 76.515625 279.679688 C 84.308594 284.742188 97.804688 287.8125 110.972656 286.449219 C 110.445312 285.691406 108.78125 283.332031 108.269531 282.558594 " fill-opacity="1" fill-rule="nonzero"/><path fill="#025f8e" d="M 275.242188 255.398438 C 274.261719 259.101562 273.035156 262.78125 271.589844 266.386719 C 279.3125 266.445312 288.796875 266.875 298.679688 268.15625 C 299.742188 264.285156 300.605469 260.390625 301.253906 256.488281 C 296.261719 255.84375 290.996094 255.4375 285.496094 255.324219 C 282.015625 255.253906 278.597656 255.285156 275.242188 255.398438 " fill-opacity="1" fill-rule="nonzero"/></svg>