<svg xmlns="http://www.w3.org/2000/svg" xmlns:xlink="http://www.w3.org/1999/xlink" width="480" zoomAndPan="magnify" viewBox="0 0 360 359.999987" height="480" preserveAspectRatio="xMidYMid meet" version="1.0"><path fill="#ffffff" d="M 27.390625 174.472656 C 27.390625 174.472656 28.5625 189.722656 23.945312 190.308594 C 19.328125 190.894531 37.464844 193.144531 37.464844 193.144531 C 37.464844 193.144531 33.152344 193.292969 34.917969 176.066406 C 36.683594 158.839844 27.390625 174.472656 27.390625 174.472656 Z M 27.390625 174.472656 " fill-opacity="1" fill-rule="nonzero"/><path fill="#ffffff" d="M 40.328125 174.097656 C 39.007812 178.730469 37.226562 182.53125 35.730469 182.105469 C 31.097656 180.78125 24.164062 174.484375 25.484375 169.851562 C 26.804688 165.21875 29.382812 163.207031 34.015625 164.527344 C 38.648438 165.847656 41.648438 169.464844 40.328125 174.097656 Z M 40.328125 174.097656 " fill-opacity="1" fill-rule="nonzero"/><path fill="#ffffff" d="M 40.066406 173.851562 C 40.066406 173.851562 40.796875 176.648438 40.445312 177.472656 C 40.222656 177.988281 39.65625 178.027344 38.910156 177.914062 C 38.164062 177.796875 40.066406 173.851562 40.066406 173.851562 Z M 40.066406 173.851562 " fill-opacity="1" fill-rule="nonzero"/><path fill="#26285d" d="M 26.378906 166.515625 C 26.378906 166.515625 27.339844 161.597656 29.839844 161.925781 C 32.339844 162.257812 41.050781 163.558594 41.050781 163.558594 C 41.050781 163.558594 39.824219 164.53125 39.824219 164.53125 C 39.824219 164.53125 43.667969 167.152344 43.667969 167.152344 C 43.667969 167.152344 41.3125 167.507812 41.3125 167.507812 C 41.3125 167.507812 43.3125 172.230469 43.3125 172.230469 C 43.3125 172.230469 36.667969 169.203125 26.378906 166.515625 Z M 26.378906 166.515625 " fill-opacity="1" fill-rule="nonzero"/><path fill="#26285d" d="M 26.378906 166.519531 C 26.378906 166.519531 24.058594 170.871094 26.035156 174.242188 C 26.035156 174.242188 26.554688 175.789062 26.554688 175.789062 C 26.554688 175.789062 32.8125 167.875 32.8125 167.875 C 32.8125 167.875 26.378906 166.519531 26.378906 166.519531 Z M 26.378906 166.519531 " fill-opacity="1" fill-rule="nonzero"/><path fill="#26285d" d="M 31.601562 167.558594 C 31.601562 167.558594 30.5 173.539062 30.5 173.539062 C 30.5 173.539062 31.3125 173.625 31.3125 173.625 C 31.3125 173.625 35.269531 169.167969 35.269531 169.167969 C 35.269531 169.167969 31.601562 167.558594 31.601562 167.558594 Z M 31.601562 167.558594 " fill-opacity="1" fill-rule="nonzero"/><path fill="#ffffff" d="M 31.339844 171.042969 C 31.339844 171.042969 30.886719 168.238281 29.097656 169.921875 C 27.3125 171.609375 30.167969 174.292969 30.167969 174.292969 C 30.167969 174.292969 31.339844 171.042969 31.339844 171.042969 Z M 31.339844 171.042969 " fill-opacity="1" fill-rule="nonzero"/><path fill="#26285d" d="M 26.839844 202.828125 C 29.871094 215.125 42.167969 219.375 46.324219 221.046875 C 50.195312 222.605469 53.402344 216.582031 53.402344 216.582031 C 53.402344 216.582031 39.132812 197.3125 39.132812 197.3125 C 39.132812 197.3125 26.242188 200.398438 26.839844 202.828125 Z M 26.839844 202.828125 " fill-opacity="1" fill-rule="nonzero"/><path fill="#ffffff" d="M 55.066406 209.089844 C 55.066406 209.089844 72.144531 203.757812 72.144531 203.757812 C 72.144531 203.757812 76.574219 200.566406 76.574219 200.566406 C 76.574219 200.566406 79.734375 199.527344 79.734375 199.527344 C 79.734375 199.527344 81.996094 203.53125 81.996094 203.53125 C 81.996094 203.53125 79.101562 205.179688 78.070312 205.515625 C 76.933594 205.886719 73.539062 206.722656 73.539062 206.722656 C 73.539062 206.722656 54.34375 217.46875 54.34375 217.46875 C 54.34375 217.46875 52.019531 210.554688 55.066406 209.089844 Z M 55.066406 209.089844 " fill-opacity="1" fill-rule="nonzero"/><path fill="#ffffff" d="M 74.496094 202.464844 C 74.496094 202.464844 76.957031 199.226562 76.957031 199.226562 C 76.957031 199.226562 80.246094 198.039062 80.246094 198.039062 C 80.246094 198.039062 80.445312 199.007812 78.667969 199.679688 C 78.667969 199.679688 77.941406 201.546875 77.941406 201.546875 C 77.941406 201.546875 74.496094 202.464844 74.496094 202.464844 Z M 74.496094 202.464844 " fill-opacity="1" fill-rule="nonzero"/><path fill="#ffffff" d="M 78.730469 199.957031 C 78.730469 199.957031 84.3125 197.636719 84.3125 197.636719 C 84.3125 197.636719 85.257812 197.34375 85.1875 197.78125 C 85.113281 198.21875 84.605469 198.582031 84.605469 198.582031 C 84.605469 198.582031 78.539062 201.390625 78.539062 201.390625 C 78.539062 201.390625 78.730469 199.957031 78.730469 199.957031 Z M 78.730469 199.957031 " fill-opacity="1" fill-rule="nonzero"/><path fill="#ffffff" d="M 79.496094 202.097656 C 79.496094 202.097656 85.078125 199.78125 85.078125 199.78125 C 85.078125 199.78125 86.023438 199.488281 85.953125 199.925781 C 85.878906 200.359375 85.371094 200.726562 85.371094 200.726562 C 85.371094 200.726562 79.304688 203.535156 79.304688 203.535156 C 79.304688 203.535156 79.496094 202.097656 79.496094 202.097656 Z M 79.496094 202.097656 " fill-opacity="1" fill-rule="nonzero"/><path fill="#ffffff" d="M 79.027344 203.589844 C 79.027344 203.589844 84.609375 201.273438 84.609375 201.273438 C 84.609375 201.273438 85.554688 200.980469 85.480469 201.417969 C 85.410156 201.851562 84.902344 202.21875 84.902344 202.21875 C 84.902344 202.21875 78.835938 205.027344 78.835938 205.027344 C 78.835938 205.027344 79.027344 203.589844 79.027344 203.589844 Z M 79.027344 203.589844 " fill-opacity="1" fill-rule="nonzero"/><path fill="#ffffff" d="M 79.457031 200.972656 C 79.457031 200.972656 85.550781 198.289062 85.550781 198.289062 C 85.550781 198.289062 86.496094 197.996094 86.421875 198.433594 C 86.351562 198.871094 85.84375 199.234375 85.84375 199.234375 C 85.84375 199.234375 79.265625 202.40625 79.265625 202.40625 C 79.265625 202.40625 79.457031 200.972656 79.457031 200.972656 Z M 79.457031 200.972656 " fill-opacity="1" fill-rule="nonzero"/><path fill="#36ab9c" d="M 55.25 208.390625 C 55.25 208.390625 57.652344 207.378906 57.652344 207.378906 C 57.652344 207.378906 61.074219 214.148438 59.207031 216.773438 C 59.207031 216.773438 57.449219 217.503906 57.449219 217.503906 C 57.449219 217.503906 57.085938 210.730469 55.25 208.390625 Z M 55.25 208.390625 " fill-opacity="1" fill-rule="nonzero"/><path fill="#36ab9c" d="M 55.25 208.390625 C 55.25 208.390625 57.652344 207.378906 57.652344 207.378906 C 57.652344 207.378906 61.074219 214.148438 59.207031 216.773438 C 59.207031 216.773438 57.449219 217.503906 57.449219 217.503906 C 57.449219 217.503906 57.085938 210.730469 55.25 208.390625 Z M 55.25 208.390625 " fill-opacity="1" fill-rule="nonzero"/><path fill="#26285d" d="M 55.796875 208.175781 C 55.796875 208.175781 43.949219 212.546875 43.949219 212.546875 C 43.949219 212.546875 43.753906 220.390625 47.308594 221.269531 C 50.351562 222.023438 53.769531 220.078125 58.246094 217.855469 C 58.246094 217.855469 59.125 211.953125 55.796875 208.175781 Z M 55.796875 208.175781 " fill-opacity="1" fill-rule="nonzero"/><path fill="#ffffff" d="M 41.777344 345.269531 C 41.777344 345.269531 43.03125 354.796875 43.03125 354.796875 C 43.03125 354.796875 47.136719 352.964844 47.136719 352.964844 C 47.136719 352.964844 46.835938 345.085938 46.835938 345.085938 C 46.835938 345.085938 41.777344 345.269531 41.777344 345.269531 Z M 41.777344 345.269531 " fill-opacity="1" fill-rule="nonzero"/><path fill="#36ab9c" d="M 42.78125 354.660156 C 42.78125 354.660156 42.640625 351.726562 42.640625 351.726562 C 42.640625 351.726562 47.089844 351.726562 47.089844 351.726562 C 47.089844 351.726562 47.335938 354.429688 47.335938 354.429688 C 47.335938 354.429688 42.78125 354.660156 42.78125 354.660156 Z M 42.78125 354.660156 " fill-opacity="1" fill-rule="nonzero"/><path fill="#36ab9c" d="M 45.566406 359.472656 C 43.898438 359.425781 42.925781 357.839844 42.925781 357.839844 C 42.925781 357.839844 42.429688 356.007812 42.519531 355.117188 C 42.609375 354.226562 43.121094 354.464844 43.121094 354.464844 C 43.121094 354.464844 47.769531 354.429688 47.769531 354.429688 C 47.769531 354.429688 53.28125 355.59375 55.144531 357.273438 C 56.039062 358.078125 55.84375 359.378906 55.84375 359.378906 C 55.84375 359.378906 45.566406 359.472656 45.566406 359.472656 Z M 45.566406 359.472656 " fill-opacity="1" fill-rule="nonzero"/><path fill="#ffffff" d="M 9.578125 345.269531 C 9.578125 345.269531 9.828125 354.796875 9.828125 354.796875 C 9.828125 354.796875 14.125 352.964844 14.125 352.964844 C 14.125 352.964844 14.660156 345.085938 14.660156 345.085938 C 14.660156 345.085938 9.578125 345.269531 9.578125 345.269531 Z M 9.578125 345.269531 " fill-opacity="1" fill-rule="nonzero"/><path fill="#36ab9c" d="M 9.820312 354.613281 C 9.820312 354.613281 9.761719 351.726562 9.761719 351.726562 C 9.761719 351.726562 14.210938 351.726562 14.210938 351.726562 C 14.210938 351.726562 14.167969 354.429688 14.167969 354.429688 C 14.167969 354.429688 9.820312 354.613281 9.820312 354.613281 Z M 9.820312 354.613281 " fill-opacity="1" fill-rule="nonzero"/><path fill="#36ab9c" d="M 11.863281 359.472656 C 10.203125 359.425781 9.398438 357.839844 9.398438 357.839844 C 9.398438 357.839844 9.097656 356.007812 9.28125 355.117188 C 9.464844 354.226562 9.953125 354.464844 9.953125 354.464844 C 9.953125 354.464844 14.605469 354.429688 14.605469 354.429688 C 14.605469 354.429688 19.992188 355.59375 21.675781 357.273438 C 22.484375 358.078125 22.152344 359.378906 22.152344 359.378906 C 22.152344 359.378906 11.863281 359.472656 11.863281 359.472656 Z M 11.863281 359.472656 " fill-opacity="1" fill-rule="nonzero"/><path fill="#36ab9c" d="M 14.371094 242.164062 C 14.371094 242.164062 6.78125 347.550781 6.78125 347.550781 C 6.78125 347.550781 8.289062 349.316406 11.738281 349.597656 C 14.996094 349.863281 17.171875 348.671875 17.171875 348.671875 C 17.171875 348.671875 27.976562 282.929688 27.976562 282.929688 C 27.976562 282.929688 35.445312 249.761719 35.445312 249.761719 C 35.445312 249.761719 14.371094 242.164062 14.371094 242.164062 Z M 14.371094 242.164062 " fill-opacity="1" fill-rule="nonzero"/><path fill="#36ab9c" d="M 43.769531 241.878906 C 43.769531 241.878906 50.351562 346.96875 50.351562 346.96875 C 50.351562 346.96875 48.914062 349.121094 45.015625 348.773438 C 41.851562 348.492188 39.839844 347.5 39.839844 347.5 C 39.839844 347.5 31.636719 281.65625 31.636719 281.65625 C 31.636719 281.65625 25.722656 248.621094 25.722656 248.621094 C 25.722656 248.621094 43.769531 241.878906 43.769531 241.878906 Z M 43.769531 241.878906 " fill-opacity="1" fill-rule="nonzero"/><path fill="#36ab9c" d="M 14.914062 236.875 C 14.914062 236.875 10.300781 270.359375 30.820312 269.847656 C 48.78125 269.402344 43.632812 239.378906 43.632812 239.378906 C 43.632812 239.378906 14.914062 236.875 14.914062 236.875 Z M 14.914062 236.875 " fill-opacity="1" fill-rule="nonzero"/><path fill="#26285d" d="M 42.78125 244.109375 C 42.78125 244.109375 15.140625 244.109375 15.140625 244.109375 C 15.140625 244.109375 15.140625 241.636719 15.140625 241.636719 C 15.140625 241.636719 42.78125 241.636719 42.78125 241.636719 C 42.78125 241.636719 42.78125 244.109375 42.78125 244.109375 Z M 42.78125 244.109375 " fill-opacity="1" fill-rule="nonzero"/><path fill="#36ab9c" d="M 18.441406 246.585938 C 18.441406 246.585938 16.378906 246.585938 16.378906 246.585938 C 16.378906 246.585938 16.378906 240.808594 16.378906 240.808594 C 16.378906 240.808594 18.441406 240.808594 18.441406 240.808594 C 18.441406 240.808594 18.441406 246.585938 18.441406 246.585938 Z M 18.441406 246.585938 " fill-opacity="1" fill-rule="nonzero"/><path fill="#36ab9c" d="M 25.867188 246.585938 C 25.867188 246.585938 23.804688 246.585938 23.804688 246.585938 C 23.804688 246.585938 23.804688 240.808594 23.804688 240.808594 C 23.804688 240.808594 25.867188 240.808594 25.867188 240.808594 C 25.867188 240.808594 25.867188 246.585938 25.867188 246.585938 Z M 25.867188 246.585938 " fill-opacity="1" fill-rule="nonzero"/><path fill="#36ab9c" d="M 34.117188 246.585938 C 34.117188 246.585938 32.054688 246.585938 32.054688 246.585938 C 32.054688 246.585938 32.054688 240.808594 32.054688 240.808594 C 32.054688 240.808594 34.117188 240.808594 34.117188 240.808594 C 34.117188 240.808594 34.117188 246.585938 34.117188 246.585938 Z M 34.117188 246.585938 " fill-opacity="1" fill-rule="nonzero"/><path fill="#36ab9c" d="M 40.71875 246.585938 C 40.71875 246.585938 38.65625 246.585938 38.65625 246.585938 C 38.65625 246.585938 38.65625 240.808594 38.65625 240.808594 C 38.65625 240.808594 40.71875 240.808594 40.71875 240.808594 C 40.71875 240.808594 40.71875 246.585938 40.71875 246.585938 Z M 40.71875 246.585938 " fill-opacity="1" fill-rule="nonzero"/><path fill="#26285d" d="M 14.371094 240.808594 C 14.371094 240.808594 14.785156 185.132812 26.304688 183.855469 C 26.304688 183.855469 34.941406 185.121094 34.941406 185.121094 C 34.941406 185.121094 44.015625 187.597656 42.042969 209.289062 C 41.316406 217.230469 45.433594 227.523438 43.769531 240.808594 C 43.769531 240.808594 14.371094 240.808594 14.371094 240.808594 Z M 14.371094 240.808594 " fill-opacity="1" fill-rule="nonzero"/><path fill="#36ab9c" d="M 25.867188 184.296875 C 25.867188 184.296875 26.878906 180.835938 26.878906 180.835938 C 26.878906 180.835938 35.949219 182.714844 35.949219 182.714844 C 35.949219 182.714844 35.355469 186.773438 35.355469 186.773438 C 35.355469 186.773438 28.054688 185.546875 25.867188 184.296875 Z M 25.867188 184.296875 " fill-opacity="1" fill-rule="nonzero"/><path fill="#e9b858" d="M 65.808594 164.453125 C 65.808594 164.453125 64.519531 261.382812 64.519531 261.382812 C 64.519531 261.382812 94.835938 261.785156 94.835938 261.785156 C 94.96875 251.648438 103.296875 243.542969 113.433594 243.675781 C 123.570312 243.8125 131.164062 252.136719 131.027344 262.273438 C 131.027344 262.273438 161.449219 262.671875 161.449219 262.671875 C 161.449219 262.671875 161.851562 232.347656 161.851562 232.347656 C 161.988281 232.351562 162.125 232.359375 162.261719 232.363281 C 172.398438 232.496094 180.726562 224.386719 180.863281 214.25 C 180.996094 204.113281 172.886719 195.789062 162.75 195.652344 C 162.613281 195.652344 162.476562 195.65625 162.339844 195.65625 C 162.339844 195.65625 162.738281 165.742188 162.738281 165.742188 C 162.738281 165.742188 65.808594 164.453125 65.808594 164.453125 Z M 65.808594 164.453125 " fill-opacity="1" fill-rule="nonzero"/><path fill="#ffffff" d="M 62.203125 192.984375 C 62.203125 192.984375 66.566406 192.488281 66.566406 192.488281 C 66.566406 192.488281 71.335938 189.820312 71.335938 189.820312 C 71.335938 189.820312 74.589844 189.148438 74.589844 189.148438 C 74.589844 189.148438 76.378906 193.382812 76.378906 193.382812 C 76.378906 193.382812 73.320312 194.691406 72.253906 194.910156 C 71.085938 195.148438 68.402344 195.839844 68.402344 195.839844 C 68.402344 195.839844 64.230469 197.496094 64.230469 197.496094 C 64.230469 197.496094 59.007812 194.097656 62.203125 192.984375 Z M 62.203125 192.984375 " fill-opacity="1" fill-rule="nonzero"/><path fill="#ffffff" d="M 69.050781 191.46875 C 69.050781 191.46875 71.863281 188.535156 71.863281 188.535156 C 71.863281 188.535156 75.265625 187.730469 75.265625 187.730469 C 75.265625 187.730469 75.355469 188.714844 73.511719 189.179688 C 73.511719 189.179688 72.578125 190.953125 72.578125 190.953125 C 72.578125 190.953125 69.050781 191.46875 69.050781 191.46875 Z M 69.050781 191.46875 " fill-opacity="1" fill-rule="nonzero"/><path fill="#ffffff" d="M 73.542969 189.460938 C 73.542969 189.460938 79.355469 187.792969 79.355469 187.792969 C 79.355469 187.792969 80.328125 187.609375 80.207031 188.035156 C 80.085938 188.460938 79.539062 188.765625 79.539062 188.765625 C 79.539062 188.765625 73.191406 190.863281 73.191406 190.863281 C 73.191406 190.863281 73.542969 189.460938 73.542969 189.460938 Z M 73.542969 189.460938 " fill-opacity="1" fill-rule="nonzero"/><path fill="#ffffff" d="M 74.0625 191.679688 C 74.0625 191.679688 79.871094 190.011719 79.871094 190.011719 C 79.871094 190.011719 80.84375 189.828125 80.722656 190.253906 C 80.601562 190.679688 80.054688 190.984375 80.054688 190.984375 C 80.054688 190.984375 73.707031 193.082031 73.707031 193.082031 C 73.707031 193.082031 74.0625 191.679688 74.0625 191.679688 Z M 74.0625 191.679688 " fill-opacity="1" fill-rule="nonzero"/><path fill="#ffffff" d="M 73.425781 193.105469 C 73.425781 193.105469 79.234375 191.4375 79.234375 191.4375 C 79.234375 191.4375 80.207031 191.257812 80.085938 191.679688 C 79.964844 192.105469 79.417969 192.410156 79.417969 192.410156 C 79.417969 192.410156 73.070312 194.507812 73.070312 194.507812 C 73.070312 194.507812 73.425781 193.105469 73.425781 193.105469 Z M 73.425781 193.105469 " fill-opacity="1" fill-rule="nonzero"/><path fill="#ffffff" d="M 74.152344 190.554688 C 74.152344 190.554688 80.507812 188.582031 80.507812 188.582031 C 80.507812 188.582031 81.480469 188.398438 81.359375 188.824219 C 81.238281 189.25 80.691406 189.554688 80.691406 189.554688 C 80.691406 189.554688 73.796875 191.957031 73.796875 191.957031 C 73.796875 191.957031 74.152344 190.554688 74.152344 190.554688 Z M 74.152344 190.554688 " fill-opacity="1" fill-rule="nonzero"/><path fill="#26285d" d="M 27.445312 197.679688 C 36.199219 206.832031 48.980469 204.390625 53.414062 203.769531 C 57.546875 203.191406 57.328125 196.371094 57.328125 196.371094 C 57.328125 196.371094 35.355469 186.773438 35.355469 186.773438 C 35.355469 186.773438 25.714844 195.871094 27.445312 197.679688 Z M 27.445312 197.679688 " fill-opacity="1" fill-rule="nonzero"/><path fill="#ffffff" d="M 54.558594 194.785156 C 54.558594 194.785156 62.167969 192.960938 62.167969 192.960938 C 62.167969 192.960938 65.46875 197.085938 65.46875 197.085938 C 65.46875 197.085938 55.566406 201.210938 55.566406 201.210938 C 55.566406 201.210938 54.558594 194.785156 54.558594 194.785156 Z M 54.558594 194.785156 " fill-opacity="1" fill-rule="nonzero"/><path fill="#26285d" d="M 59.28125 192.136719 C 59.28125 192.136719 47.023438 195.160156 47.023438 195.160156 C 47.023438 195.160156 41.828125 202.933594 45.261719 204.203125 C 48.203125 205.292969 55.945312 203.738281 60.636719 202.027344 C 60.636719 202.027344 62.167969 196.261719 59.28125 192.136719 Z M 59.28125 192.136719 " fill-opacity="1" fill-rule="nonzero"/><path fill="#36ab9c" d="M 59.28125 192.136719 C 59.28125 192.136719 61.753906 191.308594 61.753906 191.308594 C 61.753906 191.308594 64.640625 198.324219 62.578125 200.796875 C 62.578125 200.796875 60.773438 201.390625 60.773438 201.390625 C 60.773438 201.390625 60.929688 194.609375 59.28125 192.136719 Z M 59.28125 192.136719 " fill-opacity="1" fill-rule="nonzero"/><path fill="#ffffff" d="M 315.5625 192.507812 C 313.644531 205.949219 308.117188 221.945312 308.117188 221.945312 C 308.117188 221.945312 300.863281 221.796875 300.863281 221.796875 C 300.863281 221.796875 306.554688 190.265625 306.554688 190.265625 C 306.554688 190.265625 309.21875 186.707031 311.730469 187.089844 C 315.257812 187.632812 315.707031 191.496094 315.5625 192.507812 Z M 315.5625 192.507812 " fill-opacity="1" fill-rule="nonzero"/><path fill="#ffffff" d="M 285.175781 209.457031 C 285.175781 209.457031 280.890625 208.273438 280.890625 208.273438 C 280.890625 208.273438 276.214844 205.453125 276.214844 205.453125 C 276.214844 205.453125 272.984375 204.675781 272.984375 204.675781 C 272.984375 204.675781 271.054688 208.847656 271.054688 208.847656 C 271.054688 208.847656 274.070312 210.257812 275.128906 210.507812 C 276.289062 210.785156 279.742188 211.34375 279.742188 211.34375 C 279.742188 211.34375 286.484375 214.070312 286.484375 214.070312 C 286.484375 214.070312 288.332031 210.671875 285.175781 209.457031 Z M 285.175781 209.457031 " fill-opacity="1" fill-rule="nonzero"/><path fill="#ffffff" d="M 278.441406 207.175781 C 278.441406 207.175781 275.726562 204.148438 275.726562 204.148438 C 275.726562 204.148438 272.351562 203.234375 272.351562 203.234375 C 272.351562 203.234375 272.230469 204.214844 274.058594 204.742188 C 274.058594 204.742188 274.933594 206.542969 274.933594 206.542969 C 274.933594 206.542969 278.441406 207.175781 278.441406 207.175781 Z M 278.441406 207.175781 " fill-opacity="1" fill-rule="nonzero"/><path fill="#ffffff" d="M 274.019531 205.019531 C 274.019531 205.019531 268.265625 203.164062 268.265625 203.164062 C 268.265625 203.164062 267.300781 202.949219 267.40625 203.378906 C 267.515625 203.808594 268.050781 204.128906 268.050781 204.128906 C 268.050781 204.128906 274.328125 206.433594 274.328125 206.433594 C 274.328125 206.433594 274.019531 205.019531 274.019531 205.019531 Z M 274.019531 205.019531 " fill-opacity="1" fill-rule="nonzero"/><path fill="#ffffff" d="M 273.429688 207.21875 C 273.429688 207.21875 267.675781 205.363281 267.675781 205.363281 C 267.675781 205.363281 266.710938 205.148438 266.816406 205.578125 C 266.925781 206.007812 267.460938 206.328125 267.460938 206.328125 C 267.460938 206.328125 273.734375 208.632812 273.734375 208.632812 C 273.734375 208.632812 273.429688 207.21875 273.429688 207.21875 Z M 273.429688 207.21875 " fill-opacity="1" fill-rule="nonzero"/><path fill="#ffffff" d="M 274.019531 208.667969 C 274.019531 208.667969 268.265625 206.8125 268.265625 206.8125 C 268.265625 206.8125 267.300781 206.597656 267.40625 207.027344 C 267.515625 207.453125 268.050781 207.777344 268.050781 207.777344 C 268.050781 207.777344 274.328125 210.082031 274.328125 210.082031 C 274.328125 210.082031 274.019531 208.667969 274.019531 208.667969 Z M 274.019531 208.667969 " fill-opacity="1" fill-rule="nonzero"/><path fill="#ffffff" d="M 273.375 206.09375 C 273.375 206.09375 267.085938 203.914062 267.085938 203.914062 C 267.085938 203.914062 266.121094 203.699219 266.226562 204.128906 C 266.335938 204.558594 266.871094 204.878906 266.871094 204.878906 C 266.871094 204.878906 273.683594 207.507812 273.683594 207.507812 C 273.683594 207.507812 273.375 206.09375 273.375 206.09375 Z M 273.375 206.09375 " fill-opacity="1" fill-rule="nonzero"/><path fill="#ffffff" d="M 306.121094 223.707031 C 303.148438 224.707031 300.53125 223.046875 295.890625 221.195312 C 287.042969 217.660156 278.402344 211.011719 278.402344 211.011719 C 278.402344 211.011719 280.117188 207.644531 280.117188 207.644531 C 280.117188 207.644531 308.574219 217.753906 308.574219 217.753906 C 308.574219 217.753906 309.589844 222.542969 306.121094 223.707031 Z M 306.121094 223.707031 " fill-opacity="1" fill-rule="nonzero"/><path fill="#ffffff" d="M 303.214844 170.597656 C 303.980469 175.183594 305.449219 180.222656 306.929688 179.972656 C 311.519531 179.210938 319.28125 172.636719 318.515625 168.050781 C 317.753906 163.460938 314.730469 160.140625 310.140625 160.90625 C 305.550781 161.667969 302.453125 166.007812 303.214844 170.597656 Z M 303.214844 170.597656 " fill-opacity="1" fill-rule="nonzero"/><path fill="#ffffff" d="M 316.15625 170.101562 C 316.15625 170.101562 315.152344 181.46875 319.648438 181.398438 C 324.140625 181.324219 307.191406 191.308594 307.191406 191.308594 C 307.191406 191.308594 305.289062 192.78125 307.191406 189.246094 C 310.078125 183.886719 309.488281 179.617188 307.4375 173.726562 C 301.941406 157.933594 316.15625 170.101562 316.15625 170.101562 Z M 316.15625 170.101562 " fill-opacity="1" fill-rule="nonzero"/><path fill="#26285d" d="M 314.160156 165.726562 C 314.160156 165.726562 316.113281 173.976562 316.113281 173.976562 C 316.113281 173.976562 320.832031 173.527344 318.453125 166.757812 C 316.070312 159.988281 314.160156 165.726562 314.160156 165.726562 Z M 314.160156 165.726562 " fill-opacity="1" fill-rule="nonzero"/><path fill="#26285d" d="M 309.910156 167.054688 C 309.910156 167.054688 312.03125 171.816406 309.9375 172.496094 C 309.9375 172.496094 314.808594 174.316406 313.09375 167.457031 C 311.382812 160.597656 309.910156 167.054688 309.910156 167.054688 Z M 309.910156 167.054688 " fill-opacity="1" fill-rule="nonzero"/><path fill="#26285d" d="M 317.371094 167.753906 C 320 166.601562 318.835938 158.050781 310.230469 158.886719 C 304.195312 159.472656 300.816406 163.210938 301.328125 166.347656 C 301.710938 168.71875 305.265625 167.136719 309.785156 166.964844 C 313.054688 166.84375 315.460938 168.59375 317.371094 167.753906 Z M 317.371094 167.753906 " fill-opacity="1" fill-rule="nonzero"/><path fill="#26285d" d="M 318.121094 164.429688 C 318.121094 164.429688 326.058594 163.710938 325.757812 169.742188 C 325.453125 175.773438 329.972656 175.742188 329.972656 175.742188 C 329.972656 175.742188 323.617188 177.117188 321.992188 170.925781 C 321.191406 167.878906 318.34375 167.519531 317.582031 166.660156 C 316.800781 165.769531 318.121094 164.429688 318.121094 164.429688 Z M 318.121094 164.429688 " fill-opacity="1" fill-rule="nonzero"/><path fill="#26285d" d="M 301.277344 165.59375 C 301.03125 166.851562 302.46875 169.523438 304.148438 169.847656 C 304.148438 169.847656 304.210938 166.164062 304.210938 166.164062 C 304.210938 166.164062 301.414062 164.890625 301.277344 165.59375 Z M 301.277344 165.59375 " fill-opacity="1" fill-rule="nonzero"/><path fill="#ffffff" d="M 303.765625 171.71875 C 303.765625 171.71875 303.503906 173.992188 302.578125 175.042969 C 302.578125 175.042969 304.78125 176.054688 304.78125 176.054688 C 304.78125 176.054688 303.765625 171.71875 303.765625 171.71875 Z M 303.765625 171.71875 " fill-opacity="1" fill-rule="nonzero"/><path fill="#26285d" d="M 303.605469 163.550781 C 303.605469 163.550781 302.679688 167.773438 306.902344 168.699219 C 311.125 169.625 311.484375 169.855469 311.484375 169.855469 C 311.484375 169.855469 313.601562 159.804688 303.605469 163.550781 Z M 303.605469 163.550781 " fill-opacity="1" fill-rule="nonzero"/><path fill="#ffffff" d="M 314.109375 172.882812 C 314.109375 172.882812 313.09375 167.457031 313.09375 167.457031 C 313.09375 167.457031 316.007812 164.726562 316.21875 167.984375 C 316.425781 171.242188 314.109375 172.882812 314.109375 172.882812 Z M 314.109375 172.882812 " fill-opacity="1" fill-rule="nonzero"/><path fill="#ffffff" d="M 349.078125 354.109375 C 349.078125 354.109375 344.074219 354.109375 344.074219 354.109375 C 344.074219 354.109375 342.480469 337.535156 342.480469 337.535156 C 342.480469 337.535156 347.484375 337.535156 347.484375 337.535156 C 347.484375 337.535156 349.078125 354.109375 349.078125 354.109375 Z M 349.078125 354.109375 " fill-opacity="1" fill-rule="nonzero"/><path fill="#e9b858" d="M 347.609375 357.550781 C 349.265625 357.503906 349.855469 355.742188 349.855469 355.742188 C 349.855469 355.742188 349.910156 353.710938 349.609375 352.726562 C 349.304688 351.738281 348.847656 352 348.847656 352 C 348.847656 352 344.191406 351.960938 344.191406 351.960938 C 344.191406 351.960938 338.960938 353.253906 337.5 355.113281 C 336.800781 356.007812 337.308594 357.449219 337.308594 357.449219 C 337.308594 357.449219 347.609375 357.550781 347.609375 357.550781 Z M 347.609375 357.550781 " fill-opacity="1" fill-rule="nonzero"/><path fill="#ffffff" d="M 299.128906 354.109375 C 299.128906 354.109375 294.125 354.109375 294.125 354.109375 C 294.125 354.109375 290.503906 337.535156 290.503906 337.535156 C 290.503906 337.535156 295.507812 337.535156 295.507812 337.535156 C 295.507812 337.535156 299.128906 354.109375 299.128906 354.109375 Z M 299.128906 354.109375 " fill-opacity="1" fill-rule="nonzero"/><path fill="#e9b858" d="M 298.085938 357.550781 C 299.734375 357.503906 300.109375 355.742188 300.109375 355.742188 C 300.109375 355.742188 299.917969 353.710938 299.492188 352.726562 C 299.070312 351.738281 298.644531 352 298.644531 352 C 298.644531 352 293.984375 351.960938 293.984375 351.960938 C 293.984375 351.960938 288.910156 353.253906 287.679688 355.113281 C 287.085938 356.007812 287.773438 357.449219 287.773438 357.449219 C 287.773438 357.449219 298.085938 357.550781 298.085938 357.550781 Z M 298.085938 357.550781 " fill-opacity="1" fill-rule="nonzero"/><path fill="#e9b858" d="M 302.574219 233.183594 C 302.574219 233.183594 285.292969 293.625 285.292969 293.625 C 285.292969 293.625 280.257812 347.640625 280.257812 347.640625 C 280.257812 347.640625 305.28125 347.640625 305.28125 347.640625 C 305.28125 347.640625 302.359375 297.972656 302.359375 297.972656 C 302.359375 297.972656 319.636719 244.695312 319.636719 244.695312 C 319.636719 244.695312 302.574219 233.183594 302.574219 233.183594 Z M 302.574219 233.183594 " fill-opacity="1" fill-rule="nonzero"/><path fill="#e9b858" d="M 334.769531 233.4375 C 334.769531 233.4375 342.679688 286.785156 342.679688 286.785156 C 342.679688 286.785156 359.511719 346.730469 359.511719 346.730469 C 359.511719 346.730469 334.550781 347.355469 334.550781 347.355469 C 334.550781 347.355469 326.988281 286.777344 326.988281 286.777344 C 326.988281 286.777344 317.238281 229.996094 317.238281 229.996094 C 317.238281 229.996094 334.769531 233.4375 334.769531 233.4375 Z M 334.769531 233.4375 " fill-opacity="1" fill-rule="nonzero"/><path fill="#e9b858" d="M 302.851562 230.308594 C 302.851562 230.308594 295.28125 255.917969 316.609375 255.015625 C 338.816406 254.078125 337.253906 252.199219 335.6875 232.5 C 335.6875 232.5 302.851562 230.308594 302.851562 230.308594 Z M 302.851562 230.308594 " fill-opacity="1" fill-rule="nonzero"/><path fill="#36ab9c" d="M 303.066406 232.558594 C 303.066406 232.558594 303.066406 234.210938 303.066406 234.210938 C 303.066406 234.210938 303.890625 237.097656 319.566406 237.097656 C 335.242188 237.097656 335.070312 235.25 335.070312 235.25 C 335.070312 235.25 335.070312 234.210938 335.070312 234.210938 C 335.070312 234.210938 312.96875 238.335938 303.066406 232.558594 Z M 303.066406 232.558594 " fill-opacity="1" fill-rule="nonzero"/><path fill="#36ab9c" d="M 307.167969 215.214844 C 307.78125 224.234375 300.539062 229.886719 303.097656 230.871094 C 316.296875 235.9375 335.628906 232.453125 335.628906 232.453125 C 335.628906 232.453125 334.367188 226.09375 329.644531 213.449219 C 325.667969 202.792969 331.007812 202.964844 327.578125 189.777344 C 325.953125 183.53125 317.601562 179.492188 317.601562 179.492188 C 317.601562 179.492188 309.667969 189.246094 309.667969 189.246094 C 309.667969 189.246094 307.929688 191.8125 307.191406 191.308594 C 306.75 191.007812 306.703125 190.234375 306.644531 190.503906 C 305.542969 195.433594 304.019531 200.25 305.472656 204.667969 C 305.472656 204.667969 307.167969 215.214844 307.167969 215.214844 Z M 307.167969 215.214844 " fill-opacity="1" fill-rule="nonzero"/><path fill="#26285d" d="M 301.707031 168.019531 C 301.707031 168.019531 213.058594 128.796875 213.058594 128.796875 C 213.058594 128.796875 200.789062 156.523438 200.789062 156.523438 C 210.0625 160.625 214.25 171.464844 210.148438 180.734375 C 206.046875 190.007812 195.207031 194.195312 185.9375 190.09375 C 185.9375 190.09375 173.835938 217.445312 173.835938 217.445312 C 173.835938 217.445312 201.570312 229.714844 201.570312 229.714844 C 201.511719 229.839844 201.449219 229.960938 201.394531 230.089844 C 197.292969 239.359375 201.484375 250.199219 210.753906 254.300781 C 220.023438 258.40625 230.867188 254.214844 234.96875 244.941406 C 235.023438 244.816406 235.074219 244.6875 235.125 244.5625 C 235.125 244.5625 262.484375 256.667969 262.484375 256.667969 C 262.484375 256.667969 301.707031 168.019531 301.707031 168.019531 Z M 301.707031 168.019531 " fill-opacity="1" fill-rule="nonzero"/><path fill="#ffffff" d="M 324.632812 191.253906 C 322.714844 204.695312 317.1875 220.695312 317.1875 220.695312 C 317.1875 220.695312 309.929688 220.542969 309.929688 220.542969 C 309.929688 220.542969 315.625 189.015625 315.625 189.015625 C 315.625 189.015625 318.289062 185.457031 320.800781 185.839844 C 324.324219 186.378906 324.777344 190.246094 324.632812 191.253906 Z M 324.632812 191.253906 " fill-opacity="1" fill-rule="nonzero"/><path fill="#ffffff" d="M 294.066406 207.761719 C 294.066406 207.761719 289.367188 206.460938 289.367188 206.460938 C 289.367188 206.460938 284.238281 203.367188 284.238281 203.367188 C 284.238281 203.367188 280.691406 202.511719 280.691406 202.511719 C 280.691406 202.511719 278.578125 207.09375 278.578125 207.09375 C 278.578125 207.09375 281.886719 208.636719 283.046875 208.914062 C 284.320312 209.214844 288.105469 209.828125 288.105469 209.828125 C 288.105469 209.828125 295.5 212.820312 295.5 212.820312 C 295.5 212.820312 297.527344 209.09375 294.066406 207.761719 Z M 294.066406 207.761719 " fill-opacity="1" fill-rule="nonzero"/><path fill="#ffffff" d="M 286.679688 205.257812 C 286.679688 205.257812 283.703125 201.9375 283.703125 201.9375 C 283.703125 201.9375 280 200.933594 280 200.933594 C 280 200.933594 279.867188 202.011719 281.871094 202.585938 C 281.871094 202.585938 282.832031 204.5625 282.832031 204.5625 C 282.832031 204.5625 286.679688 205.257812 286.679688 205.257812 Z M 286.679688 205.257812 " fill-opacity="1" fill-rule="nonzero"/><path fill="#ffffff" d="M 281.828125 202.894531 C 281.828125 202.894531 275.515625 200.855469 275.515625 200.855469 C 275.515625 200.855469 274.457031 200.621094 274.574219 201.09375 C 274.695312 201.5625 275.28125 201.914062 275.28125 201.914062 C 275.28125 201.914062 282.164062 204.445312 282.164062 204.445312 C 282.164062 204.445312 281.828125 202.894531 281.828125 202.894531 Z M 281.828125 202.894531 " fill-opacity="1" fill-rule="nonzero"/><path fill="#ffffff" d="M 281.179688 205.304688 C 281.179688 205.304688 274.871094 203.269531 274.871094 203.269531 C 274.871094 203.269531 273.8125 203.035156 273.929688 203.503906 C 274.046875 203.972656 274.636719 204.328125 274.636719 204.328125 C 274.636719 204.328125 281.519531 206.855469 281.519531 206.855469 C 281.519531 206.855469 281.179688 205.304688 281.179688 205.304688 Z M 281.179688 205.304688 " fill-opacity="1" fill-rule="nonzero"/><path fill="#ffffff" d="M 281.828125 206.894531 C 281.828125 206.894531 275.519531 204.855469 275.519531 204.855469 C 275.519531 204.855469 274.457031 204.621094 274.578125 205.09375 C 274.695312 205.5625 275.28125 205.914062 275.28125 205.914062 C 275.28125 205.914062 282.167969 208.445312 282.167969 208.445312 C 282.167969 208.445312 281.828125 206.894531 281.828125 206.894531 Z M 281.828125 206.894531 " fill-opacity="1" fill-rule="nonzero"/><path fill="#ffffff" d="M 281.121094 204.070312 C 281.121094 204.070312 274.222656 201.679688 274.222656 201.679688 C 274.222656 201.679688 273.164062 201.445312 273.28125 201.914062 C 273.398438 202.386719 273.988281 202.738281 273.988281 202.738281 C 273.988281 202.738281 281.460938 205.621094 281.460938 205.621094 C 281.460938 205.621094 281.121094 204.070312 281.121094 204.070312 Z M 281.121094 204.070312 " fill-opacity="1" fill-rule="nonzero"/><path fill="#ffffff" d="M 315.191406 222.457031 C 312.21875 223.457031 309.601562 221.796875 304.960938 219.945312 C 296.113281 216.410156 287.46875 209.761719 287.46875 209.761719 C 287.46875 209.761719 289.183594 206.394531 289.183594 206.394531 C 289.183594 206.394531 317.644531 216.5 317.644531 216.5 C 317.644531 216.5 318.660156 221.289062 315.191406 222.457031 Z M 315.191406 222.457031 " fill-opacity="1" fill-rule="nonzero"/><path fill="#36ab9c" d="M 288.210938 211.601562 C 288.210938 211.601562 286.6875 210.972656 286.6875 210.972656 C 286.6875 210.972656 289.050781 205.253906 289.050781 205.253906 C 289.050781 205.253906 290.574219 205.886719 290.574219 205.886719 C 290.574219 205.886719 288.210938 211.601562 288.210938 211.601562 Z M 288.210938 211.601562 " fill-opacity="1" fill-rule="nonzero"/><path fill="#e9b858" d="M 257.898438 356.929688 C 257.898438 356.929688 257.898438 259.992188 257.898438 259.992188 C 257.898438 259.992188 227.578125 259.992188 227.578125 259.992188 C 227.578125 270.128906 219.363281 278.347656 209.222656 278.347656 C 199.085938 278.347656 190.867188 270.128906 190.867188 259.992188 C 190.867188 259.992188 160.960938 259.992188 160.960938 259.992188 C 160.960938 259.992188 160.960938 290.320312 160.960938 290.320312 C 160.824219 290.316406 160.6875 290.308594 160.546875 290.308594 C 150.410156 290.308594 142.191406 298.527344 142.191406 308.667969 C 142.191406 318.804688 150.410156 327.023438 160.546875 327.023438 C 160.6875 327.023438 160.824219 327.015625 160.960938 327.011719 C 160.960938 327.011719 160.960938 356.929688 160.960938 356.929688 C 160.960938 356.929688 257.898438 356.929688 257.898438 356.929688 Z M 257.898438 356.929688 " fill-opacity="1" fill-rule="nonzero"/><path fill="#26285d" d="M 64.640625 357.546875 C 64.640625 357.546875 161.578125 357.546875 161.578125 357.546875 C 161.578125 357.546875 161.578125 327.230469 161.578125 327.230469 C 151.441406 327.230469 143.222656 319.011719 143.222656 308.871094 C 143.222656 298.734375 151.441406 290.515625 161.578125 290.515625 C 161.578125 290.515625 161.578125 260.609375 161.578125 260.609375 C 161.578125 260.609375 131.25 260.609375 131.25 260.609375 C 131.253906 260.472656 131.261719 260.335938 131.261719 260.199219 C 131.261719 250.058594 123.042969 241.839844 112.90625 241.839844 C 102.765625 241.839844 94.546875 250.058594 94.546875 260.199219 C 94.546875 260.335938 94.554688 260.472656 94.558594 260.609375 C 94.558594 260.609375 64.640625 260.609375 64.640625 260.609375 C 64.640625 260.609375 64.640625 357.546875 64.640625 357.546875 Z M 64.640625 357.546875 " fill-opacity="1" fill-rule="nonzero"/><path fill="#e9b858" d="M 318.742188 167.796875 C 318.515625 167.796875 318.328125 167.613281 318.328125 167.386719 C 318.328125 167.386719 318.328125 164.496094 318.328125 164.496094 C 318.328125 164.269531 318.515625 164.085938 318.742188 164.085938 C 318.96875 164.085938 319.15625 164.269531 319.15625 164.496094 C 319.15625 164.496094 319.15625 167.386719 319.15625 167.386719 C 319.15625 167.613281 318.96875 167.796875 318.742188 167.796875 Z M 318.742188 167.796875 " fill-opacity="1" fill-rule="nonzero"/><path fill="#e9b858" d="M 316.679688 170.890625 C 316.679688 171.460938 316.21875 171.921875 315.648438 171.921875 C 315.078125 171.921875 314.617188 171.460938 314.617188 170.890625 C 314.617188 170.320312 315.078125 169.859375 315.648438 169.859375 C 316.21875 169.859375 316.679688 170.320312 316.679688 170.890625 Z M 316.679688 170.890625 " fill-opacity="1" fill-rule="nonzero"/></svg>