<svg xmlns="http://www.w3.org/2000/svg" xmlns:xlink="http://www.w3.org/1999/xlink" width="480" zoomAndPan="magnify" viewBox="0 0 360 359.999987" height="480" preserveAspectRatio="xMidYMid meet" version="1.0"><path fill="#ffffff" d="M 54.226562 123.726562 C 54.226562 123.726562 55.171875 136.050781 51.441406 136.523438 C 47.710938 137 62.367188 138.8125 62.367188 138.8125 C 62.367188 138.8125 58.882812 138.933594 60.308594 125.015625 C 61.734375 111.09375 54.226562 123.726562 54.226562 123.726562 Z M 54.226562 123.726562 " fill-opacity="1" fill-rule="nonzero"/><path fill="#ffffff" d="M 64.679688 123.421875 C 63.613281 127.164062 62.171875 130.238281 60.964844 129.894531 C 57.21875 128.828125 51.617188 123.738281 52.683594 119.992188 C 53.75 116.25 55.832031 114.625 59.578125 115.691406 C 63.320312 116.757812 65.746094 119.679688 64.679688 123.421875 Z M 64.679688 123.421875 " fill-opacity="1" fill-rule="nonzero"/><path fill="#ffffff" d="M 64.46875 123.226562 C 64.46875 123.226562 65.054688 125.484375 64.773438 126.148438 C 64.59375 126.566406 64.136719 126.597656 63.535156 126.507812 C 62.933594 126.414062 64.46875 123.226562 64.46875 123.226562 Z M 64.46875 123.226562 " fill-opacity="1" fill-rule="nonzero"/><path fill="#26285d" d="M 53.40625 117.300781 C 53.40625 117.300781 54.183594 113.324219 56.203125 113.589844 C 58.222656 113.855469 65.261719 114.90625 65.261719 114.90625 C 65.261719 114.90625 64.269531 115.695312 64.269531 115.695312 C 64.269531 115.695312 67.375 117.808594 67.375 117.808594 C 67.375 117.808594 65.472656 118.097656 65.472656 118.097656 C 65.472656 118.097656 67.089844 121.914062 67.089844 121.914062 C 67.089844 121.914062 61.71875 119.46875 53.40625 117.300781 Z M 53.40625 117.300781 " fill-opacity="1" fill-rule="nonzero"/><path fill="#26285d" d="M 53.40625 117.300781 C 53.40625 117.300781 51.53125 120.820312 53.128906 123.539062 C 53.128906 123.539062 53.546875 124.789062 53.546875 124.789062 C 53.546875 124.789062 58.605469 118.394531 58.605469 118.394531 C 58.605469 118.394531 53.40625 117.300781 53.40625 117.300781 Z M 53.40625 117.300781 " fill-opacity="1" fill-rule="nonzero"/><path fill="#26285d" d="M 57.625 118.140625 C 57.625 118.140625 56.734375 122.972656 56.734375 122.972656 C 56.734375 122.972656 57.394531 123.042969 57.394531 123.042969 C 57.394531 123.042969 60.589844 119.441406 60.589844 119.441406 C 60.589844 119.441406 57.625 118.140625 57.625 118.140625 Z M 57.625 118.140625 " fill-opacity="1" fill-rule="nonzero"/><path fill="#ffffff" d="M 57.414062 120.957031 C 57.414062 120.957031 57.046875 118.6875 55.605469 120.050781 C 54.160156 121.414062 56.46875 123.582031 56.46875 123.582031 C 56.46875 123.582031 57.414062 120.957031 57.414062 120.957031 Z M 57.414062 120.957031 " fill-opacity="1" fill-rule="nonzero"/><path fill="#26285d" d="M 53.785156 146.640625 C 56.234375 156.578125 66.171875 160.011719 69.53125 161.359375 C 72.660156 162.617188 75.25 157.75 75.25 157.75 C 75.25 157.75 63.714844 142.183594 63.714844 142.183594 C 63.714844 142.183594 53.296875 144.679688 53.785156 146.640625 Z M 53.785156 146.640625 " fill-opacity="1" fill-rule="nonzero"/><path fill="#ffffff" d="M 76.59375 151.695312 C 76.59375 151.695312 90.390625 147.382812 90.390625 147.382812 C 90.390625 147.382812 93.972656 144.800781 93.972656 144.800781 C 93.972656 144.800781 96.523438 143.960938 96.523438 143.960938 C 96.523438 143.960938 98.351562 147.195312 98.351562 147.195312 C 98.351562 147.195312 96.015625 148.53125 95.179688 148.800781 C 94.265625 149.101562 91.519531 149.777344 91.519531 149.777344 C 91.519531 149.777344 76.011719 158.46875 76.011719 158.46875 C 76.011719 158.46875 74.132812 152.882812 76.59375 151.695312 Z M 76.59375 151.695312 " fill-opacity="1" fill-rule="nonzero"/><path fill="#ffffff" d="M 92.292969 146.335938 C 92.292969 146.335938 94.28125 143.722656 94.28125 143.722656 C 94.28125 143.722656 96.9375 142.761719 96.9375 142.761719 C 96.9375 142.761719 97.101562 143.542969 95.664062 144.085938 C 95.664062 144.085938 95.078125 145.59375 95.078125 145.59375 C 95.078125 145.59375 92.292969 146.335938 92.292969 146.335938 Z M 92.292969 146.335938 " fill-opacity="1" fill-rule="nonzero"/><path fill="#ffffff" d="M 95.714844 144.308594 C 95.714844 144.308594 100.222656 142.433594 100.222656 142.433594 C 100.222656 142.433594 100.988281 142.199219 100.929688 142.550781 C 100.871094 142.902344 100.460938 143.199219 100.460938 143.199219 C 100.460938 143.199219 95.558594 145.46875 95.558594 145.46875 C 95.558594 145.46875 95.714844 144.308594 95.714844 144.308594 Z M 95.714844 144.308594 " fill-opacity="1" fill-rule="nonzero"/><path fill="#ffffff" d="M 96.332031 146.042969 C 96.332031 146.042969 100.84375 144.167969 100.84375 144.167969 C 100.84375 144.167969 101.609375 143.929688 101.550781 144.28125 C 101.492188 144.636719 101.082031 144.929688 101.082031 144.929688 C 101.082031 144.929688 96.179688 147.199219 96.179688 147.199219 C 96.179688 147.199219 96.332031 146.042969 96.332031 146.042969 Z M 96.332031 146.042969 " fill-opacity="1" fill-rule="nonzero"/><path fill="#ffffff" d="M 95.953125 147.246094 C 95.953125 147.246094 100.464844 145.371094 100.464844 145.371094 C 100.464844 145.371094 101.226562 145.136719 101.167969 145.488281 C 101.113281 145.839844 100.703125 146.136719 100.703125 146.136719 C 100.703125 146.136719 95.796875 148.40625 95.796875 148.40625 C 95.796875 148.40625 95.953125 147.246094 95.953125 147.246094 Z M 95.953125 147.246094 " fill-opacity="1" fill-rule="nonzero"/><path fill="#ffffff" d="M 96.300781 145.132812 C 96.300781 145.132812 101.222656 142.960938 101.222656 142.960938 C 101.222656 142.960938 101.988281 142.726562 101.929688 143.078125 C 101.871094 143.429688 101.460938 143.726562 101.460938 143.726562 C 101.460938 143.726562 96.148438 146.289062 96.148438 146.289062 C 96.148438 146.289062 96.300781 145.132812 96.300781 145.132812 Z M 96.300781 145.132812 " fill-opacity="1" fill-rule="nonzero"/><path fill="#36ab9c" d="M 76.742188 151.132812 C 76.742188 151.132812 78.683594 150.3125 78.683594 150.3125 C 78.683594 150.3125 81.449219 155.78125 79.941406 157.902344 C 79.941406 157.902344 78.523438 158.492188 78.523438 158.492188 C 78.523438 158.492188 78.222656 153.023438 76.742188 151.132812 Z M 76.742188 151.132812 " fill-opacity="1" fill-rule="nonzero"/><path fill="#36ab9c" d="M 76.742188 151.132812 C 76.742188 151.132812 78.683594 150.3125 78.683594 150.3125 C 78.683594 150.3125 81.449219 155.78125 79.941406 157.902344 C 79.941406 157.902344 78.523438 158.492188 78.523438 158.492188 C 78.523438 158.492188 78.222656 153.023438 76.742188 151.132812 Z M 76.742188 151.132812 " fill-opacity="1" fill-rule="nonzero"/><path fill="#26285d" d="M 77.183594 150.957031 C 77.183594 150.957031 67.609375 154.492188 67.609375 154.492188 C 67.609375 154.492188 67.453125 160.832031 70.324219 161.539062 C 72.785156 162.148438 75.550781 160.578125 79.164062 158.777344 C 79.164062 158.777344 79.871094 154.007812 77.183594 150.957031 Z M 77.183594 150.957031 " fill-opacity="1" fill-rule="nonzero"/><path fill="#ffffff" d="M 65.855469 261.746094 C 65.855469 261.746094 66.871094 269.445312 66.871094 269.445312 C 66.871094 269.445312 70.1875 267.964844 70.1875 267.964844 C 70.1875 267.964844 69.945312 261.597656 69.945312 261.597656 C 69.945312 261.597656 65.855469 261.746094 65.855469 261.746094 Z M 65.855469 261.746094 " fill-opacity="1" fill-rule="nonzero"/><path fill="#36ab9c" d="M 66.667969 269.332031 C 66.667969 269.332031 66.554688 266.960938 66.554688 266.960938 C 66.554688 266.960938 70.148438 266.960938 70.148438 266.960938 C 70.148438 266.960938 70.347656 269.148438 70.347656 269.148438 C 70.347656 269.148438 66.667969 269.332031 66.667969 269.332031 Z M 66.667969 269.332031 " fill-opacity="1" fill-rule="nonzero"/><path fill="#36ab9c" d="M 68.917969 273.222656 C 67.570312 273.183594 66.785156 271.902344 66.785156 271.902344 C 66.785156 271.902344 66.386719 270.421875 66.457031 269.703125 C 66.527344 268.984375 66.941406 269.175781 66.941406 269.175781 C 66.941406 269.175781 70.699219 269.148438 70.699219 269.148438 C 70.699219 269.148438 75.152344 270.089844 76.660156 271.445312 C 77.382812 272.09375 77.222656 273.144531 77.222656 273.144531 C 77.222656 273.144531 68.917969 273.222656 68.917969 273.222656 Z M 68.917969 273.222656 " fill-opacity="1" fill-rule="nonzero"/><path fill="#ffffff" d="M 39.839844 261.746094 C 39.839844 261.746094 40.039062 269.445312 40.039062 269.445312 C 40.039062 269.445312 43.511719 267.964844 43.511719 267.964844 C 43.511719 267.964844 43.945312 261.597656 43.945312 261.597656 C 43.945312 261.597656 39.839844 261.746094 39.839844 261.746094 Z M 39.839844 261.746094 " fill-opacity="1" fill-rule="nonzero"/><path fill="#36ab9c" d="M 40.035156 269.296875 C 40.035156 269.296875 39.984375 266.960938 39.984375 266.960938 C 39.984375 266.960938 43.582031 266.960938 43.582031 266.960938 C 43.582031 266.960938 43.546875 269.148438 43.546875 269.148438 C 43.546875 269.148438 40.035156 269.296875 40.035156 269.296875 Z M 40.035156 269.296875 " fill-opacity="1" fill-rule="nonzero"/><path fill="#36ab9c" d="M 41.683594 273.222656 C 40.34375 273.183594 39.691406 271.902344 39.691406 271.902344 C 39.691406 271.902344 39.449219 270.421875 39.597656 269.703125 C 39.746094 268.984375 40.140625 269.175781 40.140625 269.175781 C 40.140625 269.175781 43.898438 269.148438 43.898438 269.148438 C 43.898438 269.148438 48.25 270.089844 49.613281 271.445312 C 50.265625 272.09375 49.996094 273.144531 49.996094 273.144531 C 49.996094 273.144531 41.683594 273.222656 41.683594 273.222656 Z M 41.683594 273.222656 " fill-opacity="1" fill-rule="nonzero"/><path fill="#36ab9c" d="M 43.710938 178.425781 C 43.710938 178.425781 37.574219 263.589844 37.574219 263.589844 C 37.574219 263.589844 38.792969 265.015625 41.582031 265.242188 C 44.214844 265.457031 45.976562 264.492188 45.976562 264.492188 C 45.976562 264.492188 54.703125 211.371094 54.703125 211.371094 C 54.703125 211.371094 60.738281 184.566406 60.738281 184.566406 C 60.738281 184.566406 43.710938 178.425781 43.710938 178.425781 Z M 43.710938 178.425781 " fill-opacity="1" fill-rule="nonzero"/><path fill="#36ab9c" d="M 67.464844 178.199219 C 67.464844 178.199219 72.785156 263.117188 72.785156 263.117188 C 72.785156 263.117188 71.621094 264.855469 68.472656 264.578125 C 65.917969 264.347656 64.289062 263.546875 64.289062 263.546875 C 64.289062 263.546875 57.664062 210.339844 57.664062 210.339844 C 57.664062 210.339844 52.882812 183.644531 52.882812 183.644531 C 52.882812 183.644531 67.464844 178.199219 67.464844 178.199219 Z M 67.464844 178.199219 " fill-opacity="1" fill-rule="nonzero"/><path fill="#36ab9c" d="M 44.148438 174.15625 C 44.148438 174.15625 40.421875 201.214844 57 200.800781 C 71.515625 200.4375 67.355469 176.175781 67.355469 176.175781 C 67.355469 176.175781 44.148438 174.15625 44.148438 174.15625 Z M 44.148438 174.15625 " fill-opacity="1" fill-rule="nonzero"/><path fill="#26285d" d="M 66.667969 180 C 66.667969 180 44.332031 180 44.332031 180 C 44.332031 180 44.332031 178 44.332031 178 C 44.332031 178 66.667969 178 66.667969 178 C 66.667969 178 66.667969 180 66.667969 180 Z M 66.667969 180 " fill-opacity="1" fill-rule="nonzero"/><path fill="#36ab9c" d="M 47 182 C 47 182 45.332031 182 45.332031 182 C 45.332031 182 45.332031 177.332031 45.332031 177.332031 C 45.332031 177.332031 47 177.332031 47 177.332031 C 47 177.332031 47 182 47 182 Z M 47 182 " fill-opacity="1" fill-rule="nonzero"/><path fill="#36ab9c" d="M 53 182 C 53 182 51.332031 182 51.332031 182 C 51.332031 182 51.332031 177.332031 51.332031 177.332031 C 51.332031 177.332031 53 177.332031 53 177.332031 C 53 177.332031 53 182 53 182 Z M 53 182 " fill-opacity="1" fill-rule="nonzero"/><path fill="#36ab9c" d="M 59.667969 182 C 59.667969 182 58 182 58 182 C 58 182 58 177.332031 58 177.332031 C 58 177.332031 59.667969 177.332031 59.667969 177.332031 C 59.667969 177.332031 59.667969 182 59.667969 182 Z M 59.667969 182 " fill-opacity="1" fill-rule="nonzero"/><path fill="#36ab9c" d="M 65 182 C 65 182 63.332031 182 63.332031 182 C 63.332031 182 63.332031 177.332031 63.332031 177.332031 C 63.332031 177.332031 65 177.332031 65 177.332031 C 65 177.332031 65 182 65 182 Z M 65 182 " fill-opacity="1" fill-rule="nonzero"/><path fill="#26285d" d="M 43.710938 177.332031 C 43.710938 177.332031 44.039062 132.34375 53.347656 131.3125 C 53.347656 131.3125 60.328125 132.332031 60.328125 132.332031 C 60.328125 132.332031 67.660156 134.332031 66.066406 151.859375 C 65.484375 158.277344 68.808594 166.59375 67.464844 177.332031 C 67.464844 177.332031 43.710938 177.332031 43.710938 177.332031 Z M 43.710938 177.332031 " fill-opacity="1" fill-rule="nonzero"/><path fill="#36ab9c" d="M 52.996094 131.667969 C 52.996094 131.667969 53.8125 128.871094 53.8125 128.871094 C 53.8125 128.871094 61.140625 130.386719 61.140625 130.386719 C 61.140625 130.386719 60.664062 133.667969 60.664062 133.667969 C 60.664062 133.667969 54.765625 132.679688 52.996094 131.667969 Z M 52.996094 131.667969 " fill-opacity="1" fill-rule="nonzero"/><path fill="#e9b858" d="M 85.269531 115.617188 C 85.269531 115.617188 84.238281 193.945312 84.238281 193.945312 C 84.238281 193.945312 108.734375 194.269531 108.734375 194.269531 C 108.84375 186.078125 115.570312 179.523438 123.761719 179.632812 C 131.953125 179.738281 138.089844 186.46875 137.984375 194.660156 C 137.984375 194.660156 162.5625 194.976562 162.5625 194.976562 C 162.5625 194.976562 162.886719 170.472656 162.886719 170.472656 C 162.996094 170.476562 163.109375 170.484375 163.21875 170.484375 C 171.410156 170.59375 178.140625 164.039062 178.246094 155.847656 C 178.355469 147.65625 171.800781 140.925781 163.609375 140.820312 C 163.5 140.820312 163.386719 140.824219 163.277344 140.824219 C 163.277344 140.824219 163.59375 116.652344 163.59375 116.652344 C 163.59375 116.652344 85.269531 115.617188 85.269531 115.617188 Z M 85.269531 115.617188 " fill-opacity="1" fill-rule="nonzero"/><path fill="#ffffff" d="M 82.355469 138.679688 C 82.355469 138.679688 85.886719 138.277344 85.886719 138.277344 C 85.886719 138.277344 89.734375 136.121094 89.734375 136.121094 C 89.734375 136.121094 92.367188 135.578125 92.367188 135.578125 C 92.367188 135.578125 93.8125 139 93.8125 139 C 93.8125 139 91.339844 140.058594 90.480469 140.234375 C 89.535156 140.425781 87.367188 140.988281 87.367188 140.988281 C 87.367188 140.988281 83.996094 142.328125 83.996094 142.328125 C 83.996094 142.328125 79.773438 139.578125 82.355469 138.679688 Z M 82.355469 138.679688 " fill-opacity="1" fill-rule="nonzero"/><path fill="#ffffff" d="M 87.890625 137.453125 C 87.890625 137.453125 90.164062 135.082031 90.164062 135.082031 C 90.164062 135.082031 92.914062 134.429688 92.914062 134.429688 C 92.914062 134.429688 92.984375 135.226562 91.496094 135.601562 C 91.496094 135.601562 90.742188 137.035156 90.742188 137.035156 C 90.742188 137.035156 87.890625 137.453125 87.890625 137.453125 Z M 87.890625 137.453125 " fill-opacity="1" fill-rule="nonzero"/><path fill="#ffffff" d="M 91.523438 135.832031 C 91.523438 135.832031 96.214844 134.480469 96.214844 134.480469 C 96.214844 134.480469 97.003906 134.332031 96.90625 134.675781 C 96.804688 135.019531 96.363281 135.265625 96.363281 135.265625 C 96.363281 135.265625 91.234375 136.964844 91.234375 136.964844 C 91.234375 136.964844 91.523438 135.832031 91.523438 135.832031 Z M 91.523438 135.832031 " fill-opacity="1" fill-rule="nonzero"/><path fill="#ffffff" d="M 91.941406 137.621094 C 91.941406 137.621094 96.632812 136.273438 96.632812 136.273438 C 96.632812 136.273438 97.421875 136.125 97.324219 136.46875 C 97.222656 136.8125 96.78125 137.058594 96.78125 137.058594 C 96.78125 137.058594 91.652344 138.753906 91.652344 138.753906 C 91.652344 138.753906 91.941406 137.621094 91.941406 137.621094 Z M 91.941406 137.621094 " fill-opacity="1" fill-rule="nonzero"/><path fill="#ffffff" d="M 91.425781 138.777344 C 91.425781 138.777344 96.121094 137.425781 96.121094 137.425781 C 96.121094 137.425781 96.90625 137.277344 96.808594 137.621094 C 96.710938 137.964844 96.269531 138.210938 96.269531 138.210938 C 96.269531 138.210938 91.140625 139.910156 91.140625 139.910156 C 91.140625 139.910156 91.425781 138.777344 91.425781 138.777344 Z M 91.425781 138.777344 " fill-opacity="1" fill-rule="nonzero"/><path fill="#ffffff" d="M 92.011719 136.714844 C 92.011719 136.714844 97.148438 135.117188 97.148438 135.117188 C 97.148438 135.117188 97.933594 134.972656 97.835938 135.316406 C 97.738281 135.660156 97.296875 135.902344 97.296875 135.902344 C 97.296875 135.902344 91.726562 137.847656 91.726562 137.847656 C 91.726562 137.847656 92.011719 136.714844 92.011719 136.714844 Z M 92.011719 136.714844 " fill-opacity="1" fill-rule="nonzero"/><path fill="#26285d" d="M 54.269531 142.480469 C 61.347656 149.875 71.675781 147.898438 75.257812 147.398438 C 78.597656 146.929688 78.417969 141.417969 78.417969 141.417969 C 78.417969 141.417969 60.660156 133.664062 60.660156 133.664062 C 60.660156 133.664062 52.871094 141.019531 54.269531 142.480469 Z M 54.269531 142.480469 " fill-opacity="1" fill-rule="nonzero"/><path fill="#ffffff" d="M 76.179688 140.136719 C 76.179688 140.136719 82.328125 138.660156 82.328125 138.660156 C 82.328125 138.660156 84.996094 141.992188 84.996094 141.992188 C 84.996094 141.992188 76.996094 145.328125 76.996094 145.328125 C 76.996094 145.328125 76.179688 140.136719 76.179688 140.136719 Z M 76.179688 140.136719 " fill-opacity="1" fill-rule="nonzero"/><path fill="#26285d" d="M 79.996094 137.992188 C 79.996094 137.992188 70.089844 140.441406 70.089844 140.441406 C 70.089844 140.441406 65.894531 146.722656 68.671875 147.75 C 71.046875 148.628906 77.300781 147.371094 81.09375 145.988281 C 81.09375 145.988281 82.328125 141.328125 79.996094 137.992188 Z M 79.996094 137.992188 " fill-opacity="1" fill-rule="nonzero"/><path fill="#36ab9c" d="M 79.996094 137.992188 C 79.996094 137.992188 81.996094 137.328125 81.996094 137.328125 C 81.996094 137.328125 84.332031 142.992188 82.664062 144.992188 C 82.664062 144.992188 81.203125 145.472656 81.203125 145.472656 C 81.203125 145.472656 81.328125 139.992188 79.996094 137.992188 Z M 79.996094 137.992188 " fill-opacity="1" fill-rule="nonzero"/><path fill="#ffffff" d="M 287.09375 138.300781 C 285.542969 149.164062 281.074219 162.089844 281.074219 162.089844 C 281.074219 162.089844 275.210938 161.96875 275.210938 161.96875 C 275.210938 161.96875 279.816406 136.492188 279.816406 136.492188 C 279.816406 136.492188 281.96875 133.613281 284 133.925781 C 286.847656 134.363281 287.210938 137.484375 287.09375 138.300781 Z M 287.09375 138.300781 " fill-opacity="1" fill-rule="nonzero"/><path fill="#ffffff" d="M 262.535156 151.996094 C 262.535156 151.996094 259.074219 151.039062 259.074219 151.039062 C 259.074219 151.039062 255.296875 148.761719 255.296875 148.761719 C 255.296875 148.761719 252.683594 148.128906 252.683594 148.128906 C 252.683594 148.128906 251.125 151.503906 251.125 151.503906 C 251.125 151.503906 253.5625 152.644531 254.417969 152.84375 C 255.355469 153.066406 258.148438 153.519531 258.148438 153.519531 C 258.148438 153.519531 263.59375 155.722656 263.59375 155.722656 C 263.59375 155.722656 265.089844 152.980469 262.535156 151.996094 Z M 262.535156 151.996094 " fill-opacity="1" fill-rule="nonzero"/><path fill="#ffffff" d="M 257.097656 150.152344 C 257.097656 150.152344 254.902344 147.707031 254.902344 147.707031 C 254.902344 147.707031 252.175781 146.96875 252.175781 146.96875 C 252.175781 146.96875 252.078125 147.761719 253.554688 148.183594 C 253.554688 148.183594 254.261719 149.640625 254.261719 149.640625 C 254.261719 149.640625 257.097656 150.152344 257.097656 150.152344 Z M 257.097656 150.152344 " fill-opacity="1" fill-rule="nonzero"/><path fill="#ffffff" d="M 253.523438 148.410156 C 253.523438 148.410156 248.871094 146.910156 248.871094 146.910156 C 248.871094 146.910156 248.09375 146.738281 248.179688 147.082031 C 248.265625 147.429688 248.699219 147.6875 248.699219 147.6875 C 248.699219 147.6875 253.769531 149.554688 253.769531 149.554688 C 253.769531 149.554688 253.523438 148.410156 253.523438 148.410156 Z M 253.523438 148.410156 " fill-opacity="1" fill-rule="nonzero"/><path fill="#ffffff" d="M 253.046875 150.1875 C 253.046875 150.1875 248.394531 148.6875 248.394531 148.6875 C 248.394531 148.6875 247.617188 148.511719 247.703125 148.859375 C 247.789062 149.207031 248.222656 149.464844 248.222656 149.464844 C 248.222656 149.464844 253.292969 151.328125 253.292969 151.328125 C 253.292969 151.328125 253.046875 150.1875 253.046875 150.1875 Z M 253.046875 150.1875 " fill-opacity="1" fill-rule="nonzero"/><path fill="#ffffff" d="M 253.523438 151.359375 C 253.523438 151.359375 248.871094 149.855469 248.871094 149.855469 C 248.871094 149.855469 248.09375 149.683594 248.179688 150.03125 C 248.265625 150.375 248.699219 150.636719 248.699219 150.636719 C 248.699219 150.636719 253.769531 152.5 253.769531 152.5 C 253.769531 152.5 253.523438 151.359375 253.523438 151.359375 Z M 253.523438 151.359375 " fill-opacity="1" fill-rule="nonzero"/><path fill="#ffffff" d="M 253 149.277344 C 253 149.277344 247.917969 147.515625 247.917969 147.515625 C 247.917969 147.515625 247.140625 147.34375 247.226562 147.691406 C 247.3125 148.035156 247.746094 148.296875 247.746094 148.296875 C 247.746094 148.296875 253.25 150.417969 253.25 150.417969 C 253.25 150.417969 253 149.277344 253 149.277344 Z M 253 149.277344 " fill-opacity="1" fill-rule="nonzero"/><path fill="#ffffff" d="M 279.460938 163.515625 C 277.058594 164.320312 274.945312 162.980469 271.195312 161.484375 C 264.046875 158.625 257.0625 153.25 257.0625 153.25 C 257.0625 153.25 258.449219 150.53125 258.449219 150.53125 C 258.449219 150.53125 281.445312 158.703125 281.445312 158.703125 C 281.445312 158.703125 282.265625 162.570312 279.460938 163.515625 Z M 279.460938 163.515625 " fill-opacity="1" fill-rule="nonzero"/><path fill="#ffffff" d="M 277.117188 120.597656 C 277.734375 124.304688 278.921875 128.375 280.117188 128.175781 C 283.824219 127.554688 290.097656 122.246094 289.480469 118.539062 C 288.863281 114.828125 286.417969 112.148438 282.710938 112.765625 C 279.003906 113.382812 276.496094 116.886719 277.117188 120.597656 Z M 277.117188 120.597656 " fill-opacity="1" fill-rule="nonzero"/><path fill="#ffffff" d="M 287.570312 120.195312 C 287.570312 120.195312 286.761719 129.382812 290.394531 129.324219 C 294.023438 129.265625 280.332031 137.335938 280.332031 137.335938 C 280.332031 137.335938 278.792969 138.523438 280.332031 135.667969 C 282.664062 131.332031 282.1875 127.886719 280.527344 123.125 C 276.082031 110.363281 287.570312 120.195312 287.570312 120.195312 Z M 287.570312 120.195312 " fill-opacity="1" fill-rule="nonzero"/><path fill="#26285d" d="M 285.957031 116.660156 C 285.957031 116.660156 287.539062 123.328125 287.539062 123.328125 C 287.539062 123.328125 291.351562 122.964844 289.425781 117.492188 C 287.503906 112.019531 285.957031 116.660156 285.957031 116.660156 Z M 285.957031 116.660156 " fill-opacity="1" fill-rule="nonzero"/><path fill="#26285d" d="M 282.523438 117.734375 C 282.523438 117.734375 284.238281 121.582031 282.546875 122.132812 C 282.546875 122.132812 286.480469 123.601562 285.097656 118.058594 C 283.714844 112.515625 282.523438 117.734375 282.523438 117.734375 Z M 282.523438 117.734375 " fill-opacity="1" fill-rule="nonzero"/><path fill="#26285d" d="M 288.554688 118.300781 C 290.679688 117.367188 289.738281 110.457031 282.785156 111.132812 C 277.90625 111.609375 275.175781 114.628906 275.589844 117.164062 C 275.898438 119.078125 278.769531 117.800781 282.421875 117.660156 C 285.066406 117.5625 287.011719 118.976562 288.554688 118.300781 Z M 288.554688 118.300781 " fill-opacity="1" fill-rule="nonzero"/><path fill="#26285d" d="M 289.160156 115.609375 C 289.160156 115.609375 295.574219 115.03125 295.328125 119.902344 C 295.085938 124.777344 298.738281 124.75 298.738281 124.75 C 298.738281 124.75 293.601562 125.863281 292.289062 120.859375 C 291.640625 118.398438 289.339844 118.109375 288.726562 117.414062 C 288.09375 116.695312 289.160156 115.609375 289.160156 115.609375 Z M 289.160156 115.609375 " fill-opacity="1" fill-rule="nonzero"/><path fill="#26285d" d="M 275.546875 116.550781 C 275.351562 117.570312 276.511719 119.726562 277.867188 119.992188 C 277.867188 119.992188 277.917969 117.015625 277.917969 117.015625 C 277.917969 117.015625 275.65625 115.984375 275.546875 116.550781 Z M 275.546875 116.550781 " fill-opacity="1" fill-rule="nonzero"/><path fill="#ffffff" d="M 277.5625 121.503906 C 277.5625 121.503906 277.347656 123.339844 276.601562 124.191406 C 276.601562 124.191406 278.378906 125.003906 278.378906 125.003906 C 278.378906 125.003906 277.5625 121.503906 277.5625 121.503906 Z M 277.5625 121.503906 " fill-opacity="1" fill-rule="nonzero"/><path fill="#26285d" d="M 277.429688 114.902344 C 277.429688 114.902344 276.679688 118.316406 280.09375 119.0625 C 283.507812 119.8125 283.796875 119.996094 283.796875 119.996094 C 283.796875 119.996094 285.507812 111.875 277.429688 114.902344 Z M 277.429688 114.902344 " fill-opacity="1" fill-rule="nonzero"/><path fill="#ffffff" d="M 285.917969 122.441406 C 285.917969 122.441406 285.097656 118.058594 285.097656 118.058594 C 285.097656 118.058594 287.453125 115.851562 287.621094 118.484375 C 287.792969 121.117188 285.917969 122.441406 285.917969 122.441406 Z M 285.917969 122.441406 " fill-opacity="1" fill-rule="nonzero"/><path fill="#ffffff" d="M 314.179688 268.886719 C 314.179688 268.886719 310.136719 268.886719 310.136719 268.886719 C 310.136719 268.886719 308.847656 255.492188 308.847656 255.492188 C 308.847656 255.492188 312.890625 255.492188 312.890625 255.492188 C 312.890625 255.492188 314.179688 268.886719 314.179688 268.886719 Z M 314.179688 268.886719 " fill-opacity="1" fill-rule="nonzero"/><path fill="#e9b858" d="M 312.992188 271.671875 C 314.332031 271.628906 314.808594 270.207031 314.808594 270.207031 C 314.808594 270.207031 314.855469 268.566406 314.609375 267.769531 C 314.363281 266.972656 313.996094 267.183594 313.996094 267.183594 C 313.996094 267.183594 310.234375 267.152344 310.234375 267.152344 C 310.234375 267.152344 306.007812 268.195312 304.824219 269.699219 C 304.257812 270.421875 304.671875 271.585938 304.671875 271.585938 C 304.671875 271.585938 312.992188 271.671875 312.992188 271.671875 Z M 312.992188 271.671875 " fill-opacity="1" fill-rule="nonzero"/><path fill="#ffffff" d="M 273.820312 268.886719 C 273.820312 268.886719 269.773438 268.886719 269.773438 268.886719 C 269.773438 268.886719 266.847656 255.492188 266.847656 255.492188 C 266.847656 255.492188 270.890625 255.492188 270.890625 255.492188 C 270.890625 255.492188 273.820312 268.886719 273.820312 268.886719 Z M 273.820312 268.886719 " fill-opacity="1" fill-rule="nonzero"/><path fill="#e9b858" d="M 272.972656 271.671875 C 274.304688 271.628906 274.609375 270.207031 274.609375 270.207031 C 274.609375 270.207031 274.453125 268.566406 274.113281 267.769531 C 273.769531 266.972656 273.425781 267.183594 273.425781 267.183594 C 273.425781 267.183594 269.660156 267.152344 269.660156 267.152344 C 269.660156 267.152344 265.5625 268.195312 264.5625 269.699219 C 264.085938 270.421875 264.640625 271.585938 264.640625 271.585938 C 264.640625 271.585938 272.972656 271.671875 272.972656 271.671875 Z M 272.972656 271.671875 " fill-opacity="1" fill-rule="nonzero"/><path fill="#e9b858" d="M 276.601562 171.167969 C 276.601562 171.167969 262.636719 220.011719 262.636719 220.011719 C 262.636719 220.011719 258.570312 263.660156 258.570312 263.660156 C 258.570312 263.660156 278.789062 263.660156 278.789062 263.660156 C 278.789062 263.660156 276.429688 223.527344 276.429688 223.527344 C 276.429688 223.527344 290.390625 180.472656 290.390625 180.472656 C 290.390625 180.472656 276.601562 171.167969 276.601562 171.167969 Z M 276.601562 171.167969 " fill-opacity="1" fill-rule="nonzero"/><path fill="#e9b858" d="M 302.617188 171.375 C 302.617188 171.375 309.011719 214.484375 309.011719 214.484375 C 309.011719 214.484375 322.609375 262.925781 322.609375 262.925781 C 322.609375 262.925781 302.441406 263.429688 302.441406 263.429688 C 302.441406 263.429688 296.332031 214.480469 296.332031 214.480469 C 296.332031 214.480469 288.449219 168.59375 288.449219 168.59375 C 288.449219 168.59375 302.617188 171.375 302.617188 171.375 Z M 302.617188 171.375 " fill-opacity="1" fill-rule="nonzero"/><path fill="#e9b858" d="M 276.824219 168.847656 C 276.824219 168.847656 270.707031 189.539062 287.945312 188.8125 C 305.886719 188.054688 304.625 186.539062 303.359375 170.617188 C 303.359375 170.617188 276.824219 168.847656 276.824219 168.847656 Z M 276.824219 168.847656 " fill-opacity="1" fill-rule="nonzero"/><path fill="#36ab9c" d="M 277 170.667969 C 277 170.667969 277 172 277 172 C 277 172 277.667969 174.332031 290.332031 174.332031 C 303 174.332031 302.863281 172.839844 302.863281 172.839844 C 302.863281 172.839844 302.863281 172 302.863281 172 C 302.863281 172 285 175.332031 277 170.667969 Z M 277 170.667969 " fill-opacity="1" fill-rule="nonzero"/><path fill="#36ab9c" d="M 280.3125 156.652344 C 280.808594 163.941406 274.957031 168.507812 277.023438 169.300781 C 287.691406 173.398438 303.3125 170.582031 303.3125 170.582031 C 303.3125 170.582031 302.292969 165.441406 298.476562 155.222656 C 295.261719 146.609375 299.574219 146.75 296.800781 136.09375 C 295.488281 131.046875 288.742188 127.785156 288.742188 127.785156 C 288.742188 127.785156 282.332031 135.667969 282.332031 135.667969 C 282.332031 135.667969 280.925781 137.742188 280.332031 137.335938 C 279.972656 137.089844 279.933594 136.464844 279.886719 136.683594 C 278.996094 140.667969 277.769531 144.558594 278.941406 148.128906 C 278.941406 148.128906 280.3125 156.652344 280.3125 156.652344 Z M 280.3125 156.652344 " fill-opacity="1" fill-rule="nonzero"/><path fill="#26285d" d="M 275.886719 118.511719 C 275.886719 118.511719 204.246094 86.828125 204.246094 86.828125 C 204.246094 86.828125 194.335938 109.234375 194.335938 109.234375 C 201.828125 112.546875 205.214844 121.308594 201.902344 128.800781 C 198.589844 136.292969 189.828125 139.679688 182.335938 136.367188 C 182.335938 136.367188 172.5625 158.46875 172.5625 158.46875 C 172.5625 158.46875 194.976562 168.378906 194.976562 168.378906 C 194.929688 168.480469 194.878906 168.578125 194.832031 168.683594 C 191.519531 176.171875 194.90625 184.933594 202.398438 188.246094 C 209.890625 191.5625 218.652344 188.171875 221.964844 180.679688 C 222.011719 180.578125 222.050781 180.476562 222.09375 180.371094 C 222.09375 180.371094 244.203125 190.152344 244.203125 190.152344 C 244.203125 190.152344 275.886719 118.511719 275.886719 118.511719 Z M 275.886719 118.511719 " fill-opacity="1" fill-rule="nonzero"/><path fill="#ffffff" d="M 294.421875 137.289062 C 292.871094 148.152344 288.398438 161.078125 288.398438 161.078125 C 288.398438 161.078125 282.535156 160.953125 282.535156 160.953125 C 282.535156 160.953125 287.144531 135.480469 287.144531 135.480469 C 287.144531 135.480469 289.296875 132.601562 291.328125 132.914062 C 294.175781 133.351562 294.539062 136.472656 294.421875 137.289062 Z M 294.421875 137.289062 " fill-opacity="1" fill-rule="nonzero"/><path fill="#ffffff" d="M 269.714844 150.628906 C 269.714844 150.628906 265.917969 149.578125 265.917969 149.578125 C 265.917969 149.578125 261.773438 147.078125 261.773438 147.078125 C 261.773438 147.078125 258.910156 146.390625 258.910156 146.390625 C 258.910156 146.390625 257.199219 150.089844 257.199219 150.089844 C 257.199219 150.089844 259.875 151.339844 260.8125 151.5625 C 261.839844 151.804688 264.902344 152.296875 264.902344 152.296875 C 264.902344 152.296875 270.878906 154.714844 270.878906 154.714844 C 270.878906 154.714844 272.515625 151.703125 269.714844 150.628906 Z M 269.714844 150.628906 " fill-opacity="1" fill-rule="nonzero"/><path fill="#ffffff" d="M 263.746094 148.605469 C 263.746094 148.605469 261.339844 145.921875 261.339844 145.921875 C 261.339844 145.921875 258.347656 145.113281 258.347656 145.113281 C 258.347656 145.113281 258.242188 145.984375 259.863281 146.449219 C 259.863281 146.449219 260.636719 148.046875 260.636719 148.046875 C 260.636719 148.046875 263.746094 148.605469 263.746094 148.605469 Z M 263.746094 148.605469 " fill-opacity="1" fill-rule="nonzero"/><path fill="#ffffff" d="M 259.828125 146.695312 C 259.828125 146.695312 254.726562 145.050781 254.726562 145.050781 C 254.726562 145.050781 253.871094 144.863281 253.964844 145.242188 C 254.0625 145.621094 254.535156 145.90625 254.535156 145.90625 C 254.535156 145.90625 260.097656 147.949219 260.097656 147.949219 C 260.097656 147.949219 259.828125 146.695312 259.828125 146.695312 Z M 259.828125 146.695312 " fill-opacity="1" fill-rule="nonzero"/><path fill="#ffffff" d="M 259.304688 148.644531 C 259.304688 148.644531 254.203125 147 254.203125 147 C 254.203125 147 253.347656 146.808594 253.445312 147.191406 C 253.539062 147.570312 254.015625 147.855469 254.015625 147.855469 C 254.015625 147.855469 259.578125 149.898438 259.578125 149.898438 C 259.578125 149.898438 259.304688 148.644531 259.304688 148.644531 Z M 259.304688 148.644531 " fill-opacity="1" fill-rule="nonzero"/><path fill="#ffffff" d="M 259.828125 149.929688 C 259.828125 149.929688 254.726562 148.285156 254.726562 148.285156 C 254.726562 148.285156 253.871094 148.09375 253.96875 148.472656 C 254.0625 148.855469 254.539062 149.140625 254.539062 149.140625 C 254.539062 149.140625 260.101562 151.183594 260.101562 151.183594 C 260.101562 151.183594 259.828125 149.929688 259.828125 149.929688 Z M 259.828125 149.929688 " fill-opacity="1" fill-rule="nonzero"/><path fill="#ffffff" d="M 259.257812 147.648438 C 259.257812 147.648438 253.679688 145.71875 253.679688 145.71875 C 253.679688 145.71875 252.824219 145.527344 252.921875 145.90625 C 253.015625 146.289062 253.492188 146.574219 253.492188 146.574219 C 253.492188 146.574219 259.527344 148.898438 259.527344 148.898438 C 259.527344 148.898438 259.257812 147.648438 259.257812 147.648438 Z M 259.257812 147.648438 " fill-opacity="1" fill-rule="nonzero"/><path fill="#ffffff" d="M 286.789062 162.5 C 284.386719 163.308594 282.273438 161.96875 278.523438 160.472656 C 271.371094 157.617188 264.386719 152.246094 264.386719 152.246094 C 264.386719 152.246094 265.773438 149.523438 265.773438 149.523438 C 265.773438 149.523438 288.769531 157.6875 288.769531 157.6875 C 288.769531 157.6875 289.59375 161.558594 286.789062 162.5 Z M 286.789062 162.5 " fill-opacity="1" fill-rule="nonzero"/><path fill="#36ab9c" d="M 264.984375 153.734375 C 264.984375 153.734375 263.753906 153.226562 263.753906 153.226562 C 263.753906 153.226562 265.664062 148.605469 265.664062 148.605469 C 265.664062 148.605469 266.894531 149.113281 266.894531 149.113281 C 266.894531 149.113281 264.984375 153.734375 264.984375 153.734375 Z M 264.984375 153.734375 " fill-opacity="1" fill-rule="nonzero"/><path fill="#e9b858" d="M 240.5 271.167969 C 240.5 271.167969 240.5 192.832031 240.5 192.832031 C 240.5 192.832031 216 192.832031 216 192.832031 C 216 201.023438 209.359375 207.667969 201.167969 207.667969 C 192.976562 207.667969 186.332031 201.023438 186.332031 192.832031 C 186.332031 192.832031 162.167969 192.832031 162.167969 192.832031 C 162.167969 192.832031 162.167969 217.339844 162.167969 217.339844 C 162.054688 217.339844 161.945312 217.332031 161.832031 217.332031 C 153.640625 217.332031 147 223.976562 147 232.167969 C 147 240.359375 153.640625 247 161.832031 247 C 161.945312 247 162.054688 246.992188 162.167969 246.992188 C 162.167969 246.992188 162.167969 271.167969 162.167969 271.167969 C 162.167969 271.167969 240.5 271.167969 240.5 271.167969 Z M 240.5 271.167969 " fill-opacity="1" fill-rule="nonzero"/><path fill="#26285d" d="M 84.332031 271.667969 C 84.332031 271.667969 162.667969 271.667969 162.667969 271.667969 C 162.667969 271.667969 162.667969 247.167969 162.667969 247.167969 C 154.472656 247.167969 147.832031 240.523438 147.832031 232.332031 C 147.832031 224.140625 154.472656 217.5 162.667969 217.5 C 162.667969 217.5 162.667969 193.332031 162.667969 193.332031 C 162.667969 193.332031 138.160156 193.332031 138.160156 193.332031 C 138.160156 193.222656 138.167969 193.113281 138.167969 193 C 138.167969 184.808594 131.527344 178.167969 123.332031 178.167969 C 115.140625 178.167969 108.5 184.808594 108.5 193 C 108.5 193.113281 108.507812 193.222656 108.507812 193.332031 C 108.507812 193.332031 84.332031 193.332031 84.332031 193.332031 C 84.332031 193.332031 84.332031 271.667969 84.332031 271.667969 Z M 84.332031 271.667969 " fill-opacity="1" fill-rule="nonzero"/><path fill="#e9b858" d="M 289.660156 118.332031 C 289.476562 118.332031 289.328125 118.183594 289.328125 118 C 289.328125 118 289.328125 115.667969 289.328125 115.667969 C 289.328125 115.484375 289.476562 115.332031 289.660156 115.332031 C 289.847656 115.332031 289.996094 115.480469 289.996094 115.667969 C 289.996094 115.667969 289.996094 118 289.996094 118 C 289.996094 118.183594 289.847656 118.332031 289.660156 118.332031 Z M 289.660156 118.332031 " fill-opacity="1" fill-rule="nonzero"/><path fill="#e9b858" d="M 287.996094 120.832031 C 287.996094 121.292969 287.621094 121.667969 287.164062 121.667969 C 286.703125 121.667969 286.328125 121.292969 286.328125 120.832031 C 286.328125 120.375 286.703125 120 287.164062 120 C 287.621094 120 287.996094 120.371094 287.996094 120.832031 Z M 287.996094 120.832031 " fill-opacity="1" fill-rule="nonzero"/></svg>