<svg xmlns="http://www.w3.org/2000/svg" xmlns:xlink="http://www.w3.org/1999/xlink" width="480" zoomAndPan="magnify" viewBox="0 0 360 359.999987" height="480" preserveAspectRatio="xMidYMid meet" version="1.0"><defs><clipPath id="41936da769"><path d="M 17.488281 144 L 340 144 L 340 316 L 17.488281 316 Z M 17.488281 144 " clip-rule="nonzero"/></clipPath><clipPath id="0b25569fd9"><path d="M 139 43.488281 L 148 43.488281 L 148 53 L 139 53 Z M 139 43.488281 " clip-rule="nonzero"/></clipPath></defs><g clip-path="url(#41936da769)"><path fill="#908acd" d="M 302.503906 239.660156 L 297.226562 243.320312 L 229.675781 273.34375 L 139.238281 268.476562 L 62.136719 239.382812 L 54.417969 231.960938 C 54.628906 230.003906 55.074219 228.070312 55.714844 226.167969 L 55.921875 229.058594 L 57.90625 221.167969 C 71.402344 196.308594 120.785156 178.492188 179.363281 179.46875 C 247.9375 180.617188 303.101562 207.09375 302.578125 238.613281 C 302.570312 238.96875 302.523438 239.308594 302.503906 239.660156 Z M 339.386719 214.066406 L 330.714844 220.089844 C 326.613281 214.355469 321.035156 208.914062 314.226562 203.851562 C 312.289062 201.445312 283.015625 165.125 282.085938 165.414062 C 281.125 165.71875 195.277344 144.160156 193.675781 144.449219 C 192.074219 144.738281 89.363281 157.71875 89.363281 157.71875 L 52.8125 185.546875 L 53.375 193.355469 C 44.503906 198.285156 37.042969 203.78125 31.28125 209.726562 L 22.226562 201.015625 L 18.230469 210.851562 L 18.222656 233.835938 C 17.972656 235.429688 17.789062 237.023438 17.769531 238.644531 C 17.734375 240.625 17.921875 242.585938 18.222656 244.53125 L 18.222656 244.800781 L 18.265625 244.820312 C 24.457031 282.800781 92.941406 313.71875 177.089844 315.125 C 262.21875 316.550781 332.335938 287.261719 338.421875 248.863281 L 338.449219 248.855469 L 338.457031 248.664062 C 338.691406 247.128906 338.863281 245.582031 338.886719 244.015625 C 338.910156 242.632812 338.828125 241.261719 338.691406 239.894531 L 339.386719 214.066406 " fill-opacity="1" fill-rule="nonzero"/></g><path fill="#e7e6e6" d="M 177.914062 265.816406 C 109.339844 264.667969 54.171875 238.191406 54.699219 206.671875 C 55.226562 175.152344 111.246094 150.53125 179.824219 151.679688 C 248.398438 152.824219 303.566406 179.304688 303.039062 210.824219 C 302.515625 242.34375 246.496094 266.964844 177.914062 265.816406 Z M 180.023438 139.742188 C 91.347656 138.265625 18.910156 170.09375 18.230469 210.851562 C 17.550781 251.609375 88.878906 285.851562 177.558594 287.335938 C 266.234375 288.816406 338.671875 256.976562 339.347656 216.222656 C 340.03125 175.46875 268.695312 141.226562 180.023438 139.742188 " fill-opacity="1" fill-rule="nonzero"/><path fill="#266d68" d="M 278.394531 272.75 L 277.933594 300.53125 C 277.933594 300.53125 337.285156 282.570312 338.828125 245.300781 L 339.320312 218.136719 L 285.695312 264.695312 L 278.394531 272.75 " fill-opacity="1" fill-rule="nonzero"/><path fill="#36ab9c" d="M 256.835938 254.203125 L 278.394531 272.75 C 278.394531 272.75 337.445312 254.183594 339.289062 217.722656 L 302.839844 213.660156 C 302.839844 213.660156 303.351562 235.148438 256.835938 254.203125 " fill-opacity="1" fill-rule="nonzero"/><path fill="#fab43d" d="M 272.304688 172.855469 L 272.335938 172.398438 L 290.023438 161.773438 C 290.023438 161.773438 342.140625 183.242188 339.289062 217.722656 L 302.839844 213.660156 C 302.839844 213.660156 290.21875 179.25 272.304688 172.855469 " fill-opacity="1" fill-rule="nonzero"/><path fill="#f7981a" d="M 270.417969 199.421875 L 272.335938 172.398438 C 272.335938 172.398438 304.722656 187.292969 302.839844 213.660156 C 302.839844 213.660156 302.285156 221.691406 298.9375 224.34375 C 298.9375 224.34375 293.929688 211.46875 270.417969 199.421875 " fill-opacity="1" fill-rule="nonzero"/><path fill="#2e3192" d="M 190.378906 152.859375 L 189.074219 151.992188 L 194.308594 140.269531 C 194.308594 140.269531 250.761719 142.722656 290.023438 161.773438 L 272.335938 172.398438 L 190.378906 152.859375 " fill-opacity="1" fill-rule="nonzero"/><path fill="#26285d" d="M 188.609375 179.765625 L 189.074219 151.992188 C 189.074219 151.992188 234.460938 152.390625 272.335938 172.398438 L 270.417969 199.421875 C 270.417969 199.421875 237.066406 182.097656 188.609375 179.765625 " fill-opacity="1" fill-rule="nonzero"/><path fill="#e66f64" d="M 177.441406 100.378906 C 177.441406 100.378906 177.054688 96.957031 177.785156 96.65625 C 178.519531 96.359375 179.011719 96.605469 179.011719 96.605469 C 179.011719 96.605469 178.867188 95.957031 179.308594 95.664062 C 179.742188 95.363281 181.023438 95.140625 182.113281 95.707031 C 183.207031 96.273438 183.554688 96.808594 183.914062 97.296875 C 184.277344 97.785156 183.421875 100.703125 180.511719 102.308594 C 177.601562 103.910156 177.441406 100.378906 177.441406 100.378906 " fill-opacity="1" fill-rule="nonzero"/><path fill="#bdbcbc" d="M 167.765625 116.183594 C 167.765625 116.183594 162.648438 116.957031 162.203125 112.425781 C 162.042969 110.78125 164.914062 107.410156 177.539062 99.230469 C 177.539062 99.230469 181.855469 100.4375 180.34375 102.601562 C 178.832031 104.765625 172.46875 113.476562 167.765625 116.183594 " fill-opacity="1" fill-rule="nonzero"/><path fill="#bdbcbc" d="M 164.425781 112.683594 C 163.570312 112.234375 166.863281 116.625 163.648438 113.082031 C 163.648438 113.082031 163.523438 114.207031 162.203125 112.425781 C 161.402344 109.160156 159.652344 103.925781 158.253906 101.328125 C 158.253906 101.328125 157.910156 96.1875 159.476562 93.425781 C 160.476562 91.671875 162.996094 90.148438 163.296875 91.023438 C 164.894531 95.722656 167.433594 103.511719 167.433594 103.515625 C 169.335938 107.378906 169.921875 113.128906 169.324219 114.90625 C 168.691406 116.804688 165.925781 113.457031 164.425781 112.683594 " fill-opacity="1" fill-rule="nonzero"/><path fill="#26285d" d="M 138.589844 195.726562 L 138.1875 207.386719 L 137.292969 208.886719 L 131.347656 208.886719 L 130.742188 206.964844 L 134.289062 192.722656 L 138.589844 195.726562 " fill-opacity="1" fill-rule="nonzero"/><path fill="#26285d" d="M 155.742188 173.75 C 157.433594 173.480469 159.011719 173.5625 160.507812 172.859375 C 159.800781 180.898438 158.097656 196.226562 158.804688 196.78125 C 160.058594 197.765625 153.984375 196.78125 153.984375 196.78125 C 153.875 190.175781 151.375 178.625 150.570312 173.433594 C 152.144531 173.617188 154.109375 174 155.742188 173.75 " fill-opacity="1" fill-rule="nonzero"/><path fill="#26285d" d="M 150.65625 170.984375 C 150.65625 170.984375 151.28125 169.304688 152.167969 167.957031 C 150.894531 155.617188 149.949219 126.9375 149.949219 126.9375 L 162.835938 123.953125 C 162.835938 123.953125 164.292969 153.203125 161.566406 168.371094 C 161.261719 169.59375 160.851562 172.125 160.3125 173.378906 C 159.761719 174.667969 152.339844 174.410156 150.570312 173.433594 C 150.570312 173.433594 150.570312 171.78125 150.65625 170.984375 " fill-opacity="1" fill-rule="nonzero"/><path fill="#2e3192" d="M 146.398438 173.609375 C 143.734375 181.144531 139.4375 192.621094 138.589844 195.726562 C 138.335938 196.664062 134.964844 198.050781 133.464844 195.4375 C 133.464844 195.4375 136.234375 179.925781 136.277344 168.269531 C 138.859375 170.414062 143.085938 173.132812 146.398438 173.609375 " fill-opacity="1" fill-rule="nonzero"/><path fill="#2e3192" d="M 152.683594 157.910156 C 150.570312 162.988281 147.449219 171.214844 146.410156 173.589844 C 145.5625 175.527344 138.273438 170 136.1875 168.566406 C 142.265625 150.488281 143.507812 125.65625 143.507812 125.65625 C 146.210938 123.863281 147.972656 125.105469 151.640625 125.148438 C 151.734375 126.597656 162.757812 124.546875 162.339844 125.976562 C 158.863281 137.714844 155.125 150.746094 152.683594 157.910156 " fill-opacity="1" fill-rule="nonzero"/><path fill="#bdbcbc" d="M 162.925781 90.855469 C 162.925781 90.855469 156.71875 89.144531 150.894531 88.078125 C 150.894531 88.078125 152.285156 88.441406 153.980469 89.824219 C 153.71875 90.542969 152.460938 94.078125 152.644531 94.847656 C 152.828125 95.617188 158.652344 105.886719 159.972656 108.300781 C 159.925781 121.902344 159.753906 119.425781 159.753906 119.425781 L 156.949219 127.332031 C 156.949219 127.332031 164.050781 126.921875 165.628906 124.285156 C 167.117188 121.804688 160.300781 121.921875 162.925781 90.855469 " fill-opacity="1" fill-rule="nonzero"/><path fill="#e66f64" d="M 145.25 81.347656 C 145.25 81.347656 146.792969 87.347656 147.011719 90.789062 C 147.011719 90.789062 151.316406 94.851562 153.664062 92.597656 C 153.664062 92.597656 152.988281 81.957031 154.902344 80.574219 C 156.816406 79.195312 145.25 81.347656 145.25 81.347656 " fill-opacity="1" fill-rule="nonzero"/><path fill="#bdbcbc" d="M 153.597656 86.15625 C 153.597656 86.15625 153.164062 88.546875 153.164062 88.65625 C 153.164062 88.769531 152.09375 92.550781 152.09375 92.550781 C 152.09375 92.550781 154.796875 92.449219 155.121094 92.132812 C 155.433594 91.816406 155.257812 88.394531 155.257812 88.394531 L 153.597656 86.15625 " fill-opacity="1" fill-rule="nonzero"/><path fill="#e0e0e0" d="M 163.222656 118.558594 L 159.980469 106.84375 C 159.507812 106.367188 159.046875 105.886719 158.59375 105.410156 L 152.5 93.632812 L 152.921875 89.578125 L 145.046875 85.949219 L 145.25 89.242188 L 144.648438 89.492188 L 136.507812 93.894531 L 135.296875 97.671875 L 142.195312 120.53125 C 142.195312 120.53125 142.195312 126.078125 142.195312 126.851562 C 142.195312 130.402344 160.710938 127.019531 160.710938 127.019531 C 167.707031 125.578125 163.222656 118.558594 163.222656 118.558594 " fill-opacity="1" fill-rule="nonzero"/><path fill="#26285d" d="M 155.078125 94.921875 C 155.078125 94.921875 164.09375 109.535156 164.101562 120.175781 C 164.101562 125.722656 161.183594 123.058594 160.710938 119.390625 C 160.683594 119.171875 160.933594 109.378906 153.210938 94.597656 L 155.078125 94.921875 " fill-opacity="1" fill-rule="nonzero"/><path fill="#26285d" d="M 154.882812 196.027344 C 154.882812 196.027344 154.027344 196.378906 154 196.652344 C 153.96875 196.929688 153.289062 200.574219 153.453125 201.238281 C 153.625 201.894531 162.546875 203.921875 162.546875 203.921875 C 162.546875 203.921875 168.824219 203.734375 169.46875 203.042969 C 170.113281 202.34375 169.890625 201.804688 169.5625 201.660156 C 159.703125 197.371094 158.132812 195.925781 158.132812 195.925781 L 154.882812 196.027344 " fill-opacity="1" fill-rule="nonzero"/><path fill="#f68c82" d="M 145.972656 85.824219 C 145.972656 85.824219 149.5625 90.835938 153.238281 86.351562 C 155.859375 83.15625 156.042969 74.15625 154.011719 72.164062 C 151.980469 70.175781 147.078125 68.808594 145.25 73.34375 C 143.824219 76.898438 143.828125 83.03125 145.972656 85.824219 " fill-opacity="1" fill-rule="nonzero"/><path fill="#2e3192" d="M 145.25 73.34375 C 144.5 75.207031 144.148438 77.78125 144.292969 80.207031 L 144.464844 80.367188 L 145.25 75.082031 L 149.828125 76.550781 L 154.195312 74.984375 L 155.121094 80.027344 L 155.300781 79.855469 C 155.589844 76.59375 155.148438 73.28125 154.011719 72.164062 C 151.980469 70.175781 147.078125 68.808594 145.25 73.34375 " fill-opacity="1" fill-rule="nonzero"/><path fill="#f68c82" d="M 155.460938 78.570312 C 156.039062 78.730469 156.339844 79.925781 156.128906 81.230469 C 155.917969 82.542969 155.273438 83.46875 154.695312 83.308594 C 154.113281 83.140625 153.816406 81.945312 154.023438 80.640625 C 154.234375 79.332031 154.878906 78.40625 155.460938 78.570312 " fill-opacity="1" fill-rule="nonzero"/><path fill="#f68c82" d="M 144.183594 79.039062 C 144.761719 78.84375 145.4375 79.734375 145.691406 81.027344 C 145.945312 82.320312 145.683594 83.53125 145.109375 83.730469 C 144.539062 83.929688 143.863281 83.039062 143.609375 81.742188 C 143.351562 80.449219 143.609375 79.238281 144.183594 79.039062 " fill-opacity="1" fill-rule="nonzero"/><path fill="#2e3192" d="M 155.191406 75.195312 C 155.191406 75.195312 155.539062 74.539062 155.386719 74.023438 C 155.234375 73.507812 156.039062 71.371094 154.828125 70.710938 C 153.617188 70.050781 152.226562 69.636719 151.417969 68.875 C 150.609375 68.117188 148.390625 67.351562 147.164062 68.207031 C 145.945312 69.066406 146.253906 69.570312 145.25 70.304688 C 144.25 71.039062 142.894531 70.765625 142.40625 71.722656 C 141.921875 72.675781 142.390625 73.859375 142.730469 74.496094 C 143.074219 75.132812 143.425781 75.390625 143.253906 76.003906 C 143.082031 76.617188 143.382812 77.101562 143.871094 77.46875 C 144.363281 77.828125 144.425781 78.351562 144.378906 78.722656 C 144.328125 79.089844 144.890625 74.632812 144.890625 74.632812 L 147.652344 74.90625 L 154.550781 74.734375 L 155.078125 75.171875 " fill-opacity="1" fill-rule="nonzero"/><path fill="#26285d" d="M 151.078125 91.722656 C 151.078125 91.722656 153.375 90.710938 154.484375 91.074219 C 155.597656 91.429688 155.304688 94.402344 155.304688 94.402344 L 155.078125 94.921875 L 153.699219 95.214844 L 152.738281 94.5625 L 151.078125 91.722656 " fill-opacity="1" fill-rule="nonzero"/><path fill="#ededed" d="M 152.921875 89.578125 L 152.398438 94.597656 L 144.648438 89.636719 L 145.046875 85.949219 L 152.921875 89.578125 " fill-opacity="1" fill-rule="nonzero"/><path fill="#bdbcbc" d="M 152.960938 89.457031 L 155.542969 93.78125 L 155.507812 88.769531 L 153.597656 86.15625 L 152.960938 89.457031 " fill-opacity="1" fill-rule="nonzero"/><g clip-path="url(#0b25569fd9)"><path fill="#f68c82" d="M 139.035156 50.832031 C 138.976562 50.664062 138.878906 46.199219 140.042969 44.828125 C 140.042969 44.828125 140.726562 44.367188 141.152344 44.558594 C 141.582031 44.753906 142.816406 44.113281 143.222656 43.984375 C 143.632812 43.863281 143.882812 43.527344 144.394531 43.910156 C 144.910156 44.296875 145.515625 44.234375 145.894531 44.382812 C 146.269531 44.53125 146.890625 45.050781 147.0625 45.4375 C 147.234375 45.820312 147.296875 46.839844 147.167969 47.121094 C 147.042969 47.398438 145.769531 49.59375 145.675781 49.675781 C 145.582031 49.75 143.992188 52.109375 143.796875 52.148438 C 143.605469 52.183594 139.035156 50.832031 139.035156 50.832031 " fill-opacity="1" fill-rule="nonzero"/></g><path fill="#f68c82" d="M 143.644531 51.984375 C 143.644531 51.984375 146.035156 51.460938 146.382812 50.410156 C 146.738281 49.359375 146.429688 47.425781 146.074219 47.234375 C 145.71875 47.042969 143.644531 51.984375 143.644531 51.984375 " fill-opacity="1" fill-rule="nonzero"/><path fill="#e0e0e0" d="M 134.972656 73.355469 C 134.570312 74.554688 134.570312 80.382812 134.414062 86.191406 C 134.28125 90.488281 134.347656 94.695312 135.046875 97.964844 C 135.046875 97.964844 135.929688 102.039062 139.273438 102.238281 C 144.800781 102.5625 146.054688 100.117188 145.707031 96.316406 C 145.546875 94.59375 145.167969 91.375 144.648438 87.933594 L 144.632812 87.835938 L 144.613281 87.671875 L 144.609375 87.671875 C 143.734375 81.972656 142.578125 75.734375 141.929688 74.613281 C 140.878906 72.800781 135.683594 71.253906 134.972656 73.355469 " fill-opacity="1" fill-rule="nonzero"/><path fill="#e0e0e0" d="M 142.691406 76.402344 C 142.691406 76.402344 134.847656 74.882812 134.761719 73.445312 C 134.679688 72.011719 135.394531 62.085938 138.925781 50.410156 C 138.925781 50.410156 144.214844 50.996094 143.9375 52.484375 C 142.566406 60.015625 144.453125 72.957031 142.691406 76.402344 " fill-opacity="1" fill-rule="nonzero"/><path fill="#ffffff" d="M 183.410156 141.433594 L 208.714844 131.875 L 213.726562 149.242188 L 189.335938 158.601562 L 183.410156 141.433594 " fill-opacity="1" fill-rule="nonzero"/><path fill="#f7981a" d="M 182.765625 143.105469 L 208.070312 133.546875 L 213.082031 150.917969 L 188.691406 160.277344 L 182.765625 143.105469 " fill-opacity="1" fill-rule="nonzero"/><path fill="#2e3192" d="M 218.363281 97.722656 C 218.363281 97.722656 218.601562 97.269531 218.742188 97.03125 C 218.882812 96.792969 218.882812 96.226562 218.933594 95.914062 C 218.980469 95.601562 219.265625 95.363281 219.457031 95.265625 C 219.648438 95.171875 219.410156 94.6875 219.457031 94.308594 C 219.503906 93.929688 220.050781 93.546875 220.066406 93.308594 C 220.078125 93.070312 220.289062 92.5 220.066406 92.261719 C 219.839844 92.023438 219.910156 89.921875 220.066406 89.777344 C 220.21875 89.636719 220.070312 88.871094 220.167969 88.730469 C 220.269531 88.585938 220.507812 88.109375 220.507812 88.109375 C 220.507812 88.109375 221.03125 87.726562 221.125 87.4375 C 221.222656 87.15625 221.316406 85.820312 221.316406 85.746094 C 221.316406 85.675781 221.890625 84.292969 221.316406 83.859375 C 220.746094 83.433594 220.507812 82.734375 220.507812 82.511719 C 220.507812 82.289062 220.414062 81.523438 220.414062 81.523438 C 220.414062 81.523438 219.601562 81.144531 219.601562 80.855469 C 219.601562 80.566406 218.839844 79.089844 218.648438 78.851562 C 218.457031 78.609375 218.5625 77.894531 217.84375 77.65625 C 217.121094 77.417969 216.644531 76.898438 216.644531 76.75 C 216.644531 76.609375 216.023438 76.179688 216.023438 76.179688 L 216.835938 76.179688 C 216.835938 76.179688 216.546875 75.320312 216.453125 75.175781 C 216.359375 75.035156 215.863281 74.226562 215.628906 74.078125 C 215.40625 73.9375 214.070312 73.125 214.070312 73.125 C 214.070312 73.125 213.164062 73.171875 212.78125 73.125 C 212.398438 73.078125 211.6875 72.410156 211.6875 72.410156 L 210.695312 72.601562 C 210.683594 72.648438 210.441406 72.457031 209.777344 72.410156 C 209.113281 72.363281 208.203125 72.027344 208.0625 72.125 C 207.917969 72.21875 207.003906 71.789062 207.03125 71.648438 C 207.0625 71.503906 206.203125 71.167969 205.773438 71.3125 C 205.34375 71.453125 204.691406 72.125 204.28125 71.789062 C 203.867188 71.453125 203.644531 71.148438 203.375 71.277344 C 203.105469 71.410156 201.671875 72.410156 201.625 72.550781 C 201.578125 72.695312 201.625 73.460938 201.625 73.460938 L 200.9375 74.269531 L 201.292969 74.796875 C 201.292969 74.796875 199.734375 74.984375 199.273438 74.9375 C 198.8125 74.890625 198.320312 75.339844 198.089844 75.589844 C 197.859375 75.84375 197.359375 76.367188 197.394531 76.65625 C 197.429688 76.941406 196.855469 77.503906 197 77.871094 C 197.144531 78.230469 197.40625 78.5625 197.394531 78.707031 C 197.382812 78.851562 196.714844 79.808594 196.714844 79.808594 C 196.714844 79.808594 195.785156 80.804688 196.175781 81.238281 C 196.570312 81.667969 196.570312 82.257812 196.378906 82.511719 C 196.1875 82.765625 195.664062 83.003906 195.855469 83.527344 C 196.046875 84.054688 195.964844 84.960938 195.816406 85.199219 C 195.664062 85.4375 195.042969 86.292969 195.140625 86.53125 C 195.238281 86.769531 195.1875 87.632812 195.140625 87.777344 C 195.09375 87.917969 194.617188 88.492188 194.566406 88.824219 C 194.519531 89.160156 194.089844 89.921875 194.566406 90.257812 C 195.042969 90.589844 194.902344 91.257812 194.804688 91.59375 C 194.710938 91.925781 194.855469 92.832031 195.140625 93.070312 C 195.425781 93.308594 195.761719 94.105469 195.761719 94.105469 C 195.761719 94.105469 195.828125 94.933594 196.175781 95.027344 C 196.523438 95.125 196.523438 95.65625 196.570312 95.914062 C 196.621094 96.171875 197.238281 96.328125 197.394531 96.53125 C 197.550781 96.734375 198.761719 97.222656 198.90625 97.222656 C 199.050781 97.222656 218.363281 97.722656 218.363281 97.722656 " fill-opacity="1" fill-rule="nonzero"/><path fill="#f7981a" d="M 203.375 96.648438 L 204.582031 94.105469 L 208.761719 94.175781 L 209.246094 94.671875 L 210.695312 97.210938 L 208.746094 97.722656 L 203.375 96.648438 " fill-opacity="1" fill-rule="nonzero"/><path fill="#26285d" d="M 217.136719 193.707031 C 217.136719 193.707031 218.882812 195.507812 219.859375 198.070312 C 220.433594 199.574219 219.371094 206.359375 219.371094 206.359375 L 218.390625 206.359375 L 218.425781 201.285156 L 217.136719 193.707031 " fill-opacity="1" fill-rule="nonzero"/><path fill="#26285d" d="M 212.667969 194.515625 C 212.667969 194.515625 213.640625 198.367188 213.050781 203.023438 C 213.050781 203.023438 212.625 206.035156 210.542969 205.964844 C 208.460938 205.894531 208.4375 204.929688 208.4375 204.929688 C 208.4375 204.929688 209.753906 197.285156 210.039062 196.261719 C 210.320312 195.238281 212.667969 194.515625 212.667969 194.515625 " fill-opacity="1" fill-rule="nonzero"/><path fill="#793620" d="M 208.746094 190.070312 C 208.710938 189.875 211.796875 190.425781 211.796875 190.425781 C 211.796875 190.425781 213.136719 195.707031 212.390625 200.421875 C 212.390625 200.421875 210.734375 204.453125 209.855469 200.484375 C 209.667969 199.617188 209.820312 198.289062 209.867188 198.09375 C 209.910156 197.902344 209.121094 192.355469 208.746094 190.070312 " fill-opacity="1" fill-rule="nonzero"/><path fill="#793620" d="M 213.660156 173.726562 C 212.542969 166.785156 208.992188 162.621094 208.992188 162.621094 C 208.992188 162.621094 199.785156 155.761719 201.75 162.066406 C 204.878906 172.105469 208.054688 190.859375 209.8125 195.167969 C 210.019531 195.675781 210.203125 195.980469 210.367188 196.050781 C 210.441406 196.082031 210.523438 196.066406 210.605469 196.027344 C 211.019531 195.960938 211.871094 195.730469 212.191406 194.925781 C 212.390625 194.429688 212.621094 191.75 212.808594 189.011719 C 213.703125 184 214.269531 177.511719 213.660156 173.726562 " fill-opacity="1" fill-rule="nonzero"/><path fill="#793620" d="M 197.925781 135.511719 C 197.925781 135.511719 197.691406 137.371094 196.507812 138.953125 C 195.328125 140.53125 195.1875 140.589844 194.304688 141.515625 C 193.695312 142.160156 193.769531 141.269531 193.746094 141.21875 C 193.738281 141.1875 193.707031 141.332031 193.503906 141.175781 C 193.382812 141.070312 193.1875 140.699219 193.152344 140.480469 C 193.128906 140.347656 193.058594 139.863281 193.023438 139.652344 C 192.859375 138.648438 192.53125 136.773438 194.925781 133.8125 C 194.925781 133.8125 197.820312 133.164062 197.925781 135.511719 " fill-opacity="1" fill-rule="nonzero"/><path fill="#793620" d="M 197.789062 135.511719 C 197.789062 135.511719 199.109375 137.199219 198.628906 139.433594 C 198.144531 141.667969 197.808594 139.867188 196.609375 134.773438 L 197.789062 135.511719 " fill-opacity="1" fill-rule="nonzero"/><path fill="#f7981a" d="M 197.613281 96.53125 C 196.984375 96.746094 195.828125 104.445312 194.160156 114.753906 C 193.550781 118.515625 195.398438 117.308594 197.621094 117.039062 C 201.242188 116.589844 202.5625 104.046875 202.015625 100.292969 C 201.46875 96.539062 197.613281 96.53125 197.613281 96.53125 " fill-opacity="1" fill-rule="nonzero"/><path fill="#f7981a" d="M 197.667969 134.773438 C 197.195312 134.648438 196.445312 134.089844 195.855469 134.207031 C 194.757812 134.417969 194.238281 134.707031 193.804688 135.449219 C 192.5625 118.753906 194.160156 116.734375 194.160156 116.734375 C 194.160156 116.734375 199.566406 112.058594 199.140625 117.070312 C 198.265625 127.328125 197.144531 132.757812 197.667969 134.773438 " fill-opacity="1" fill-rule="nonzero"/><path fill="#793620" d="M 199.523438 97.496094 C 199.523438 97.496094 205.183594 96.144531 205.574219 96.144531 C 205.960938 96.144531 208.253906 96.464844 208.390625 96.464844 C 208.535156 96.464844 217.84375 98.523438 217.84375 98.523438 C 217.84375 98.523438 216.015625 105.53125 215.554688 105.890625 C 215.097656 106.253906 208.039062 112.5 207.644531 112.4375 C 207.242188 112.371094 200.554688 103.484375 200.554688 103.484375 L 199.523438 97.496094 " fill-opacity="1" fill-rule="nonzero"/><path fill="#793620" d="M 200.230469 124.230469 L 209.066406 127.765625 C 209.066406 127.765625 214.496094 150.820312 210.921875 163.644531 C 209.546875 168.574219 204.507812 163.265625 202.5625 164.84375 C 202.230469 165.105469 197.980469 152.039062 197.644531 139.40625 C 197.386719 129.722656 199.46875 126.785156 200.230469 124.230469 " fill-opacity="1" fill-rule="nonzero"/><path fill="#26285d" d="M 218.882812 196.265625 C 218.882812 196.265625 220.175781 201.515625 216.949219 205.035156 C 216.949219 205.035156 215.929688 206.832031 213.867188 206.578125 C 211.800781 206.320312 212.574219 205.492188 212.574219 205.492188 C 212.574219 205.492188 214.566406 197.996094 214.941406 197.003906 C 215.316406 196.007812 218.882812 196.265625 218.882812 196.265625 " fill-opacity="1" fill-rule="nonzero"/><path fill="#793620" d="M 204.28125 91.304688 C 204.238281 91.097656 209.441406 91.488281 209.441406 91.488281 C 209.441406 91.488281 208.78125 95.578125 209.289062 96.882812 C 209.289062 96.882812 206.320312 98.902344 204.617188 97.394531 C 204.617188 97.394531 204.390625 91.878906 204.28125 91.304688 " fill-opacity="1" fill-rule="nonzero"/><path fill="#9d4b36" d="M 203.820312 91.6875 C 203.820312 91.6875 206.296875 95.371094 209.472656 91.976562 C 211.890625 89.398438 210.289062 80.152344 208.3125 78.738281 C 206.34375 77.320312 202.164062 77.691406 201.214844 81.761719 C 200.46875 84.945312 201.644531 89.605469 203.820312 91.6875 " fill-opacity="1" fill-rule="nonzero"/><path fill="#fab43d" d="M 217.84375 96.746094 C 219.269531 98.382812 224.359375 106.253906 228.460938 109.941406 C 231.289062 112.492188 230.519531 113.425781 228.332031 113.90625 C 224.773438 114.695312 216.484375 108.269531 215.753906 104.542969 C 215.023438 100.820312 217.84375 96.746094 217.84375 96.746094 " fill-opacity="1" fill-rule="nonzero"/><path fill="#9d4b36" d="M 211.203125 161.0625 C 211.203125 161.0625 211.882812 154.554688 215.636719 160.351562 C 222.125 170.367188 216.363281 198.886719 215.863281 200.242188 C 214.851562 202.976562 212.757812 182.269531 209.042969 164.011719 C 208.886719 163.25 211.203125 161.0625 211.203125 161.0625 " fill-opacity="1" fill-rule="nonzero"/><path fill="#ffffff" d="M 201.636719 106.015625 C 201.535156 106.738281 201.394531 107.480469 201.246094 108.230469 C 201.523438 108.28125 202.433594 111.875 202.628906 111.890625 C 205.429688 112.125 207.121094 107.960938 209.46875 106.40625 C 210.214844 105.917969 211.15625 105.390625 212.171875 104.960938 C 212.140625 102.648438 212.21875 100.359375 212.476562 98.078125 C 211.445312 99.34375 214.503906 100.011719 213.007812 100.078125 L 205.785156 101.464844 C 204.71875 101.5 200.796875 100.714844 199.273438 99.144531 C 199.609375 101.605469 201.992188 103.359375 201.636719 106.015625 " fill-opacity="1" fill-rule="nonzero"/><path fill="#9d4b36" d="M 214.207031 190.71875 C 214.1875 190.523438 217.136719 193.707031 217.136719 193.707031 C 217.136719 193.707031 220.03125 197.558594 216.914062 201.355469 C 216.914062 201.355469 214.886719 203.523438 214.199219 201.949219 C 213.839844 201.132812 214.144531 199.679688 214.207031 199.492188 C 214.261719 199.3125 214.375 193.035156 214.207031 190.71875 " fill-opacity="1" fill-rule="nonzero"/><path fill="#9d4b36" d="M 218.925781 129.921875 C 218.253906 129.296875 216.570312 128.78125 216.144531 128.113281 C 216.078125 128.234375 216.019531 128.367188 215.949219 128.488281 C 213.410156 132.902344 208.714844 134.472656 203.710938 135.273438 L 204.207031 135.300781 C 204.984375 136.25 207.820312 135.761719 208.277344 137.382812 C 213.082031 151.324219 205.894531 155.167969 209.179688 164.253906 C 210.527344 167.96875 215.75 164.382812 215.75 164.382812 C 220.628906 147.023438 218.925781 129.921875 218.925781 129.921875 " fill-opacity="1" fill-rule="nonzero"/><path fill="#2e3192" d="M 216.839844 128.753906 C 212.511719 130.988281 209.519531 133.660156 204.648438 133.078125 C 202.28125 132.796875 199.921875 132.410156 197.644531 131.6875 L 197.558594 131.988281 C 197.558594 131.988281 201.117188 133.878906 202.714844 135.601562 C 204.851562 137.914062 208.941406 144.125 209.816406 141.507812 C 213.75 129.785156 219.175781 130.601562 219.222656 130.203125 C 219.355469 128.996094 216.933594 128.707031 216.839844 128.753906 " fill-opacity="1" fill-rule="nonzero"/><path fill="#ededed" d="M 219.226562 126.757812 C 219.226562 126.757812 211.664062 138.746094 195.140625 129.574219 C 195.140625 129.574219 193.769531 130.527344 194.269531 140.425781 C 194.769531 150.328125 201.769531 164.152344 201.769531 164.152344 C 201.769531 164.152344 215.039062 165.464844 216.632812 162.265625 C 216.984375 161.566406 223.394531 137.292969 219.226562 126.757812 " fill-opacity="1" fill-rule="nonzero"/><path fill="#fab43d" d="M 209.179688 94.597656 C 209.179688 94.597656 212.140625 105.621094 203.710938 109.28125 C 203.710938 109.28125 202.257812 113.40625 202.160156 113.484375 C 202.066406 113.566406 200.46875 118.441406 200.46875 118.441406 L 195.140625 129.574219 C 195.140625 129.574219 196.964844 132.722656 201.707031 133.125 C 216.25 134.347656 220.066406 128.113281 220.066406 128.113281 L 216.398438 120.253906 L 217.984375 108.207031 L 217.398438 103.410156 L 217.84375 96.746094 L 210.308594 96.144531 L 209.179688 94.597656 " fill-opacity="1" fill-rule="nonzero"/><path fill="#fab43d" d="M 204.476562 94.308594 C 204.476562 94.308594 201.082031 102.808594 203.710938 109.28125 C 203.710938 109.28125 203.484375 116.882812 203.273438 117.070312 C 203.0625 117.269531 200.46875 118.441406 200.46875 118.441406 C 200.46875 118.441406 196.453125 103.335938 197.597656 96.394531 C 197.597656 96.394531 197.664062 95.914062 203.273438 96.144531 L 204.476562 94.308594 " fill-opacity="1" fill-rule="nonzero"/><path fill="#fab43d" d="M 224.917969 110.566406 C 220.371094 115.625 216.464844 117.414062 213.140625 118.492188 C 213.652344 120.011719 213.378906 121.722656 212.109375 122.609375 C 220.121094 123.929688 230.71875 113.21875 230.71875 113.21875 C 230.71875 113.21875 228.28125 106.824219 224.917969 110.566406 " fill-opacity="1" fill-rule="nonzero"/><path fill="#9d4b36" d="M 213.140625 118.492188 C 213.140625 118.492188 211.523438 117.546875 209.542969 117.527344 C 207.574219 117.507812 207.445312 117.582031 206.167969 117.726562 C 205.289062 117.820312 206.039062 118.300781 206.070312 118.34375 C 206.089844 118.375 205.953125 118.308594 205.964844 118.566406 C 205.96875 118.730469 206.144531 119.105469 206.296875 119.265625 C 206.390625 119.371094 206.726562 119.71875 206.875 119.875 C 207.574219 120.613281 208.484375 122.800781 212.289062 122.699219 C 212.289062 122.699219 214.9375 120 213.140625 118.492188 " fill-opacity="1" fill-rule="nonzero"/><path fill="#9d4b36" d="M 213.457031 118.828125 C 213.457031 118.828125 212.070312 117.039062 209.867188 116.433594 C 207.65625 115.828125 209.101562 116.957031 213.054688 120.382812 L 213.457031 118.828125 " fill-opacity="1" fill-rule="nonzero"/><path fill="#fab43d" d="M 199.523438 101.554688 C 199.585938 101.746094 196.175781 110.398438 196.175781 110.398438 L 199.847656 115.464844 C 199.847656 115.464844 200.613281 111.449219 200.90625 110.398438 C 201.199219 109.347656 199.523438 101.554688 199.523438 101.554688 " fill-opacity="1" fill-rule="nonzero"/><path fill="#ffffff" d="M 203.089844 111.445312 C 203.089844 111.445312 203.5625 116.660156 204.882812 119.460938 L 202.628906 133.191406 L 201.707031 133.125 L 204.28125 119.523438 C 204.28125 119.523438 202.890625 114.84375 203.089844 111.445312 " fill-opacity="1" fill-rule="nonzero"/><path fill="#2e3192" d="M 204.882812 80.078125 C 204.882812 80.078125 204.703125 81.15625 205.484375 81.476562 C 206.265625 81.796875 206.050781 81.984375 206.351562 82.304688 C 206.648438 82.621094 207.03125 82.9375 207.03125 82.9375 C 207.03125 82.9375 207.476562 83.449219 207.601562 84.023438 C 207.726562 84.597656 208.679688 84.53125 208.679688 84.53125 C 208.679688 84.53125 208.496094 85.230469 208.679688 85.550781 C 208.875 85.867188 209.824219 86.5 209.824219 86.5 L 209.824219 87.835938 L 210.332031 88.347656 C 210.332031 88.347656 210.167969 89.152344 210.332031 89.367188 C 210.5 89.578125 210.476562 89.238281 210.695312 89.046875 C 210.90625 88.855469 211.925781 86.011719 211.925781 85.746094 C 211.925781 85.480469 211.542969 84.148438 211.542969 83.703125 C 211.542969 83.257812 212.304688 83.449219 211.542969 81.351562 C 210.78125 79.25 213.320312 78.929688 210.207031 77.597656 C 207.089844 76.257812 205.058594 75.175781 203.722656 75.75 C 202.390625 76.324219 201.203125 76.828125 200.9375 77.152344 C 200.671875 77.46875 200.28125 77.871094 200.28125 77.871094 C 200.28125 77.871094 204.722656 78.929688 204.476562 78.929688 C 204.230469 78.929688 204.882812 80.078125 204.882812 80.078125 " fill-opacity="1" fill-rule="nonzero"/><path fill="#26285d" d="M 232.699219 240.257812 C 232.699219 240.5 233.585938 246.640625 232.699219 247.210938 C 231.808594 247.773438 215.089844 248.179688 212.585938 247.933594 C 210.078125 247.695312 210.242188 245.347656 210.242188 245.347656 L 224.710938 239.96875 L 232.699219 240.257812 " fill-opacity="1" fill-rule="nonzero"/><path fill="#26285d" d="M 268.285156 239.480469 C 268.285156 239.480469 269.992188 245.3125 268.285156 246.210938 C 266.585938 247.109375 263.449219 246.839844 261.921875 246.210938 C 260.402344 245.582031 256.097656 241.839844 255.46875 240.347656 C 254.84375 238.851562 256.1875 236.523438 263 238.40625 C 269.8125 240.289062 268.285156 239.480469 268.285156 239.480469 " fill-opacity="1" fill-rule="nonzero"/><path fill="#26285d" d="M 233.710938 163.203125 C 233.710938 163.203125 248.664062 202.945312 250.117188 203.589844 C 251.574219 204.238281 259.8125 206.664062 260.617188 203.589844 C 261.429688 200.519531 253.738281 160.808594 253.738281 160.808594 L 233.710938 163.203125 " fill-opacity="1" fill-rule="nonzero"/><path fill="#e66f64" d="M 253.035156 153.816406 C 253.035156 153.816406 249.957031 153.277344 248.488281 151.183594 C 248.488281 151.183594 248.25 151.070312 248.050781 151.40625 C 247.84375 151.746094 248.074219 153.503906 248.671875 154.160156 C 249.261719 154.816406 250.878906 154.917969 250.878906 154.917969 L 253.035156 153.816406 " fill-opacity="1" fill-rule="nonzero"/><path fill="#26285d" d="M 258.476562 144.183594 C 258.476562 144.183594 254.886719 150.941406 252.558594 154.933594 C 252.558594 154.933594 249.332031 159.566406 252.898438 160.476562 C 256.46875 161.382812 263.625 150.78125 266.382812 144.988281 C 267.949219 141.703125 259.042969 143.667969 258.476562 144.183594 " fill-opacity="1" fill-rule="nonzero"/><path fill="#26285d" d="M 258.351562 118.929688 C 258.351562 118.929688 262.332031 122.324219 266.472656 144.699219 C 266.472656 144.699219 266.578125 146.515625 260.734375 145.386719 C 257.179688 144.703125 258.46875 143.164062 253.503906 131.035156 C 253.503906 131.035156 256.128906 117.289062 258.351562 118.929688 " fill-opacity="1" fill-rule="nonzero"/><path fill="#e66f64" d="M 246.671875 155.117188 C 245.617188 156.242188 245.914062 157.789062 246.65625 159.054688 C 247.84375 159.433594 249.734375 161 253.601562 157.765625 C 253.601562 157.765625 254.546875 155.164062 251.445312 153.683594 C 251.445312 153.683594 252.320312 153.011719 249.839844 153.65625 C 249.128906 153.839844 248.261719 153.914062 247.375 153.953125 C 247.222656 154.378906 247 154.777344 246.671875 155.117188 " fill-opacity="1" fill-rule="nonzero"/><path fill="#f68c82" d="M 241.03125 95.648438 C 241.03125 95.648438 239.355469 95.8125 237.902344 98.125 C 236.441406 100.4375 235.871094 106.320312 235.90625 109.03125 C 235.941406 111.742188 237.222656 111.890625 237.222656 111.890625 L 239.605469 111.730469 L 239.496094 117.722656 C 239.496094 117.722656 246.011719 119.132812 247.675781 118.027344 L 246.851562 112.5 C 246.851562 112.5 253.847656 93.257812 241.03125 95.648438 " fill-opacity="1" fill-rule="nonzero"/><path fill="#2e3192" d="M 240.171875 103.621094 C 240.171875 103.621094 242.105469 102.382812 241.421875 104.746094 C 240.738281 107.101562 242.363281 106.996094 241.707031 109.117188 C 241.050781 111.238281 241.425781 112.039062 241.855469 112.316406 C 244.046875 113.722656 243.601562 111.390625 245.207031 111.578125 C 246.808594 111.769531 245.414062 113.40625 246.683594 113 C 247.953125 112.59375 249.058594 112.648438 249.867188 111.503906 C 250.519531 110.582031 250.039062 110.289062 250.414062 109.421875 C 250.945312 108.183594 251.65625 107.144531 251.496094 105.742188 C 251.335938 104.339844 252.046875 102.6875 252.144531 101.152344 C 252.246094 99.617188 251.113281 96.105469 250.359375 95.609375 C 249.601562 95.113281 248.339844 95.058594 247.496094 94.632812 C 246.648438 94.210938 244.398438 93.101562 242.007812 93.304688 C 239.453125 93.523438 239.195312 95.757812 238.003906 95.730469 C 236.183594 95.683594 235.667969 96.4375 235.433594 97.710938 C 235.203125 98.984375 236.078125 100.164062 236.488281 99.566406 C 237.945312 97.410156 238.273438 98.089844 238.273438 98.089844 C 238.273438 98.089844 240.167969 100.195312 240.253906 100.859375 C 240.339844 101.523438 240.171875 103.621094 240.171875 103.621094 " fill-opacity="1" fill-rule="nonzero"/><path fill="#ededed" d="M 238.574219 115.667969 L 238.757812 113.085938 C 238.757812 113.085938 244.050781 111.464844 247.496094 113.144531 L 247.734375 116.109375 L 238.574219 115.667969 " fill-opacity="1" fill-rule="nonzero"/><path fill="#2e3192" d="M 247.222656 114.980469 C 247.222656 114.980469 256.433594 118.214844 257.894531 118.964844 C 259.347656 119.71875 257.601562 133.863281 256.765625 134.988281 C 255.933594 136.121094 255.359375 151.585938 255.359375 151.585938 L 256.457031 171.371094 C 256.457031 171.371094 235.992188 177.863281 226.6875 170.898438 L 228.625 139.863281 L 227.347656 118.796875 L 242.105469 114.617188 C 243.441406 114.710938 247.222656 114.980469 247.222656 114.980469 " fill-opacity="1" fill-rule="nonzero"/><path fill="#2e3192" d="M 230.640625 161.828125 C 230.15625 161.902344 228.757812 162.933594 228.757812 162.933594 C 228.757812 162.933594 224.304688 197.578125 226.539062 204.597656 C 226.539062 204.597656 232.738281 208.605469 236.476562 202.761719 C 240.214844 196.917969 247.492188 178.675781 247.976562 178.285156 C 248.460938 177.894531 253.738281 162.933594 253.738281 162.933594 L 230.640625 161.828125 " fill-opacity="1" fill-rule="nonzero"/><path fill="#e66f64" d="M 223.769531 154.332031 C 223.769531 154.332031 226.902344 154.25 228.664062 152.402344 C 228.664062 152.402344 228.90625 152.320312 229.066406 152.683594 C 229.214844 153.046875 228.726562 154.757812 228.042969 155.316406 C 227.363281 155.875 225.75 155.738281 225.75 155.738281 L 223.769531 154.332031 " fill-opacity="1" fill-rule="nonzero"/><path fill="#2e3192" d="M 220.816406 142.523438 C 220.816406 142.523438 222.171875 146.757812 224.792969 154.304688 C 224.792969 154.304688 228.191406 159.179688 224.507812 159.292969 C 220.828125 159.410156 215.5 151.496094 213.222656 146.058594 C 211.816406 142.699219 211.871094 138.121094 220.816406 142.523438 " fill-opacity="1" fill-rule="nonzero"/><path fill="#2e3192" d="M 227.507812 118.578125 C 227.507812 118.578125 222.292969 120.351562 213.421875 141.304688 C 213.421875 141.304688 212.921875 143.050781 218.871094 143.214844 C 222.488281 143.3125 221.566406 141.535156 229.035156 130.769531 C 229.035156 130.769531 230.027344 117.457031 227.507812 118.578125 " fill-opacity="1" fill-rule="nonzero"/><path fill="#e66f64" d="M 229.566406 156.335938 C 230.445312 157.601562 229.957031 161.28125 229.039062 162.425781 C 227.808594 162.625 225.363281 162.167969 222.011719 158.398438 C 222.011719 158.398438 223.496094 157.183594 224.054688 155.375 C 224.054688 155.375 224.292969 153.421875 226.648438 154.421875 C 227.324219 154.710938 227.835938 155.394531 228.703125 155.5625 C 229.242188 155.601562 229.292969 155.949219 229.566406 156.335938 " fill-opacity="1" fill-rule="nonzero"/><path fill="#2e3192" d="M 225.648438 198.59375 C 225.648438 198.59375 224.179688 234.808594 224.019531 240.464844 C 223.941406 243.027344 231.570312 246.613281 232.332031 241.054688 C 233.101562 235.496094 239.679688 209.859375 237.210938 201.539062 C 237.210938 201.539062 231.929688 199.949219 230.867188 200.296875 C 229.804688 200.648438 225.648438 198.59375 225.648438 198.59375 " fill-opacity="1" fill-rule="nonzero"/><path fill="#26285d" d="M 252.128906 200.886719 C 251.160156 201.53125 249.566406 202.804688 249.566406 202.804688 C 249.566406 202.804688 260.351562 238.722656 261.359375 240.667969 C 262.359375 242.605469 267.800781 243.253906 268.609375 239.695312 C 269.417969 236.140625 265.601562 206.261719 259.636719 199.46875 L 252.128906 200.886719 " fill-opacity="1" fill-rule="nonzero"/><path fill="#26285d" d="M 119.445312 234.199219 C 119.445312 234.425781 118.601562 240.25 119.445312 240.789062 C 120.289062 241.324219 136.132812 241.707031 138.507812 241.476562 C 140.882812 241.246094 140.730469 239.023438 140.730469 239.023438 L 127.015625 233.925781 L 119.445312 234.199219 " fill-opacity="1" fill-rule="nonzero"/><path fill="#26285d" d="M 85.71875 233.464844 C 85.71875 233.464844 84.105469 238.992188 85.71875 239.84375 C 87.332031 240.6875 90.304688 240.4375 91.75 239.84375 C 93.195312 239.242188 97.273438 235.699219 97.867188 234.28125 C 98.460938 232.871094 97.183594 230.65625 90.730469 232.445312 C 84.273438 234.230469 85.71875 233.464844 85.71875 233.464844 " fill-opacity="1" fill-rule="nonzero"/><path fill="#26285d" d="M 118.488281 161.171875 C 118.488281 161.171875 104.316406 198.835938 102.941406 199.453125 C 101.558594 200.0625 93.75 202.359375 92.984375 199.453125 C 92.21875 196.539062 99.507812 158.902344 99.507812 158.902344 L 118.488281 161.171875 " fill-opacity="1" fill-rule="nonzero"/><path fill="#2e3192" d="M 121.398438 159.871094 C 121.855469 159.941406 123.183594 160.921875 123.183594 160.921875 C 123.183594 160.921875 127.398438 193.753906 125.289062 200.410156 C 125.289062 200.410156 119.40625 204.203125 115.867188 198.664062 C 112.328125 193.128906 105.429688 175.839844 104.96875 175.46875 C 104.507812 175.097656 99.507812 160.921875 99.507812 160.921875 L 121.398438 159.871094 " fill-opacity="1" fill-rule="nonzero"/><path fill="#2e3192" d="M 126.128906 194.714844 C 126.128906 194.714844 127.519531 229.03125 127.675781 234.394531 C 127.746094 236.820312 120.515625 240.222656 119.789062 234.953125 C 119.066406 229.691406 112.832031 205.382812 115.171875 197.503906 C 115.171875 197.503906 120.175781 196 121.183594 196.328125 C 122.191406 196.65625 126.128906 194.714844 126.128906 194.714844 " fill-opacity="1" fill-rule="nonzero"/><path fill="#26285d" d="M 101.03125 196.890625 C 101.953125 197.5 103.460938 198.703125 103.460938 198.703125 C 103.460938 198.703125 93.234375 232.75 92.289062 234.589844 C 91.339844 236.425781 86.179688 237.039062 85.414062 233.667969 C 84.652344 230.296875 88.261719 201.976562 93.917969 195.542969 L 101.03125 196.890625 " fill-opacity="1" fill-rule="nonzero"/><path fill="#e66f64" d="M 100.171875 152.277344 C 100.171875 152.277344 103.089844 151.765625 104.484375 149.785156 C 104.484375 149.785156 104.703125 149.679688 104.898438 149.996094 C 105.089844 150.3125 104.875 151.984375 104.3125 152.605469 C 103.746094 153.222656 102.21875 153.320312 102.21875 153.320312 L 100.171875 152.277344 " fill-opacity="1" fill-rule="nonzero"/><path fill="#e66f64" d="M 95.148438 142.722656 C 95.148438 142.722656 94.363281 148.726562 101.234375 152.8125 C 101.234375 152.8125 105.121094 155.929688 101.742188 156.785156 C 98.355469 157.644531 92.179688 153.921875 89.574219 148.433594 C 88.085938 145.320312 86.960938 135.113281 95.148438 142.722656 " fill-opacity="1" fill-rule="nonzero"/><path fill="#bdbcbc" d="M 96.441406 119.199219 C 96.441406 119.199219 91.984375 121.90625 88.050781 143.109375 C 88.050781 143.109375 87.949219 144.828125 93.484375 143.765625 C 96.855469 143.117188 95.636719 141.65625 100.347656 130.164062 C 100.347656 130.164062 98.546875 117.648438 96.441406 119.199219 " fill-opacity="1" fill-rule="nonzero"/><path fill="#bdbcbc" d="M 95.894531 141.472656 C 95.894531 141.472656 96.648438 143.398438 95.710938 144.28125 C 94.777344 145.164062 88.046875 146.703125 87.554688 146.167969 C 87.058594 145.632812 85.441406 140.808594 87.601562 139.78125 C 89.761719 138.757812 95.894531 141.472656 95.894531 141.472656 " fill-opacity="1" fill-rule="nonzero"/><path fill="#e66f64" d="M 106.203125 153.511719 C 107.203125 154.574219 106.921875 156.042969 106.21875 157.242188 C 105.09375 157.605469 103.304688 159.085938 99.636719 156.019531 C 99.636719 156.019531 98.742188 153.554688 101.675781 152.152344 C 101.675781 152.152344 100.847656 151.515625 103.195312 152.125 C 103.875 152.300781 104.699219 152.371094 105.539062 152.410156 C 105.679688 152.808594 105.894531 153.1875 106.203125 153.511719 " fill-opacity="1" fill-rule="nonzero"/><path fill="#f68c82" d="M 114.511719 94.851562 C 114.511719 94.851562 116.085938 95.074219 117.359375 97.332031 C 118.636719 99.589844 118.910156 105.183594 118.753906 107.746094 C 118.597656 110.308594 117.382812 110.394531 117.382812 110.394531 L 114.835938 111.171875 L 114.96875 115.816406 C 114.96875 115.816406 110.085938 116.644531 108.554688 115.523438 L 108.238281 110.535156 C 108.238281 110.535156 102.480469 92.003906 114.511719 94.851562 " fill-opacity="1" fill-rule="nonzero"/><path fill="#2e3192" d="M 114.65625 102.4375 C 114.65625 102.4375 113.25 101.121094 113.421875 103.445312 C 113.722656 107.546875 114.601562 108.097656 115.132812 110.140625 C 115.65625 112.171875 115.636719 112.199219 113.5 113.421875 C 111.355469 114.648438 111.402344 114.109375 109.871094 114.210938 C 108.347656 114.324219 107.589844 113.363281 106.40625 112.921875 C 105.226562 112.476562 104.765625 112.203125 104.050781 111.085938 C 103.472656 110.183594 103.277344 109.238281 102.964844 108.398438 C 102.515625 107.199219 102.582031 104.832031 102.796875 103.511719 C 103.011719 102.191406 102.511719 101.054688 102.484375 99.597656 C 102.460938 98.140625 104.039062 95.488281 104.777344 95.054688 C 105.515625 94.617188 107.3125 93.964844 108.128906 93.597656 C 108.953125 93.234375 111.957031 91.257812 113.742188 92.667969 C 115.53125 94.082031 116.632812 93.507812 117.761719 93.53125 C 119.488281 93.574219 120.328125 95.742188 120.488281 96.960938 C 120.652344 98.179688 119.855469 98.851562 119.265625 99.199219 C 118.675781 99.546875 117.308594 98.640625 117.308594 98.640625 C 117.308594 98.640625 114.8125 99.199219 114.703125 99.824219 C 114.59375 100.445312 114.65625 102.4375 114.65625 102.4375 " fill-opacity="1" fill-rule="nonzero"/><path fill="#ededed" d="M 108.511719 114.800781 C 108.511719 114.800781 97.578125 118.015625 96.191406 118.726562 C 94.8125 119.4375 96.460938 132.839844 97.253906 133.910156 C 98.042969 134.984375 99.347656 144.105469 99.347656 144.105469 L 98.332031 161.28125 C 98.332031 161.28125 116.246094 166.621094 125.070312 160.03125 L 123.925781 138.542969 L 125.144531 118.578125 L 112.460938 114.527344 L 108.511719 114.800781 " fill-opacity="1" fill-rule="nonzero"/><path fill="#f68c82" d="M 128.8125 152.046875 C 128.8125 152.046875 125.84375 151.96875 124.175781 150.214844 C 124.175781 150.214844 123.941406 150.140625 123.796875 150.480469 C 123.652344 150.828125 124.113281 152.449219 124.761719 152.980469 C 125.410156 153.511719 126.9375 153.378906 126.9375 153.378906 L 128.8125 152.046875 " fill-opacity="1" fill-rule="nonzero"/><path fill="#f68c82" d="M 131.324219 141.066406 C 131.324219 141.066406 133.375 146.757812 127.546875 152.230469 C 127.546875 152.230469 124.417969 156.113281 127.90625 156.222656 C 131.394531 156.328125 136.621094 151.363281 137.992188 145.4375 C 138.765625 142.078125 137.675781 131.867188 131.324219 141.066406 " fill-opacity="1" fill-rule="nonzero"/><path fill="#ededed" d="M 124.992188 118.371094 C 124.992188 118.371094 129.929688 120.050781 138.328125 139.910156 C 138.328125 139.910156 138.800781 141.566406 133.164062 141.726562 C 129.734375 141.816406 130.609375 140.125 123.539062 129.921875 C 123.539062 129.921875 122.597656 117.308594 124.992188 118.371094 " fill-opacity="1" fill-rule="nonzero"/><path fill="#ededed" d="M 130.324219 140.011719 C 130.324219 140.011719 130 142.046875 131.101562 142.707031 C 132.210938 143.367188 139.113281 143.421875 139.476562 142.792969 C 139.84375 142.167969 140.382812 137.101562 138.050781 136.566406 C 135.722656 136.035156 130.324219 140.011719 130.324219 140.011719 " fill-opacity="1" fill-rule="nonzero"/><path fill="#f68c82" d="M 123.023438 154.15625 C 122.191406 155.355469 122.683594 156.757812 123.554688 157.84375 C 124.722656 158.039062 126.710938 159.242188 129.886719 155.671875 C 129.886719 155.671875 130.40625 153.097656 127.300781 152.144531 C 127.300781 152.144531 128.023438 151.394531 125.789062 152.339844 C 125.148438 152.613281 124.34375 152.804688 123.519531 152.964844 C 123.4375 153.382812 123.28125 153.789062 123.023438 154.15625 " fill-opacity="1" fill-rule="nonzero"/><path fill="#26285d" d="M 163.75 252.199219 C 163.730469 252.394531 161.257812 254.339844 162.949219 256.53125 C 163.476562 257.21875 172.816406 257.640625 174.878906 257.644531 C 176.941406 257.652344 183.175781 254.816406 179.0625 253.699219 C 174.949219 252.585938 169.773438 252.789062 169.773438 252.789062 L 163.75 252.199219 " fill-opacity="1" fill-rule="nonzero"/><path fill="#e66f64" d="M 158.007812 210.347656 C 158.007812 210.347656 151.695312 216.484375 151.183594 231.074219 C 151.183594 231.074219 150.792969 246.179688 152.183594 246.179688 C 154.554688 246.179688 165.757812 213.589844 165.660156 211.21875 C 165.558594 208.847656 158.007812 210.347656 158.007812 210.347656 " fill-opacity="1" fill-rule="nonzero"/><path fill="#f68c82" d="M 166.140625 211.324219 C 166.140625 211.324219 161.070312 220.632812 161.925781 235.136719 C 161.925781 235.136719 163.875 251.773438 165.40625 251.550781 C 168.003906 251.175781 175.152344 213.65625 174.667969 211.074219 C 174.183594 208.488281 166.140625 211.324219 166.140625 211.324219 " fill-opacity="1" fill-rule="nonzero"/><path fill="#e66f64" d="M 168.367188 201.261719 C 168.367188 201.261719 166.394531 212.445312 163.535156 212.941406 C 160.679688 213.4375 157.90625 211.640625 157.394531 211.222656 C 157.328125 211.167969 157.21875 210.941406 157.085938 210.589844 C 156.234375 208.367188 154.324219 201.261719 154.324219 201.261719 L 168.367188 201.261719 " fill-opacity="1" fill-rule="nonzero"/><path fill="#f68c82" d="M 159.34375 189.683594 C 159.34375 189.683594 163.976562 208.226562 166.09375 212.054688 C 168.101562 215.675781 174.691406 211.332031 174.691406 211.332031 C 174.691406 211.332031 175.523438 199.332031 175.601562 198.644531 C 175.675781 197.960938 159.34375 189.683594 159.34375 189.683594 " fill-opacity="1" fill-rule="nonzero"/><path fill="#f68c82" d="M 167.765625 107.820312 C 167.765625 107.820312 169.496094 108.066406 170.890625 110.535156 C 172.28125 113.007812 172.585938 119.132812 172.414062 121.945312 C 172.246094 124.75 170.910156 124.847656 170.910156 124.847656 L 168.117188 125.695312 L 168.265625 130.78125 C 168.265625 130.78125 162.917969 131.691406 161.246094 130.460938 L 160.898438 125.003906 C 160.898438 125.003906 154.59375 104.703125 167.765625 107.820312 " fill-opacity="1" fill-rule="nonzero"/><path fill="#f7981a" d="M 153.464844 130.566406 C 154.9375 127.660156 155.492188 136.363281 155.492188 136.363281 C 156.257812 145.722656 156.257812 150.304688 154.953125 158.746094 C 156.300781 171.773438 157.746094 176.363281 157.746094 176.363281 L 158.746094 177.828125 L 157.832031 178.386719 C 158.71875 179.3125 157.734375 179.277344 156.707031 179.078125 L 155.929688 179.550781 L 155.734375 178.847656 C 155.363281 178.75 155.097656 178.664062 155.097656 178.664062 C 149.730469 170.71875 146.457031 144.386719 153.464844 130.566406 " fill-opacity="1" fill-rule="nonzero"/><path fill="#26285d" d="M 157.65625 176.015625 C 157.65625 176.015625 159.566406 176.609375 160.785156 179.148438 C 162.003906 181.683594 160.546875 179.917969 156.332031 176.511719 L 157.65625 176.015625 " fill-opacity="1" fill-rule="nonzero"/><path fill="#26285d" d="M 160.769531 181.671875 C 160.625 181.75 160.472656 181.835938 160.320312 181.910156 C 159.40625 182.371094 158.289062 182.527344 157.269531 182.492188 C 156.546875 181.730469 155.746094 180.554688 154.90625 178.667969 C 154.90625 178.667969 155.976562 175.085938 158.09375 176.207031 C 158.09375 176.207031 158.902344 177.382812 159.957031 179.582031 C 160.402344 180.519531 160.660156 181.089844 160.851562 181.554688 L 160.769531 181.671875 " fill-opacity="1" fill-rule="nonzero"/><path fill="#ededed" d="M 176.503906 167.402344 L 154.246094 166.855469 C 154.246094 166.855469 146.027344 173.132812 150.171875 188.78125 C 153.730469 202.226562 155.917969 206.941406 155.917969 206.941406 C 155.917969 206.941406 171.78125 210.492188 175.601562 206.210938 C 175.601562 206.210938 180.996094 175.101562 176.503906 167.402344 " fill-opacity="1" fill-rule="nonzero"/><path fill="#f68c82" d="M 200.035156 159.824219 C 200.035156 159.824219 202.113281 158.394531 204.835938 159.0625 C 207.5625 159.734375 205.550781 160.164062 199.613281 161.78125 L 200.035156 159.824219 " fill-opacity="1" fill-rule="nonzero"/><path fill="#f68c82" d="M 201.585938 159.3125 C 201.585938 159.3125 203.035156 159.59375 205.28125 160.515625 C 207.527344 161.441406 207.636719 161.585938 209.011719 162.359375 C 209.964844 162.894531 208.882812 163.078125 208.824219 163.117188 C 208.789062 163.144531 208.976562 163.128906 208.84375 163.421875 C 208.761719 163.601562 208.378906 163.941406 208.128906 164.050781 C 207.972656 164.125 207.425781 164.355469 207.183594 164.460938 C 206.039062 164.964844 203.878906 165.765625 199.617188 163.820312 C 199.617188 163.820312 198.828125 160.15625 201.585938 159.3125 " fill-opacity="1" fill-rule="nonzero"/><path fill="#fab43d" d="M 177.171875 140.671875 C 177.171875 140.671875 176.113281 132.539062 173.390625 131.855469 C 170.671875 131.175781 163.265625 133.984375 163.265625 133.984375 L 164.59375 169.703125 C 164.59375 169.703125 177.523438 170.714844 179.261719 169.648438 C 180.996094 168.574219 177.171875 140.671875 177.171875 140.671875 " fill-opacity="1" fill-rule="nonzero"/><path fill="#26285d" d="M 150.09375 248.839844 C 150.09375 248.839844 148.40625 253.015625 149.804688 253.75 C 151.199219 254.484375 152.027344 254.550781 153.277344 254.035156 C 154.527344 253.519531 158.640625 250.671875 159.46875 249.636719 C 161.386719 247.261719 161.375 246.0625 154.6875 247.757812 C 152.613281 248.28125 150.09375 248.839844 150.09375 248.839844 " fill-opacity="1" fill-rule="nonzero"/><path fill="#fab43d" d="M 153.730469 167.332031 C 153.730469 167.332031 156.070312 159.703125 156.71875 156.875 L 153.5625 138.710938 L 153.964844 130.070312 C 153.964844 130.070312 154.511719 129.496094 160.496094 129.007812 C 160.496094 129.007812 167.921875 130.234375 173.390625 131.855469 C 173.390625 131.855469 174.007812 134.589844 175.027344 138.414062 C 175.660156 140.808594 174.515625 148.28125 174.769531 150.042969 C 175.121094 152.476562 176.1875 165.726562 176.503906 167.402344 C 176.828125 169.089844 168.007812 171.730469 153.730469 167.332031 " fill-opacity="1" fill-rule="nonzero"/><path fill="#fab43d" d="M 173.941406 132.042969 C 176.359375 133.824219 175.75 133.65625 185.066406 149.628906 C 187.429688 153.683594 187.230469 154.558594 184.476562 154.480469 C 181.726562 154.402344 170.976562 143.332031 169.917969 138.78125 C 167.714844 129.304688 173.941406 132.042969 173.941406 132.042969 " fill-opacity="1" fill-rule="nonzero"/><path fill="#ffffff" d="M 199.257812 159.3125 L 201.15625 159.96875 C 201.15625 159.96875 202.375 163.222656 200.207031 164.078125 L 199.027344 163.566406 L 199.257812 159.3125 " fill-opacity="1" fill-rule="nonzero"/><path fill="#fab43d" d="M 178.871094 150.660156 C 178.871094 150.660156 185.996094 161.707031 199.617188 164.03125 C 199.617188 164.03125 201.527344 163.113281 200.476562 160.773438 C 199.140625 157.773438 197.066406 160.695312 186.257812 149.816406 C 181.894531 145.425781 178.871094 150.660156 178.871094 150.660156 " fill-opacity="1" fill-rule="nonzero"/><path fill="#2e3192" d="M 171.855469 113.480469 C 171.855469 113.480469 170.679688 117.707031 168.445312 117.90625 C 168.445312 117.90625 169.839844 121.066406 168.445312 121.644531 C 167.105469 122.195312 168.269531 122.1875 168.269531 122.1875 C 168.269531 122.1875 170.542969 127.566406 169.773438 132.984375 C 169.011719 138.40625 154.054688 138.804688 153.960938 132.183594 C 153.867188 125.558594 153.945312 119.300781 157.980469 109.902344 C 161.941406 100.679688 178.339844 110.535156 171.855469 113.480469 " fill-opacity="1" fill-rule="nonzero"/><path fill="#f68c82" d="M 168.53125 122.183594 C 167.816406 122.324219 167.03125 121.390625 166.777344 120.097656 C 166.523438 118.804688 166.898438 117.648438 167.613281 117.507812 C 168.328125 117.363281 169.113281 118.300781 169.371094 119.589844 C 169.625 120.878906 169.25 122.039062 168.53125 122.183594 " fill-opacity="1" fill-rule="nonzero"/><path fill="#e66f64" d="M 151.242188 241.070312 L 154.570312 242.640625 C 154.570312 242.640625 152.683594 248.484375 153.730469 248.171875 C 158.398438 246.777344 160.007812 247.566406 154.738281 250.25 C 154.324219 250.457031 150.921875 251.515625 150.378906 250.972656 C 149.625 250.226562 151.136719 245.820312 151.242188 241.070312 " fill-opacity="1" fill-rule="nonzero"/><path fill="#f68c82" d="M 163.53125 245.925781 C 163.574219 246.28125 167.316406 247.738281 167.316406 247.738281 C 167.316406 247.738281 166.546875 252.578125 169.773438 252.789062 C 172.265625 252.953125 175.152344 253.199219 174.511719 254.0625 C 173.875 254.925781 170.105469 254.925781 169.058594 254.921875 C 168.117188 254.921875 162.976562 255.785156 163.484375 253.675781 C 164.050781 251.28125 163.53125 245.925781 163.53125 245.925781 " fill-opacity="1" fill-rule="nonzero"/></svg>