<svg xmlns="http://www.w3.org/2000/svg" xmlns:xlink="http://www.w3.org/1999/xlink" width="480" zoomAndPan="magnify" viewBox="0 0 360 359.999987" height="480" preserveAspectRatio="xMidYMid meet" version="1.0"><defs><clipPath id="245cca03be"><path d="M 134 57.601562 L 144 57.601562 L 144 68 L 134 68 Z M 134 57.601562 " clip-rule="nonzero"/></clipPath></defs><path fill="#908acd" d="M 315.949219 274.789062 L 310.101562 278.839844 L 235.222656 312.082031 L 134.96875 306.691406 L 49.496094 274.484375 L 40.941406 266.265625 C 41.175781 264.097656 41.667969 261.957031 42.378906 259.851562 L 42.609375 263.050781 L 44.808594 254.316406 C 59.769531 226.792969 114.511719 207.066406 179.445312 208.152344 C 255.464844 209.421875 316.613281 238.734375 316.035156 273.632812 C 316.027344 274.023438 315.972656 274.402344 315.949219 274.789062 Z M 356.835938 246.453125 L 347.226562 253.121094 C 342.675781 246.773438 336.492188 240.75 328.949219 235.144531 C 326.796875 232.480469 294.351562 192.269531 293.320312 192.589844 C 292.253906 192.925781 197.085938 169.054688 195.3125 169.375 C 193.539062 169.699219 79.679688 184.070312 79.679688 184.070312 L 39.164062 214.878906 L 39.785156 223.523438 C 29.953125 228.980469 21.679688 235.0625 15.292969 241.648438 L 5.253906 232.003906 L 0.824219 242.894531 L 0.816406 268.34375 C 0.542969 270.105469 0.339844 271.871094 0.3125 273.667969 C 0.273438 275.859375 0.484375 278.03125 0.816406 280.183594 L 0.816406 280.480469 L 0.863281 280.503906 C 7.726562 322.550781 83.644531 356.78125 176.929688 358.339844 C 271.292969 359.917969 349.023438 327.492188 355.765625 284.976562 L 355.800781 284.96875 L 355.804688 284.761719 C 356.066406 283.058594 356.257812 281.34375 356.285156 279.609375 C 356.308594 278.082031 356.21875 276.558594 356.066406 275.046875 L 356.835938 246.453125 " fill-opacity="1" fill-rule="nonzero"/><path fill="#e7e6e6" d="M 177.84375 303.75 C 101.820312 302.480469 40.667969 273.164062 41.253906 238.265625 C 41.835938 203.371094 103.933594 176.113281 179.960938 177.382812 C 255.976562 178.648438 317.132812 207.96875 316.546875 242.863281 C 315.964844 277.757812 253.867188 305.019531 177.84375 303.75 Z M 180.179688 164.167969 C 81.878906 162.53125 1.582031 197.769531 0.824219 242.894531 C 0.0703125 288.015625 79.144531 325.929688 177.445312 327.574219 C 275.75 329.210938 356.046875 293.960938 356.796875 248.839844 C 357.550781 203.71875 278.476562 165.808594 180.179688 164.167969 " fill-opacity="1" fill-rule="nonzero"/><path fill="#266d68" d="M 289.226562 311.425781 L 288.714844 342.183594 C 288.714844 342.183594 354.507812 322.300781 356.214844 281.035156 L 356.761719 250.960938 L 297.320312 302.507812 L 289.226562 311.425781 " fill-opacity="1" fill-rule="nonzero"/><path fill="#36ab9c" d="M 265.328125 290.890625 L 289.226562 311.425781 C 289.226562 311.425781 354.683594 290.867188 356.730469 250.5 L 316.324219 246.003906 C 316.324219 246.003906 316.894531 269.796875 265.328125 290.890625 " fill-opacity="1" fill-rule="nonzero"/><path fill="#fab43d" d="M 282.472656 200.824219 L 282.507812 200.320312 L 302.117188 188.558594 C 302.117188 188.558594 359.890625 212.324219 356.730469 250.5 L 316.324219 246.003906 C 316.324219 246.003906 302.335938 207.90625 282.472656 200.824219 " fill-opacity="1" fill-rule="nonzero"/><path fill="#f7981a" d="M 280.382812 230.242188 L 282.507812 200.320312 C 282.507812 200.320312 318.414062 216.808594 316.324219 246.003906 C 316.324219 246.003906 315.707031 254.894531 312 257.832031 C 312 257.832031 306.449219 243.578125 280.382812 230.242188 " fill-opacity="1" fill-rule="nonzero"/><path fill="#2e3192" d="M 191.65625 178.6875 L 190.210938 177.730469 L 196.015625 164.75 C 196.015625 164.75 258.597656 167.46875 302.117188 188.558594 L 282.507812 200.320312 L 191.65625 178.6875 " fill-opacity="1" fill-rule="nonzero"/><path fill="#26285d" d="M 189.699219 208.480469 L 190.210938 177.730469 C 190.210938 177.730469 240.523438 178.167969 282.507812 200.320312 L 280.382812 230.242188 C 280.382812 230.242188 243.414062 211.058594 189.699219 208.480469 " fill-opacity="1" fill-rule="nonzero"/><path fill="#e66f64" d="M 177.316406 120.582031 C 177.316406 120.582031 176.890625 116.796875 177.699219 116.460938 C 178.511719 116.132812 179.054688 116.40625 179.054688 116.40625 C 179.054688 116.40625 178.898438 115.6875 179.382812 115.363281 C 179.867188 115.03125 181.289062 114.785156 182.496094 115.414062 C 183.707031 116.039062 184.09375 116.632812 184.492188 117.171875 C 184.894531 117.710938 183.945312 120.945312 180.71875 122.722656 C 177.496094 124.496094 177.316406 120.582031 177.316406 120.582031 " fill-opacity="1" fill-rule="nonzero"/><path fill="#bdbcbc" d="M 166.589844 138.082031 C 166.589844 138.082031 160.917969 138.9375 160.425781 133.925781 C 160.246094 132.101562 163.429688 128.371094 177.425781 119.3125 C 177.425781 119.3125 182.210938 120.652344 180.535156 123.046875 C 178.855469 125.441406 171.800781 135.085938 166.589844 138.082031 " fill-opacity="1" fill-rule="nonzero"/><path fill="#bdbcbc" d="M 162.890625 134.207031 C 161.9375 133.710938 165.589844 138.574219 162.023438 134.648438 C 162.023438 134.648438 161.890625 135.894531 160.425781 133.925781 C 159.535156 130.304688 157.597656 124.511719 156.046875 121.636719 C 156.046875 121.636719 155.664062 115.945312 157.402344 112.886719 C 158.507812 110.945312 161.304688 109.257812 161.636719 110.230469 C 163.410156 115.429688 166.222656 124.054688 166.222656 124.058594 C 168.332031 128.335938 168.984375 134.703125 168.320312 136.667969 C 167.617188 138.769531 164.550781 135.066406 162.890625 134.207031 " fill-opacity="1" fill-rule="nonzero"/><path fill="#26285d" d="M 134.25 226.148438 L 133.804688 239.058594 L 132.8125 240.71875 L 126.222656 240.71875 L 125.550781 238.59375 L 129.480469 222.824219 L 134.25 226.148438 " fill-opacity="1" fill-rule="nonzero"/><path fill="#26285d" d="M 153.261719 201.816406 C 155.136719 201.515625 156.886719 201.609375 158.542969 200.832031 C 157.761719 209.730469 155.875 226.703125 156.65625 227.316406 C 158.046875 228.40625 151.3125 227.316406 151.3125 227.316406 C 151.195312 220.003906 148.421875 207.214844 147.527344 201.46875 C 149.273438 201.671875 151.453125 202.09375 153.261719 201.816406 " fill-opacity="1" fill-rule="nonzero"/><path fill="#26285d" d="M 147.625 198.757812 C 147.625 198.757812 148.316406 196.898438 149.300781 195.402344 C 147.890625 181.742188 146.839844 149.992188 146.839844 149.992188 L 161.125 146.683594 C 161.125 146.683594 162.742188 179.066406 159.71875 195.863281 C 159.378906 197.214844 158.925781 200.019531 158.332031 201.40625 C 157.71875 202.835938 149.492188 202.546875 147.527344 201.46875 C 147.527344 201.46875 147.527344 199.636719 147.625 198.757812 " fill-opacity="1" fill-rule="nonzero"/><path fill="#2e3192" d="M 142.90625 201.664062 C 139.949219 210.007812 135.1875 222.710938 134.25 226.148438 C 133.96875 227.1875 130.230469 228.71875 128.566406 225.832031 C 128.566406 225.832031 131.636719 208.652344 131.6875 195.75 C 134.550781 198.125 139.234375 201.132812 142.90625 201.664062 " fill-opacity="1" fill-rule="nonzero"/><path fill="#2e3192" d="M 149.871094 184.28125 C 147.527344 189.902344 144.070312 199.007812 142.917969 201.640625 C 141.976562 203.785156 133.898438 197.667969 131.585938 196.078125 C 138.324219 176.0625 139.699219 148.570312 139.699219 148.570312 C 142.699219 146.585938 144.652344 147.960938 148.714844 148.007812 C 148.820312 149.613281 161.039062 147.34375 160.574219 148.925781 C 156.722656 161.917969 152.578125 176.347656 149.871094 184.28125 " fill-opacity="1" fill-rule="nonzero"/><path fill="#bdbcbc" d="M 161.226562 110.039062 C 161.226562 110.039062 154.34375 108.148438 147.890625 106.964844 C 147.890625 106.964844 149.429688 107.367188 151.308594 108.898438 C 151.019531 109.695312 149.625 113.609375 149.828125 114.460938 C 150.03125 115.3125 156.488281 126.679688 157.953125 129.355469 C 157.902344 144.414062 157.710938 141.671875 157.710938 141.671875 L 154.601562 150.425781 C 154.601562 150.425781 162.472656 149.96875 164.222656 147.050781 C 165.875 144.308594 158.316406 144.4375 161.226562 110.039062 " fill-opacity="1" fill-rule="nonzero"/><path fill="#e66f64" d="M 141.632812 99.515625 C 141.632812 99.515625 143.339844 106.15625 143.585938 109.96875 C 143.585938 109.96875 148.355469 114.464844 150.960938 111.96875 C 150.960938 111.96875 150.210938 100.1875 152.328125 98.65625 C 154.453125 97.132812 141.632812 99.515625 141.632812 99.515625 " fill-opacity="1" fill-rule="nonzero"/><path fill="#bdbcbc" d="M 150.882812 104.839844 C 150.882812 104.839844 150.40625 107.484375 150.40625 107.605469 C 150.40625 107.730469 149.21875 111.917969 149.21875 111.917969 C 149.21875 111.917969 152.214844 111.804688 152.574219 111.457031 C 152.921875 111.101562 152.726562 107.316406 152.726562 107.316406 L 150.882812 104.839844 " fill-opacity="1" fill-rule="nonzero"/><path fill="#e0e0e0" d="M 161.554688 140.714844 L 157.960938 127.742188 C 157.4375 127.214844 156.925781 126.679688 156.425781 126.152344 L 149.667969 113.117188 L 150.132812 108.628906 L 141.40625 104.609375 L 141.632812 108.257812 L 140.964844 108.53125 L 131.941406 113.40625 L 130.597656 117.589844 L 138.246094 142.894531 C 138.246094 142.894531 138.246094 149.039062 138.246094 149.894531 C 138.246094 153.828125 158.769531 150.082031 158.769531 150.082031 C 166.527344 148.480469 161.554688 140.714844 161.554688 140.714844 " fill-opacity="1" fill-rule="nonzero"/><path fill="#26285d" d="M 152.527344 114.542969 C 152.527344 114.542969 162.519531 130.722656 162.527344 142.503906 C 162.527344 148.644531 159.292969 145.695312 158.769531 141.636719 C 158.742188 141.390625 159.015625 130.550781 150.457031 114.183594 L 152.527344 114.542969 " fill-opacity="1" fill-rule="nonzero"/><path fill="#26285d" d="M 152.3125 226.480469 C 152.3125 226.480469 151.363281 226.871094 151.332031 227.175781 C 151.296875 227.480469 150.546875 231.519531 150.726562 232.25 C 150.917969 232.976562 160.804688 235.222656 160.804688 235.222656 C 160.804688 235.222656 167.765625 235.015625 168.480469 234.246094 C 169.191406 233.476562 168.945312 232.878906 168.582031 232.71875 C 157.652344 227.96875 155.914062 226.367188 155.914062 226.367188 L 152.3125 226.480469 " fill-opacity="1" fill-rule="nonzero"/><path fill="#f68c82" d="M 142.429688 104.46875 C 142.429688 104.46875 146.410156 110.019531 150.488281 105.054688 C 153.394531 101.515625 153.597656 91.554688 151.34375 89.347656 C 149.09375 87.144531 143.660156 85.632812 141.632812 90.65625 C 140.050781 94.585938 140.054688 101.378906 142.429688 104.46875 " fill-opacity="1" fill-rule="nonzero"/><path fill="#2e3192" d="M 141.632812 90.65625 C 140.800781 92.71875 140.410156 95.566406 140.570312 98.25 L 140.761719 98.429688 L 141.632812 92.578125 L 146.707031 94.207031 L 151.546875 92.472656 L 152.574219 98.054688 L 152.773438 97.863281 C 153.09375 94.25 152.605469 90.582031 151.34375 89.347656 C 149.09375 87.144531 143.660156 85.632812 141.632812 90.65625 " fill-opacity="1" fill-rule="nonzero"/><path fill="#f68c82" d="M 152.949219 96.4375 C 153.59375 96.617188 153.925781 97.941406 153.691406 99.386719 C 153.457031 100.839844 152.742188 101.863281 152.101562 101.683594 C 151.457031 101.5 151.125 100.179688 151.359375 98.734375 C 151.589844 97.285156 152.304688 96.257812 152.949219 96.4375 " fill-opacity="1" fill-rule="nonzero"/><path fill="#f68c82" d="M 140.449219 96.960938 C 141.089844 96.742188 141.839844 97.726562 142.121094 99.160156 C 142.402344 100.59375 142.113281 101.933594 141.472656 102.152344 C 140.84375 102.371094 140.09375 101.386719 139.8125 99.953125 C 139.527344 98.519531 139.8125 97.179688 140.449219 96.960938 " fill-opacity="1" fill-rule="nonzero"/><path fill="#2e3192" d="M 152.652344 92.703125 C 152.652344 92.703125 153.035156 91.976562 152.867188 91.40625 C 152.699219 90.835938 153.589844 88.472656 152.246094 87.738281 C 150.90625 87.007812 149.363281 86.546875 148.46875 85.707031 C 147.570312 84.867188 145.113281 84.019531 143.753906 84.96875 C 142.402344 85.917969 142.746094 86.476562 141.632812 87.289062 C 140.519531 88.105469 139.023438 87.800781 138.480469 88.859375 C 137.941406 89.914062 138.460938 91.226562 138.839844 91.929688 C 139.222656 92.636719 139.605469 92.921875 139.417969 93.597656 C 139.230469 94.277344 139.5625 94.8125 140.105469 95.21875 C 140.648438 95.617188 140.71875 96.199219 140.664062 96.605469 C 140.609375 97.011719 141.234375 92.082031 141.234375 92.082031 L 144.292969 92.382812 L 151.941406 92.191406 L 152.527344 92.679688 " fill-opacity="1" fill-rule="nonzero"/><path fill="#26285d" d="M 148.09375 111.003906 C 148.09375 111.003906 150.636719 109.882812 151.871094 110.28125 C 153.105469 110.679688 152.78125 113.96875 152.78125 113.96875 L 152.527344 114.542969 L 151 114.867188 L 149.933594 114.148438 L 148.09375 111.003906 " fill-opacity="1" fill-rule="nonzero"/><path fill="#ededed" d="M 150.132812 108.628906 L 149.554688 114.183594 L 140.964844 108.691406 L 141.40625 104.609375 L 150.132812 108.628906 " fill-opacity="1" fill-rule="nonzero"/><path fill="#bdbcbc" d="M 150.175781 108.492188 L 153.042969 113.28125 L 153.003906 107.730469 L 150.882812 104.839844 L 150.175781 108.492188 " fill-opacity="1" fill-rule="nonzero"/><g clip-path="url(#245cca03be)"><path fill="#f68c82" d="M 134.742188 65.730469 C 134.675781 65.542969 134.570312 60.601562 135.859375 59.082031 C 135.859375 59.082031 136.617188 58.570312 137.089844 58.785156 C 137.566406 59 138.933594 58.289062 139.386719 58.148438 C 139.839844 58.015625 140.113281 57.644531 140.683594 58.066406 C 141.253906 58.496094 141.925781 58.425781 142.34375 58.589844 C 142.761719 58.753906 143.453125 59.332031 143.640625 59.753906 C 143.832031 60.179688 143.902344 61.3125 143.757812 61.621094 C 143.621094 61.929688 142.207031 64.359375 142.101562 64.449219 C 142 64.535156 140.238281 67.144531 140.023438 67.1875 C 139.808594 67.226562 134.742188 65.730469 134.742188 65.730469 " fill-opacity="1" fill-rule="nonzero"/></g><path fill="#f68c82" d="M 139.851562 67.007812 C 139.851562 67.007812 142.503906 66.429688 142.886719 65.261719 C 143.28125 64.097656 142.9375 61.957031 142.546875 61.746094 C 142.152344 61.53125 139.851562 67.007812 139.851562 67.007812 " fill-opacity="1" fill-rule="nonzero"/><path fill="#e0e0e0" d="M 130.242188 90.664062 C 129.789062 91.992188 129.789062 98.449219 129.621094 104.878906 C 129.472656 109.636719 129.542969 114.292969 130.320312 117.910156 C 130.320312 117.910156 131.300781 122.425781 135.007812 122.640625 C 141.132812 123.003906 142.523438 120.292969 142.136719 116.089844 C 141.960938 114.179688 141.542969 110.617188 140.964844 106.808594 L 140.945312 106.699219 L 140.925781 106.519531 L 140.921875 106.519531 C 139.953125 100.207031 138.667969 93.300781 137.949219 92.0625 C 136.789062 90.050781 131.027344 88.339844 130.242188 90.664062 " fill-opacity="1" fill-rule="nonzero"/><path fill="#e0e0e0" d="M 138.796875 94.042969 C 138.796875 94.042969 130.101562 92.355469 130.003906 90.765625 C 129.910156 89.179688 130.707031 78.1875 134.621094 65.261719 C 134.621094 65.261719 140.480469 65.910156 140.179688 67.558594 C 138.65625 75.898438 140.75 90.222656 138.796875 94.042969 " fill-opacity="1" fill-rule="nonzero"/><path fill="#ffffff" d="M 183.933594 166.035156 L 211.984375 155.457031 L 217.542969 174.6875 L 190.5 185.046875 L 183.933594 166.035156 " fill-opacity="1" fill-rule="nonzero"/><path fill="#f7981a" d="M 183.21875 167.890625 L 211.269531 157.304688 L 216.828125 176.539062 L 189.785156 186.898438 L 183.21875 167.890625 " fill-opacity="1" fill-rule="nonzero"/><path fill="#2e3192" d="M 222.679688 117.644531 C 222.679688 117.644531 222.941406 117.144531 223.097656 116.878906 C 223.257812 116.617188 223.257812 115.988281 223.3125 115.640625 C 223.363281 115.296875 223.679688 115.03125 223.890625 114.925781 C 224.105469 114.820312 223.839844 114.285156 223.890625 113.863281 C 223.945312 113.445312 224.550781 113.023438 224.566406 112.757812 C 224.582031 112.496094 224.816406 111.863281 224.566406 111.597656 C 224.316406 111.335938 224.394531 109.007812 224.566406 108.847656 C 224.738281 108.691406 224.574219 107.847656 224.679688 107.6875 C 224.792969 107.527344 225.054688 107 225.054688 107 C 225.054688 107 225.636719 106.578125 225.742188 106.257812 C 225.847656 105.945312 225.953125 104.46875 225.953125 104.386719 C 225.953125 104.304688 226.589844 102.777344 225.953125 102.296875 C 225.320312 101.824219 225.054688 101.050781 225.054688 100.800781 C 225.054688 100.554688 224.953125 99.710938 224.953125 99.710938 C 224.953125 99.710938 224.050781 99.289062 224.050781 98.972656 C 224.050781 98.652344 223.207031 97.015625 222.996094 96.753906 C 222.785156 96.484375 222.898438 95.691406 222.101562 95.429688 C 221.304688 95.164062 220.773438 94.585938 220.773438 94.425781 C 220.773438 94.269531 220.085938 93.792969 220.085938 93.792969 L 220.984375 93.792969 C 220.984375 93.792969 220.667969 92.84375 220.5625 92.683594 C 220.457031 92.523438 219.90625 91.628906 219.652344 91.46875 C 219.402344 91.3125 217.917969 90.414062 217.917969 90.414062 C 217.917969 90.414062 216.917969 90.460938 216.492188 90.414062 C 216.066406 90.359375 215.277344 89.621094 215.277344 89.621094 L 214.179688 89.832031 C 214.167969 89.882812 213.898438 89.671875 213.160156 89.621094 C 212.425781 89.566406 211.414062 89.195312 211.261719 89.300781 C 211.101562 89.410156 210.085938 88.933594 210.121094 88.773438 C 210.152344 88.617188 209.199219 88.242188 208.722656 88.402344 C 208.25 88.5625 207.523438 89.300781 207.066406 88.933594 C 206.609375 88.5625 206.363281 88.222656 206.066406 88.363281 C 205.765625 88.511719 204.175781 89.621094 204.125 89.777344 C 204.074219 89.933594 204.125 90.785156 204.125 90.785156 L 203.363281 91.679688 L 203.753906 92.261719 C 203.753906 92.261719 202.03125 92.472656 201.515625 92.417969 C 201.007812 92.367188 200.460938 92.863281 200.207031 93.140625 C 199.949219 93.421875 199.394531 94 199.4375 94.324219 C 199.476562 94.636719 198.839844 95.261719 198.996094 95.664062 C 199.15625 96.0625 199.449219 96.433594 199.4375 96.59375 C 199.421875 96.753906 198.683594 97.808594 198.683594 97.808594 C 198.683594 97.808594 197.652344 98.914062 198.085938 99.394531 C 198.523438 99.867188 198.523438 100.523438 198.3125 100.800781 C 198.097656 101.085938 197.519531 101.347656 197.730469 101.929688 C 197.945312 102.511719 197.851562 103.515625 197.6875 103.777344 C 197.519531 104.042969 196.828125 104.992188 196.9375 105.253906 C 197.042969 105.519531 196.992188 106.472656 196.9375 106.632812 C 196.886719 106.789062 196.359375 107.425781 196.300781 107.792969 C 196.246094 108.164062 195.773438 109.007812 196.300781 109.378906 C 196.828125 109.746094 196.671875 110.484375 196.566406 110.855469 C 196.460938 111.226562 196.617188 112.230469 196.9375 112.496094 C 197.25 112.757812 197.625 113.640625 197.625 113.640625 C 197.625 113.640625 197.699219 114.558594 198.085938 114.660156 C 198.46875 114.769531 198.46875 115.355469 198.523438 115.640625 C 198.578125 115.925781 199.265625 116.101562 199.4375 116.328125 C 199.605469 116.550781 200.953125 117.089844 201.113281 117.089844 C 201.269531 117.089844 222.679688 117.644531 222.679688 117.644531 " fill-opacity="1" fill-rule="nonzero"/><path fill="#f7981a" d="M 206.066406 116.457031 L 207.402344 113.640625 L 212.035156 113.71875 L 212.570312 114.265625 L 214.179688 117.078125 L 212.019531 117.644531 L 206.066406 116.457031 " fill-opacity="1" fill-rule="nonzero"/><path fill="#26285d" d="M 221.320312 223.914062 C 221.320312 223.914062 223.257812 225.90625 224.335938 228.742188 C 224.972656 230.40625 223.796875 237.917969 223.796875 237.917969 L 222.710938 237.917969 L 222.75 232.300781 L 221.320312 223.914062 " fill-opacity="1" fill-rule="nonzero"/><path fill="#26285d" d="M 216.367188 224.808594 C 216.367188 224.808594 217.445312 229.074219 216.792969 234.226562 C 216.792969 234.226562 216.316406 237.5625 214.011719 237.484375 C 211.703125 237.40625 211.675781 236.339844 211.675781 236.339844 C 211.675781 236.339844 213.136719 227.875 213.449219 226.738281 C 213.765625 225.609375 216.367188 224.808594 216.367188 224.808594 " fill-opacity="1" fill-rule="nonzero"/><path fill="#793620" d="M 212.019531 219.886719 C 211.980469 219.667969 215.402344 220.277344 215.402344 220.277344 C 215.402344 220.277344 216.882812 226.125 216.058594 231.347656 C 216.058594 231.347656 214.226562 235.808594 213.25 231.417969 C 213.039062 230.453125 213.210938 228.984375 213.261719 228.769531 C 213.308594 228.558594 212.433594 222.414062 212.019531 219.886719 " fill-opacity="1" fill-rule="nonzero"/><path fill="#793620" d="M 217.464844 201.792969 C 216.226562 194.105469 212.292969 189.496094 212.292969 189.496094 C 212.292969 189.496094 202.085938 181.902344 204.265625 188.882812 C 207.730469 199.996094 211.25 220.761719 213.199219 225.53125 C 213.429688 226.089844 213.636719 226.429688 213.816406 226.507812 C 213.898438 226.542969 213.988281 226.527344 214.078125 226.480469 C 214.539062 226.40625 215.480469 226.15625 215.839844 225.261719 C 216.058594 224.714844 216.3125 221.746094 216.523438 218.714844 C 217.511719 213.164062 218.140625 205.980469 217.464844 201.792969 " fill-opacity="1" fill-rule="nonzero"/><path fill="#793620" d="M 200.023438 159.484375 C 200.023438 159.484375 199.765625 161.542969 198.453125 163.292969 C 197.144531 165.042969 196.992188 165.105469 196.011719 166.128906 C 195.332031 166.84375 195.417969 165.859375 195.390625 165.800781 C 195.378906 165.765625 195.347656 165.925781 195.125 165.75 C 194.988281 165.636719 194.773438 165.226562 194.730469 164.984375 C 194.707031 164.835938 194.628906 164.300781 194.589844 164.066406 C 194.410156 162.953125 194.046875 160.878906 196.699219 157.601562 C 196.699219 157.601562 199.90625 156.882812 200.023438 159.484375 " fill-opacity="1" fill-rule="nonzero"/><path fill="#793620" d="M 199.871094 159.484375 C 199.871094 159.484375 201.335938 161.347656 200.804688 163.824219 C 200.265625 166.296875 199.894531 164.304688 198.566406 158.664062 L 199.871094 159.484375 " fill-opacity="1" fill-rule="nonzero"/><path fill="#f7981a" d="M 199.679688 116.328125 C 198.980469 116.5625 197.699219 125.085938 195.847656 136.5 C 195.171875 140.664062 197.222656 139.332031 199.683594 139.03125 C 203.703125 138.535156 205.164062 124.648438 204.558594 120.492188 C 203.953125 116.335938 199.679688 116.328125 199.679688 116.328125 " fill-opacity="1" fill-rule="nonzero"/><path fill="#f7981a" d="M 199.738281 158.664062 C 199.214844 158.527344 198.382812 157.910156 197.730469 158.039062 C 196.511719 158.269531 195.9375 158.589844 195.457031 159.410156 C 194.082031 140.929688 195.847656 138.691406 195.847656 138.691406 C 195.847656 138.691406 201.839844 133.515625 201.371094 139.066406 C 200.402344 150.421875 199.15625 156.433594 199.738281 158.664062 " fill-opacity="1" fill-rule="nonzero"/><path fill="#793620" d="M 201.796875 117.394531 C 201.796875 117.394531 208.070312 115.894531 208.503906 115.894531 C 208.929688 115.894531 211.472656 116.253906 211.625 116.253906 C 211.78125 116.253906 222.101562 118.53125 222.101562 118.53125 C 222.101562 118.53125 220.074219 126.289062 219.566406 126.6875 C 219.058594 127.089844 211.234375 134.007812 210.796875 133.933594 C 210.351562 133.863281 202.9375 124.023438 202.9375 124.023438 L 201.796875 117.394531 " fill-opacity="1" fill-rule="nonzero"/><path fill="#793620" d="M 202.582031 146.992188 L 212.371094 150.90625 C 212.371094 150.90625 218.394531 176.429688 214.433594 190.632812 C 212.90625 196.085938 207.320312 190.210938 205.164062 191.957031 C 204.796875 192.246094 200.085938 177.78125 199.714844 163.792969 C 199.429688 153.074219 201.734375 149.820312 202.582031 146.992188 " fill-opacity="1" fill-rule="nonzero"/><path fill="#26285d" d="M 223.257812 226.746094 C 223.257812 226.746094 224.691406 232.554688 221.109375 236.457031 C 221.109375 236.457031 219.984375 238.441406 217.695312 238.160156 C 215.40625 237.875 216.261719 236.960938 216.261719 236.960938 C 216.261719 236.960938 218.472656 228.664062 218.886719 227.5625 C 219.300781 226.457031 223.257812 226.746094 223.257812 226.746094 " fill-opacity="1" fill-rule="nonzero"/><path fill="#793620" d="M 207.066406 110.539062 C 207.019531 110.308594 212.789062 110.742188 212.789062 110.742188 C 212.789062 110.742188 212.058594 115.269531 212.621094 116.710938 C 212.621094 116.710938 209.332031 118.949219 207.441406 117.28125 C 207.441406 117.28125 207.1875 111.175781 207.066406 110.539062 " fill-opacity="1" fill-rule="nonzero"/><path fill="#9d4b36" d="M 206.558594 110.960938 C 206.558594 110.960938 209.300781 115.039062 212.824219 111.28125 C 215.503906 108.425781 213.730469 98.191406 211.539062 96.625 C 209.355469 95.058594 204.722656 95.46875 203.667969 99.976562 C 202.84375 103.496094 204.148438 108.660156 206.558594 110.960938 " fill-opacity="1" fill-rule="nonzero"/><path fill="#fab43d" d="M 222.101562 116.5625 C 223.683594 118.375 229.328125 127.089844 233.871094 131.171875 C 237.011719 133.996094 236.15625 135.03125 233.730469 135.5625 C 229.785156 136.4375 220.597656 129.320312 219.785156 125.195312 C 218.980469 121.074219 222.101562 116.5625 222.101562 116.5625 " fill-opacity="1" fill-rule="nonzero"/><path fill="#9d4b36" d="M 214.742188 187.769531 C 214.742188 187.769531 215.496094 180.566406 219.65625 186.980469 C 226.851562 198.070312 220.464844 229.648438 219.90625 231.148438 C 218.785156 234.175781 216.464844 211.25 212.347656 191.035156 C 212.175781 190.191406 214.742188 187.769531 214.742188 187.769531 " fill-opacity="1" fill-rule="nonzero"/><path fill="#ffffff" d="M 204.136719 126.824219 C 204.027344 127.628906 203.867188 128.449219 203.703125 129.277344 C 204.011719 129.332031 205.023438 133.3125 205.234375 133.328125 C 208.34375 133.589844 210.214844 128.980469 212.820312 127.257812 C 213.648438 126.71875 214.6875 126.136719 215.816406 125.65625 C 215.78125 123.097656 215.871094 120.5625 216.152344 118.039062 C 215.011719 119.4375 218.402344 120.175781 216.742188 120.25 L 208.738281 121.785156 C 207.554688 121.824219 203.207031 120.957031 201.515625 119.21875 C 201.890625 121.941406 204.53125 123.882812 204.136719 126.824219 " fill-opacity="1" fill-rule="nonzero"/><path fill="#9d4b36" d="M 218.074219 220.601562 C 218.050781 220.390625 221.320312 223.914062 221.320312 223.914062 C 221.320312 223.914062 224.527344 228.179688 221.074219 232.382812 C 221.074219 232.382812 218.824219 234.777344 218.0625 233.039062 C 217.664062 232.136719 218 230.527344 218.074219 230.320312 C 218.132812 230.117188 218.257812 223.167969 218.074219 220.601562 " fill-opacity="1" fill-rule="nonzero"/><path fill="#9d4b36" d="M 223.300781 153.296875 C 222.558594 152.601562 220.691406 152.03125 220.21875 151.289062 C 220.148438 151.425781 220.082031 151.570312 220.003906 151.707031 C 217.1875 156.59375 211.984375 158.328125 206.4375 159.21875 L 206.988281 159.246094 C 207.847656 160.300781 210.992188 159.761719 211.5 161.550781 C 216.828125 176.988281 208.859375 181.242188 212.5 191.304688 C 213.992188 195.417969 219.78125 191.445312 219.78125 191.445312 C 225.191406 172.226562 223.300781 153.296875 223.300781 153.296875 " fill-opacity="1" fill-rule="nonzero"/><path fill="#2e3192" d="M 220.992188 152 C 216.191406 154.472656 212.875 157.429688 207.472656 156.789062 C 204.851562 156.476562 202.238281 156.046875 199.714844 155.246094 L 199.617188 155.582031 C 199.617188 155.582031 203.5625 157.671875 205.332031 159.582031 C 207.703125 162.140625 212.238281 169.019531 213.207031 166.121094 C 217.566406 153.140625 223.582031 154.042969 223.632812 153.605469 C 223.78125 152.269531 221.097656 151.945312 220.992188 152 " fill-opacity="1" fill-rule="nonzero"/><path fill="#ededed" d="M 223.636719 149.792969 C 223.636719 149.792969 215.253906 163.066406 196.9375 152.910156 C 196.9375 152.910156 195.417969 153.960938 195.96875 164.921875 C 196.527344 175.882812 204.285156 191.191406 204.285156 191.191406 C 204.285156 191.191406 218.992188 192.644531 220.761719 189.105469 C 221.148438 188.328125 228.257812 161.457031 223.636719 149.792969 " fill-opacity="1" fill-rule="nonzero"/><path fill="#fab43d" d="M 212.5 114.1875 C 212.5 114.1875 215.78125 126.390625 206.4375 130.441406 C 206.4375 130.441406 204.824219 135.007812 204.71875 135.09375 C 204.613281 135.183594 202.84375 140.582031 202.84375 140.582031 L 196.9375 152.910156 C 196.9375 152.910156 198.960938 156.394531 204.214844 156.839844 C 220.335938 158.195312 224.566406 151.289062 224.566406 151.289062 L 220.503906 142.589844 L 222.261719 129.253906 L 221.609375 123.941406 L 222.101562 116.5625 L 213.75 115.894531 L 212.5 114.1875 " fill-opacity="1" fill-rule="nonzero"/><path fill="#fab43d" d="M 207.285156 113.863281 C 207.285156 113.863281 203.523438 123.273438 206.4375 130.441406 C 206.4375 130.441406 206.1875 138.855469 205.949219 139.066406 C 205.71875 139.285156 202.84375 140.582031 202.84375 140.582031 C 202.84375 140.582031 198.394531 123.859375 199.660156 116.171875 C 199.660156 116.171875 199.734375 115.640625 205.949219 115.894531 L 207.285156 113.863281 " fill-opacity="1" fill-rule="nonzero"/><path fill="#fab43d" d="M 229.945312 131.867188 C 224.90625 137.464844 220.574219 139.445312 216.890625 140.640625 C 217.457031 142.320312 217.15625 144.214844 215.75 145.199219 C 224.625 146.660156 236.375 134.800781 236.375 134.800781 C 236.375 134.800781 233.671875 127.71875 229.945312 131.867188 " fill-opacity="1" fill-rule="nonzero"/><path fill="#9d4b36" d="M 216.890625 140.640625 C 216.890625 140.640625 215.097656 139.59375 212.902344 139.574219 C 210.71875 139.546875 210.578125 139.628906 209.164062 139.789062 C 208.1875 139.894531 209.019531 140.425781 209.050781 140.476562 C 209.074219 140.511719 208.921875 140.4375 208.933594 140.722656 C 208.9375 140.902344 209.132812 141.316406 209.300781 141.496094 C 209.410156 141.609375 209.78125 142 209.945312 142.171875 C 210.71875 142.988281 211.730469 145.410156 215.945312 145.296875 C 215.945312 145.296875 218.882812 142.308594 216.890625 140.640625 " fill-opacity="1" fill-rule="nonzero"/><path fill="#9d4b36" d="M 217.242188 141.011719 C 217.242188 141.011719 215.703125 139.03125 213.261719 138.359375 C 210.8125 137.6875 212.410156 138.941406 216.796875 142.730469 L 217.242188 141.011719 " fill-opacity="1" fill-rule="nonzero"/><path fill="#fab43d" d="M 201.796875 121.886719 C 201.867188 122.101562 198.085938 131.675781 198.085938 131.675781 L 202.15625 137.285156 C 202.15625 137.285156 203 132.839844 203.328125 131.675781 C 203.652344 130.511719 201.796875 121.886719 201.796875 121.886719 " fill-opacity="1" fill-rule="nonzero"/><path fill="#ffffff" d="M 205.746094 132.835938 C 205.746094 132.835938 206.273438 138.613281 207.734375 141.714844 L 205.234375 156.914062 L 204.214844 156.839844 L 207.066406 141.78125 C 207.066406 141.78125 205.527344 136.601562 205.746094 132.835938 " fill-opacity="1" fill-rule="nonzero"/><path fill="#2e3192" d="M 207.734375 98.109375 C 207.734375 98.109375 207.535156 99.304688 208.402344 99.65625 C 209.269531 100.011719 209.03125 100.222656 209.363281 100.574219 C 209.695312 100.925781 210.121094 101.277344 210.121094 101.277344 C 210.121094 101.277344 210.613281 101.839844 210.75 102.476562 C 210.886719 103.109375 211.949219 103.039062 211.949219 103.039062 C 211.949219 103.039062 211.742188 103.8125 211.949219 104.167969 C 212.160156 104.515625 213.214844 105.21875 213.214844 105.21875 L 213.214844 106.699219 L 213.777344 107.265625 C 213.777344 107.265625 213.59375 108.15625 213.777344 108.390625 C 213.964844 108.628906 213.9375 108.25 214.179688 108.039062 C 214.414062 107.828125 215.542969 104.675781 215.542969 104.386719 C 215.542969 104.09375 215.117188 102.613281 215.117188 102.121094 C 215.117188 101.628906 215.964844 101.839844 215.117188 99.519531 C 214.273438 97.191406 217.089844 96.839844 213.640625 95.359375 C 210.183594 93.878906 207.929688 92.683594 206.449219 93.316406 C 204.972656 93.953125 203.660156 94.511719 203.363281 94.867188 C 203.070312 95.21875 202.632812 95.664062 202.632812 95.664062 C 202.632812 95.664062 207.558594 96.839844 207.285156 96.839844 C 207.015625 96.839844 207.734375 98.109375 207.734375 98.109375 " fill-opacity="1" fill-rule="nonzero"/><path fill="#26285d" d="M 238.570312 275.449219 C 238.570312 275.71875 239.554688 282.519531 238.570312 283.148438 C 237.585938 283.773438 219.050781 284.222656 216.273438 283.949219 C 213.496094 283.6875 213.679688 281.089844 213.679688 281.089844 L 229.71875 275.128906 L 238.570312 275.449219 " fill-opacity="1" fill-rule="nonzero"/><path fill="#26285d" d="M 278.019531 274.589844 C 278.019531 274.589844 279.910156 281.050781 278.019531 282.042969 C 276.132812 283.035156 272.65625 282.738281 270.964844 282.042969 C 269.28125 281.34375 264.507812 277.203125 263.8125 275.550781 C 263.117188 273.894531 264.609375 271.316406 272.160156 273.398438 C 279.710938 275.488281 278.019531 274.589844 278.019531 274.589844 " fill-opacity="1" fill-rule="nonzero"/><path fill="#26285d" d="M 239.695312 190.140625 C 239.695312 190.140625 256.269531 234.140625 257.878906 234.855469 C 259.496094 235.570312 268.628906 238.257812 269.519531 234.855469 C 270.417969 231.453125 261.894531 187.488281 261.894531 187.488281 L 239.695312 190.140625 " fill-opacity="1" fill-rule="nonzero"/><path fill="#e66f64" d="M 261.117188 179.75 C 261.117188 179.75 257.703125 179.148438 256.074219 176.832031 C 256.074219 176.832031 255.8125 176.707031 255.589844 177.078125 C 255.359375 177.453125 255.617188 179.402344 256.277344 180.128906 C 256.933594 180.855469 258.726562 180.96875 258.726562 180.96875 L 261.117188 179.75 " fill-opacity="1" fill-rule="nonzero"/><path fill="#26285d" d="M 267.144531 169.085938 C 267.144531 169.085938 263.167969 176.566406 260.585938 180.984375 C 260.585938 180.984375 257.007812 186.113281 260.960938 187.121094 C 264.921875 188.125 272.855469 176.386719 275.914062 169.976562 C 277.648438 166.335938 267.773438 168.511719 267.144531 169.085938 " fill-opacity="1" fill-rule="nonzero"/><path fill="#26285d" d="M 267.007812 141.125 C 267.007812 141.125 271.421875 144.882812 276.007812 169.65625 C 276.007812 169.65625 276.128906 171.664062 269.652344 170.414062 C 265.710938 169.660156 267.136719 167.953125 261.632812 154.527344 C 261.632812 154.527344 264.542969 139.308594 267.007812 141.125 " fill-opacity="1" fill-rule="nonzero"/><path fill="#e66f64" d="M 254.0625 181.191406 C 252.890625 182.433594 253.21875 184.144531 254.042969 185.546875 C 255.359375 185.96875 257.453125 187.703125 261.746094 184.121094 C 261.746094 184.121094 262.789062 181.242188 259.351562 179.601562 C 259.351562 179.601562 260.324219 178.855469 257.570312 179.570312 C 256.785156 179.773438 255.824219 179.855469 254.839844 179.898438 C 254.671875 180.371094 254.421875 180.8125 254.0625 181.191406 " fill-opacity="1" fill-rule="nonzero"/><path fill="#f68c82" d="M 247.808594 115.347656 C 247.808594 115.347656 245.949219 115.527344 244.339844 118.089844 C 242.722656 120.648438 242.085938 127.164062 242.125 130.164062 C 242.164062 133.164062 243.585938 133.332031 243.585938 133.332031 L 246.226562 133.152344 L 246.105469 139.785156 C 246.105469 139.785156 253.328125 141.351562 255.171875 140.125 L 254.257812 134.007812 C 254.257812 134.007812 262.015625 112.703125 247.808594 115.347656 " fill-opacity="1" fill-rule="nonzero"/><path fill="#2e3192" d="M 246.855469 124.171875 C 246.855469 124.171875 249 122.804688 248.242188 125.417969 C 247.484375 128.03125 249.285156 127.914062 248.558594 130.261719 C 247.828125 132.609375 248.242188 133.496094 248.722656 133.804688 C 251.148438 135.359375 250.65625 132.777344 252.433594 132.984375 C 254.210938 133.195312 252.667969 135.007812 254.074219 134.558594 C 255.480469 134.109375 256.707031 134.167969 257.605469 132.902344 C 258.324219 131.878906 257.792969 131.558594 258.207031 130.597656 C 258.796875 129.226562 259.585938 128.078125 259.410156 126.523438 C 259.230469 124.96875 260.019531 123.140625 260.128906 121.445312 C 260.238281 119.742188 258.984375 115.851562 258.144531 115.304688 C 257.308594 114.753906 255.90625 114.691406 254.972656 114.222656 C 254.035156 113.753906 251.542969 112.527344 248.890625 112.75 C 246.058594 112.996094 245.773438 115.46875 244.453125 115.4375 C 242.433594 115.386719 241.863281 116.21875 241.605469 117.628906 C 241.347656 119.042969 242.316406 120.347656 242.773438 119.683594 C 244.390625 117.296875 244.75 118.050781 244.75 118.050781 C 244.75 118.050781 246.851562 120.382812 246.945312 121.117188 C 247.042969 121.851562 246.855469 124.171875 246.855469 124.171875 " fill-opacity="1" fill-rule="nonzero"/><path fill="#ededed" d="M 245.085938 137.511719 L 245.289062 134.652344 C 245.289062 134.652344 251.15625 132.859375 254.976562 134.71875 L 255.242188 138 L 245.085938 137.511719 " fill-opacity="1" fill-rule="nonzero"/><path fill="#2e3192" d="M 254.667969 136.75 C 254.667969 136.75 264.882812 140.332031 266.5 141.164062 C 268.113281 142 266.179688 157.65625 265.25 158.90625 C 264.328125 160.15625 263.691406 177.28125 263.691406 177.28125 L 264.90625 199.183594 C 264.90625 199.183594 242.222656 206.371094 231.90625 198.660156 L 234.054688 164.300781 L 232.636719 140.980469 L 248.996094 136.351562 C 250.480469 136.453125 254.667969 136.75 254.667969 136.75 " fill-opacity="1" fill-rule="nonzero"/><path fill="#2e3192" d="M 236.289062 188.617188 C 235.753906 188.699219 234.199219 189.84375 234.199219 189.84375 C 234.199219 189.84375 229.265625 228.199219 231.742188 235.96875 C 231.742188 235.96875 238.613281 240.410156 242.757812 233.9375 C 246.902344 227.46875 254.96875 207.269531 255.507812 206.835938 C 256.042969 206.40625 261.894531 189.84375 261.894531 189.84375 L 236.289062 188.617188 " fill-opacity="1" fill-rule="nonzero"/><path fill="#e66f64" d="M 228.675781 180.320312 C 228.675781 180.320312 232.144531 180.226562 234.097656 178.183594 C 234.097656 178.183594 234.367188 178.09375 234.542969 178.492188 C 234.710938 178.894531 234.167969 180.789062 233.410156 181.40625 C 232.65625 182.027344 230.867188 181.875 230.867188 181.875 L 228.675781 180.320312 " fill-opacity="1" fill-rule="nonzero"/><path fill="#2e3192" d="M 225.398438 167.246094 C 225.398438 167.246094 226.902344 171.933594 229.804688 180.289062 C 229.804688 180.289062 233.574219 185.6875 229.492188 185.8125 C 225.414062 185.941406 219.507812 177.179688 216.980469 171.15625 C 215.421875 167.4375 215.480469 162.371094 225.398438 167.246094 " fill-opacity="1" fill-rule="nonzero"/><path fill="#2e3192" d="M 232.816406 140.734375 C 232.816406 140.734375 227.035156 142.699219 217.203125 165.894531 C 217.203125 165.894531 216.648438 167.828125 223.242188 168.011719 C 227.253906 168.121094 226.230469 166.152344 234.507812 154.230469 C 234.507812 154.230469 235.609375 139.496094 232.816406 140.734375 " fill-opacity="1" fill-rule="nonzero"/><path fill="#e66f64" d="M 235.097656 182.539062 C 236.074219 183.9375 235.53125 188.011719 234.515625 189.277344 C 233.152344 189.5 230.4375 188.992188 226.722656 184.820312 C 226.722656 184.820312 228.367188 183.472656 228.988281 181.476562 C 228.988281 181.476562 229.253906 179.308594 231.863281 180.417969 C 232.613281 180.738281 233.179688 181.492188 234.144531 181.683594 C 234.738281 181.726562 234.796875 182.109375 235.097656 182.539062 " fill-opacity="1" fill-rule="nonzero"/><path fill="#2e3192" d="M 230.757812 229.324219 C 230.757812 229.324219 229.128906 269.417969 228.949219 275.679688 C 228.863281 278.515625 237.320312 282.488281 238.167969 276.332031 C 239.015625 270.179688 246.308594 241.792969 243.570312 232.585938 C 243.570312 232.585938 237.71875 230.824219 236.542969 231.207031 C 235.363281 231.597656 230.757812 229.324219 230.757812 229.324219 " fill-opacity="1" fill-rule="nonzero"/><path fill="#26285d" d="M 260.109375 231.863281 C 259.035156 232.578125 257.269531 233.984375 257.269531 233.984375 C 257.269531 233.984375 269.226562 273.753906 270.339844 275.902344 C 271.449219 278.046875 277.484375 278.769531 278.378906 274.828125 C 279.277344 270.890625 275.046875 237.8125 268.433594 230.292969 L 260.109375 231.863281 " fill-opacity="1" fill-rule="nonzero"/><path fill="#26285d" d="M 113.027344 268.742188 C 113.027344 268.996094 112.09375 275.445312 113.027344 276.039062 C 113.960938 276.632812 131.527344 277.054688 134.15625 276.800781 C 136.789062 276.546875 136.621094 274.085938 136.621094 274.085938 L 121.417969 268.441406 L 113.027344 268.742188 " fill-opacity="1" fill-rule="nonzero"/><path fill="#26285d" d="M 75.636719 267.929688 C 75.636719 267.929688 73.851562 274.046875 75.636719 274.992188 C 77.425781 275.929688 80.726562 275.652344 82.324219 274.992188 C 83.925781 274.328125 88.449219 270.40625 89.105469 268.835938 C 89.765625 267.273438 88.351562 264.820312 81.195312 266.800781 C 74.039062 268.777344 75.636719 267.929688 75.636719 267.929688 " fill-opacity="1" fill-rule="nonzero"/><path fill="#26285d" d="M 111.964844 187.890625 C 111.964844 187.890625 96.257812 229.589844 94.730469 230.273438 C 93.199219 230.949219 84.542969 233.496094 83.695312 230.273438 C 82.84375 227.046875 90.925781 185.378906 90.925781 185.378906 L 111.964844 187.890625 " fill-opacity="1" fill-rule="nonzero"/><path fill="#2e3192" d="M 115.191406 186.453125 C 115.699219 186.527344 117.171875 187.613281 117.171875 187.613281 C 117.171875 187.613281 121.84375 223.964844 119.503906 231.332031 C 119.503906 231.332031 112.984375 235.535156 109.0625 229.402344 C 105.136719 223.273438 97.488281 204.128906 96.976562 203.71875 C 96.46875 203.308594 90.925781 187.613281 90.925781 187.613281 L 115.191406 186.453125 " fill-opacity="1" fill-rule="nonzero"/><path fill="#2e3192" d="M 120.433594 225.027344 C 120.433594 225.027344 121.976562 263.023438 122.148438 268.960938 C 122.226562 271.648438 114.210938 275.410156 113.410156 269.578125 C 112.605469 263.75 105.695312 236.839844 108.289062 228.117188 C 108.289062 228.117188 113.835938 226.449219 114.953125 226.816406 C 116.070312 227.179688 120.433594 225.027344 120.433594 225.027344 " fill-opacity="1" fill-rule="nonzero"/><path fill="#26285d" d="M 92.613281 227.4375 C 93.636719 228.113281 95.308594 229.445312 95.308594 229.445312 C 95.308594 229.445312 83.96875 267.136719 82.925781 269.175781 C 81.871094 271.207031 76.152344 271.886719 75.304688 268.152344 C 74.457031 264.421875 78.457031 233.070312 84.726562 225.945312 L 92.613281 227.4375 " fill-opacity="1" fill-rule="nonzero"/><path fill="#e66f64" d="M 91.660156 178.042969 C 91.660156 178.042969 94.898438 177.476562 96.441406 175.285156 C 96.441406 175.285156 96.683594 175.167969 96.898438 175.515625 C 97.113281 175.871094 96.875 177.71875 96.25 178.40625 C 95.625 179.09375 93.929688 179.199219 93.929688 179.199219 L 91.660156 178.042969 " fill-opacity="1" fill-rule="nonzero"/><path fill="#e66f64" d="M 86.089844 167.46875 C 86.089844 167.46875 85.222656 174.113281 92.835938 178.636719 C 92.835938 178.636719 97.148438 182.085938 93.402344 183.035156 C 89.644531 183.988281 82.804688 179.867188 79.910156 173.789062 C 78.265625 170.339844 77.015625 159.039062 86.089844 167.46875 " fill-opacity="1" fill-rule="nonzero"/><path fill="#bdbcbc" d="M 87.527344 141.421875 C 87.527344 141.421875 82.585938 144.417969 78.222656 167.890625 C 78.222656 167.890625 78.113281 169.796875 84.25 168.621094 C 87.984375 167.902344 86.632812 166.28125 91.855469 153.558594 C 91.855469 153.558594 89.859375 139.703125 87.527344 141.421875 " fill-opacity="1" fill-rule="nonzero"/><path fill="#bdbcbc" d="M 86.917969 166.082031 C 86.917969 166.082031 87.753906 168.214844 86.714844 169.191406 C 85.679688 170.167969 78.21875 171.871094 77.671875 171.28125 C 77.125 170.691406 75.332031 165.34375 77.726562 164.210938 C 80.121094 163.074219 86.917969 166.082031 86.917969 166.082031 " fill-opacity="1" fill-rule="nonzero"/><path fill="#e66f64" d="M 98.34375 179.410156 C 99.457031 180.585938 99.144531 182.214844 98.363281 183.542969 C 97.117188 183.941406 95.132812 185.582031 91.066406 182.191406 C 91.066406 182.191406 90.074219 179.460938 93.328125 177.90625 C 93.328125 177.90625 92.414062 177.203125 95.015625 177.875 C 95.765625 178.070312 96.679688 178.148438 97.609375 178.191406 C 97.765625 178.632812 98.007812 179.054688 98.34375 179.410156 " fill-opacity="1" fill-rule="nonzero"/><path fill="#f68c82" d="M 107.558594 114.464844 C 107.558594 114.464844 109.304688 114.710938 110.714844 117.210938 C 112.128906 119.710938 112.433594 125.902344 112.261719 128.742188 C 112.089844 131.582031 110.738281 131.671875 110.738281 131.671875 L 107.914062 132.53125 L 108.0625 137.675781 C 108.0625 137.675781 102.648438 138.59375 100.953125 137.351562 L 100.605469 131.832031 C 100.605469 131.832031 94.222656 111.3125 107.558594 114.464844 " fill-opacity="1" fill-rule="nonzero"/><path fill="#2e3192" d="M 107.71875 122.863281 C 107.71875 122.863281 106.160156 121.40625 106.347656 123.980469 C 106.683594 128.519531 107.660156 129.132812 108.242188 131.390625 C 108.824219 133.644531 108.804688 133.671875 106.433594 135.027344 C 104.058594 136.382812 104.109375 135.789062 102.414062 135.902344 C 100.722656 136.023438 99.882812 134.960938 98.574219 134.46875 C 97.261719 133.976562 96.753906 133.679688 95.960938 132.441406 C 95.320312 131.441406 95.105469 130.390625 94.757812 129.464844 C 94.257812 128.136719 94.332031 125.515625 94.570312 124.054688 C 94.8125 122.59375 94.253906 121.332031 94.226562 119.71875 C 94.199219 118.109375 95.949219 115.171875 96.765625 114.6875 C 97.585938 114.203125 99.578125 113.484375 100.484375 113.078125 C 101.394531 112.671875 104.722656 110.484375 106.707031 112.050781 C 108.6875 113.613281 109.90625 112.976562 111.160156 113.003906 C 113.074219 113.050781 114.003906 115.453125 114.183594 116.800781 C 114.363281 118.148438 113.480469 118.890625 112.828125 119.277344 C 112.175781 119.664062 110.65625 118.660156 110.65625 118.660156 C 110.65625 118.660156 107.890625 119.277344 107.769531 119.96875 C 107.648438 120.660156 107.71875 122.863281 107.71875 122.863281 " fill-opacity="1" fill-rule="nonzero"/><path fill="#ededed" d="M 100.90625 136.554688 C 100.90625 136.554688 88.785156 140.113281 87.25 140.898438 C 85.71875 141.683594 87.546875 156.523438 88.425781 157.710938 C 89.300781 158.898438 90.75 168.996094 90.75 168.996094 L 89.621094 188.011719 C 89.621094 188.011719 109.480469 193.925781 119.261719 186.628906 L 117.992188 162.835938 L 119.34375 140.734375 L 105.285156 136.246094 L 100.90625 136.554688 " fill-opacity="1" fill-rule="nonzero"/><path fill="#f68c82" d="M 123.40625 177.789062 C 123.40625 177.789062 120.121094 177.699219 118.269531 175.761719 C 118.269531 175.761719 118.011719 175.679688 117.851562 176.054688 C 117.691406 176.4375 118.199219 178.234375 118.921875 178.820312 C 119.636719 179.410156 121.332031 179.265625 121.332031 179.265625 L 123.40625 177.789062 " fill-opacity="1" fill-rule="nonzero"/><path fill="#f68c82" d="M 126.191406 165.628906 C 126.191406 165.628906 128.46875 171.933594 122.003906 177.992188 C 122.003906 177.992188 118.539062 182.289062 122.40625 182.410156 C 126.269531 182.527344 132.066406 177.035156 133.585938 170.472656 C 134.445312 166.75 133.234375 155.445312 126.191406 165.628906 " fill-opacity="1" fill-rule="nonzero"/><path fill="#ededed" d="M 119.175781 140.503906 C 119.175781 140.503906 124.648438 142.367188 133.960938 164.351562 C 133.960938 164.351562 134.480469 166.1875 128.234375 166.363281 C 124.433594 166.460938 125.398438 164.59375 117.566406 153.296875 C 117.566406 153.296875 116.523438 139.332031 119.175781 140.503906 " fill-opacity="1" fill-rule="nonzero"/><path fill="#ededed" d="M 125.085938 164.464844 C 125.085938 164.464844 124.726562 166.71875 125.949219 167.449219 C 127.175781 168.179688 134.828125 168.238281 135.230469 167.542969 C 135.636719 166.851562 136.238281 161.242188 133.652344 160.648438 C 131.070312 160.058594 125.085938 164.464844 125.085938 164.464844 " fill-opacity="1" fill-rule="nonzero"/><path fill="#f68c82" d="M 116.992188 180.125 C 116.070312 181.449219 116.613281 183.007812 117.582031 184.210938 C 118.875 184.421875 121.082031 185.753906 124.601562 181.800781 C 124.601562 181.800781 125.179688 178.953125 121.734375 177.898438 C 121.734375 177.898438 122.539062 177.066406 120.058594 178.113281 C 119.347656 178.417969 118.457031 178.628906 117.542969 178.808594 C 117.449219 179.265625 117.277344 179.71875 116.992188 180.125 " fill-opacity="1" fill-rule="nonzero"/><path fill="#26285d" d="M 162.140625 288.671875 C 162.117188 288.886719 159.375 291.042969 161.25 293.46875 C 161.835938 294.230469 172.191406 294.695312 174.476562 294.699219 C 176.765625 294.707031 183.671875 291.566406 179.113281 290.332031 C 174.554688 289.097656 168.816406 289.324219 168.816406 289.324219 L 162.140625 288.671875 " fill-opacity="1" fill-rule="nonzero"/><path fill="#e66f64" d="M 155.773438 242.335938 C 155.773438 242.335938 148.773438 249.128906 148.210938 265.28125 C 148.210938 265.28125 147.773438 282.007812 149.316406 282.007812 C 151.945312 282.007812 164.367188 245.925781 164.257812 243.300781 C 164.144531 240.675781 155.773438 242.335938 155.773438 242.335938 " fill-opacity="1" fill-rule="nonzero"/><path fill="#f68c82" d="M 164.789062 243.417969 C 164.789062 243.417969 159.167969 253.726562 160.117188 269.78125 C 160.117188 269.78125 162.277344 288.199219 163.972656 287.953125 C 166.855469 287.539062 174.78125 246 174.246094 243.140625 C 173.707031 240.277344 164.789062 243.417969 164.789062 243.417969 " fill-opacity="1" fill-rule="nonzero"/><path fill="#e66f64" d="M 167.257812 232.277344 C 167.257812 232.277344 165.070312 244.660156 161.898438 245.207031 C 158.738281 245.757812 155.660156 243.765625 155.097656 243.304688 C 155.019531 243.246094 154.898438 242.992188 154.75 242.601562 C 153.808594 240.144531 151.691406 232.277344 151.691406 232.277344 L 167.257812 232.277344 " fill-opacity="1" fill-rule="nonzero"/><path fill="#f68c82" d="M 157.257812 219.457031 C 157.257812 219.457031 162.390625 239.988281 164.738281 244.226562 C 166.960938 248.234375 174.269531 243.425781 174.269531 243.425781 C 174.269531 243.425781 175.191406 230.140625 175.277344 229.378906 C 175.363281 228.621094 157.257812 219.457031 157.257812 219.457031 " fill-opacity="1" fill-rule="nonzero"/><path fill="#f68c82" d="M 166.589844 128.824219 C 166.589844 128.824219 168.507812 129.097656 170.054688 131.832031 C 171.59375 134.566406 171.933594 141.351562 171.746094 144.460938 C 171.554688 147.570312 170.074219 147.675781 170.074219 147.675781 L 166.980469 148.613281 L 167.144531 154.246094 C 167.144531 154.246094 161.21875 155.253906 159.363281 153.890625 L 158.976562 147.847656 C 158.976562 147.847656 151.992188 125.371094 166.589844 128.824219 " fill-opacity="1" fill-rule="nonzero"/><path fill="#f7981a" d="M 150.738281 154.003906 C 152.371094 150.789062 152.988281 160.425781 152.988281 160.425781 C 153.835938 170.785156 153.835938 175.859375 152.386719 185.207031 C 153.882812 199.628906 155.480469 204.710938 155.480469 204.710938 L 156.59375 206.335938 L 155.578125 206.953125 C 156.5625 207.976562 155.472656 207.9375 154.332031 207.714844 L 153.472656 208.238281 L 153.253906 207.460938 C 152.84375 207.351562 152.546875 207.257812 152.546875 207.257812 C 146.597656 198.464844 142.96875 169.308594 150.738281 154.003906 " fill-opacity="1" fill-rule="nonzero"/><path fill="#26285d" d="M 155.386719 204.324219 C 155.386719 204.324219 157.503906 204.980469 158.851562 207.792969 C 160.203125 210.601562 158.585938 208.648438 153.917969 204.875 L 155.386719 204.324219 " fill-opacity="1" fill-rule="nonzero"/><path fill="#26285d" d="M 158.835938 210.585938 C 158.671875 210.675781 158.503906 210.769531 158.335938 210.851562 C 157.324219 211.363281 156.085938 211.535156 154.953125 211.496094 C 154.152344 210.652344 153.265625 209.347656 152.335938 207.261719 C 152.335938 207.261719 153.523438 203.292969 155.871094 204.539062 C 155.871094 204.539062 156.765625 205.839844 157.933594 208.277344 C 158.429688 209.3125 158.710938 209.945312 158.925781 210.460938 L 158.835938 210.585938 " fill-opacity="1" fill-rule="nonzero"/><path fill="#ededed" d="M 176.277344 194.792969 L 151.605469 194.183594 C 151.605469 194.183594 142.492188 201.132812 147.085938 218.457031 C 151.03125 233.34375 153.457031 238.566406 153.457031 238.566406 C 153.457031 238.566406 171.042969 242.496094 175.277344 237.757812 C 175.277344 237.757812 181.257812 203.316406 176.277344 194.792969 " fill-opacity="1" fill-rule="nonzero"/><path fill="#f68c82" d="M 202.363281 186.398438 C 202.363281 186.398438 204.664062 184.816406 207.683594 185.558594 C 210.707031 186.300781 208.476562 186.777344 201.894531 188.566406 L 202.363281 186.398438 " fill-opacity="1" fill-rule="nonzero"/><path fill="#f68c82" d="M 204.082031 185.832031 C 204.082031 185.832031 205.691406 186.144531 208.179688 187.167969 C 210.667969 188.191406 210.789062 188.351562 212.3125 189.207031 C 213.367188 189.800781 212.167969 190.003906 212.105469 190.046875 C 212.070312 190.074219 212.277344 190.058594 212.125 190.382812 C 212.035156 190.582031 211.613281 190.960938 211.335938 191.082031 C 211.160156 191.160156 210.554688 191.417969 210.289062 191.535156 C 209.015625 192.089844 206.621094 192.976562 201.898438 190.824219 C 201.898438 190.824219 201.023438 186.765625 204.082031 185.832031 " fill-opacity="1" fill-rule="nonzero"/><path fill="#fab43d" d="M 177.019531 165.195312 C 177.019531 165.195312 175.84375 156.1875 172.828125 155.4375 C 169.8125 154.679688 161.605469 157.792969 161.605469 157.792969 L 163.074219 197.335938 C 163.074219 197.335938 177.40625 198.457031 179.335938 197.273438 C 181.257812 196.085938 177.019531 165.195312 177.019531 165.195312 " fill-opacity="1" fill-rule="nonzero"/><path fill="#26285d" d="M 147 284.953125 C 147 284.953125 145.128906 289.578125 146.679688 290.390625 C 148.226562 291.203125 149.144531 291.273438 150.53125 290.703125 C 151.914062 290.132812 156.472656 286.980469 157.394531 285.832031 C 159.519531 283.203125 159.503906 281.875 152.09375 283.753906 C 149.796875 284.335938 147 284.953125 147 284.953125 " fill-opacity="1" fill-rule="nonzero"/><path fill="#fab43d" d="M 151.035156 194.710938 C 151.035156 194.710938 153.625 186.265625 154.347656 183.136719 L 150.84375 163.027344 L 151.292969 153.460938 C 151.292969 153.460938 151.898438 152.820312 158.53125 152.28125 C 158.53125 152.28125 166.765625 153.636719 172.828125 155.4375 C 172.828125 155.4375 173.511719 158.460938 174.640625 162.699219 C 175.34375 165.34375 174.074219 173.617188 174.355469 175.570312 C 174.742188 178.265625 175.925781 192.933594 176.277344 194.792969 C 176.636719 196.65625 166.859375 199.582031 151.035156 194.710938 " fill-opacity="1" fill-rule="nonzero"/><path fill="#fab43d" d="M 173.4375 155.644531 C 176.117188 157.613281 175.445312 157.425781 185.765625 175.113281 C 188.386719 179.597656 188.167969 180.570312 185.117188 180.484375 C 182.066406 180.394531 170.148438 168.136719 168.980469 163.105469 C 166.535156 152.609375 173.4375 155.644531 173.4375 155.644531 " fill-opacity="1" fill-rule="nonzero"/><path fill="#ffffff" d="M 201.5 185.832031 L 203.605469 186.558594 C 203.605469 186.558594 204.953125 190.164062 202.550781 191.109375 L 201.246094 190.542969 L 201.5 185.832031 " fill-opacity="1" fill-rule="nonzero"/><path fill="#fab43d" d="M 178.902344 176.253906 C 178.902344 176.253906 186.796875 188.484375 201.898438 191.054688 C 201.898438 191.054688 204.015625 190.042969 202.851562 187.453125 C 201.371094 184.128906 199.070312 187.363281 187.089844 175.320312 C 182.253906 170.457031 178.902344 176.253906 178.902344 176.253906 " fill-opacity="1" fill-rule="nonzero"/><path fill="#2e3192" d="M 171.125 135.089844 C 171.125 135.089844 169.820312 139.769531 167.34375 139.992188 C 167.34375 139.992188 168.890625 143.492188 167.34375 144.128906 C 165.859375 144.738281 167.152344 144.730469 167.152344 144.730469 C 167.152344 144.730469 169.671875 150.683594 168.816406 156.683594 C 167.972656 162.6875 151.390625 163.128906 151.289062 155.796875 C 151.183594 148.464844 151.269531 141.535156 155.742188 131.128906 C 160.132812 120.917969 178.3125 131.832031 171.125 135.089844 " fill-opacity="1" fill-rule="nonzero"/><path fill="#f68c82" d="M 167.441406 144.726562 C 166.648438 144.882812 165.777344 143.847656 165.496094 142.417969 C 165.210938 140.984375 165.628906 139.703125 166.421875 139.546875 C 167.214844 139.390625 168.085938 140.425781 168.367188 141.851562 C 168.652344 143.285156 168.238281 144.566406 167.441406 144.726562 " fill-opacity="1" fill-rule="nonzero"/><path fill="#e66f64" d="M 148.273438 276.351562 L 151.960938 278.085938 C 151.960938 278.085938 149.875 284.558594 151.035156 284.214844 C 156.207031 282.667969 157.992188 283.542969 152.148438 286.511719 C 151.691406 286.742188 147.921875 287.914062 147.316406 287.316406 C 146.484375 286.488281 148.15625 281.609375 148.273438 276.351562 " fill-opacity="1" fill-rule="nonzero"/><path fill="#f68c82" d="M 161.898438 281.726562 C 161.945312 282.121094 166.09375 283.730469 166.09375 283.730469 C 166.09375 283.730469 165.238281 289.089844 168.816406 289.324219 C 171.582031 289.503906 174.78125 289.78125 174.070312 290.738281 C 173.363281 291.691406 169.1875 291.691406 168.023438 291.683594 C 166.980469 291.683594 161.28125 292.640625 161.84375 290.308594 C 162.476562 287.65625 161.898438 281.726562 161.898438 281.726562 " fill-opacity="1" fill-rule="nonzero"/></svg>